G04 #@! TF.GenerationSoftware,KiCad,Pcbnew,(5.1.4)-1*
G04 #@! TF.CreationDate,2020-05-02T17:21:18-05:00*
G04 #@! TF.ProjectId,Audio_Optical_Trigger,41756469-6f5f-44f7-9074-6963616c5f54,rev?*
G04 #@! TF.SameCoordinates,Original*
G04 #@! TF.FileFunction,Soldermask,Bot*
G04 #@! TF.FilePolarity,Negative*
%FSLAX46Y46*%
G04 Gerber Fmt 4.6, Leading zero omitted, Abs format (unit mm)*
G04 Created by KiCad (PCBNEW (5.1.4)-1) date 2020-05-02 17:21:18*
%MOMM*%
%LPD*%
G04 APERTURE LIST*
%ADD10C,0.100000*%
G04 APERTURE END LIST*
D10*
G36*
X160655000Y-130302000D02*
G01*
X157988000Y-130302000D01*
X157988000Y-128270000D01*
X160655000Y-128270000D01*
X160655000Y-130302000D01*
X160655000Y-130302000D01*
G37*
G36*
X165776585Y-126068552D02*
G01*
X165926410Y-126098354D01*
X166208674Y-126215271D01*
X166462705Y-126385009D01*
X166678741Y-126601045D01*
X166848479Y-126855076D01*
X166965396Y-127137340D01*
X167025000Y-127436990D01*
X167025000Y-127742510D01*
X166965396Y-128042160D01*
X166848479Y-128324424D01*
X166678741Y-128578455D01*
X166462705Y-128794491D01*
X166208674Y-128964229D01*
X165926410Y-129081146D01*
X165776585Y-129110948D01*
X165626761Y-129140750D01*
X165321239Y-129140750D01*
X165171415Y-129110948D01*
X165021590Y-129081146D01*
X164739326Y-128964229D01*
X164485295Y-128794491D01*
X164269259Y-128578455D01*
X164099521Y-128324424D01*
X163982604Y-128042160D01*
X163923000Y-127742510D01*
X163923000Y-127436990D01*
X163982604Y-127137340D01*
X164099521Y-126855076D01*
X164269259Y-126601045D01*
X164485295Y-126385009D01*
X164739326Y-126215271D01*
X165021590Y-126098354D01*
X165171415Y-126068552D01*
X165321239Y-126038750D01*
X165626761Y-126038750D01*
X165776585Y-126068552D01*
X165776585Y-126068552D01*
G37*
G36*
X112426585Y-126068552D02*
G01*
X112576410Y-126098354D01*
X112858674Y-126215271D01*
X113112705Y-126385009D01*
X113328741Y-126601045D01*
X113498479Y-126855076D01*
X113615396Y-127137340D01*
X113675000Y-127436990D01*
X113675000Y-127742510D01*
X113615396Y-128042160D01*
X113498479Y-128324424D01*
X113328741Y-128578455D01*
X113112705Y-128794491D01*
X112858674Y-128964229D01*
X112576410Y-129081146D01*
X112426585Y-129110948D01*
X112276761Y-129140750D01*
X111971239Y-129140750D01*
X111821415Y-129110948D01*
X111671590Y-129081146D01*
X111389326Y-128964229D01*
X111135295Y-128794491D01*
X110919259Y-128578455D01*
X110749521Y-128324424D01*
X110632604Y-128042160D01*
X110573000Y-127742510D01*
X110573000Y-127436990D01*
X110632604Y-127137340D01*
X110749521Y-126855076D01*
X110919259Y-126601045D01*
X111135295Y-126385009D01*
X111389326Y-126215271D01*
X111671590Y-126098354D01*
X111821415Y-126068552D01*
X111971239Y-126038750D01*
X112276761Y-126038750D01*
X112426585Y-126068552D01*
X112426585Y-126068552D01*
G37*
G36*
X143237000Y-123874500D02*
G01*
X140735000Y-123874500D01*
X140735000Y-121372500D01*
X143237000Y-121372500D01*
X143237000Y-123874500D01*
X143237000Y-123874500D01*
G37*
G36*
X145850903Y-121420575D02*
G01*
X146072536Y-121512378D01*
X146078571Y-121514878D01*
X146283466Y-121651785D01*
X146457715Y-121826034D01*
X146592953Y-122028431D01*
X146594623Y-122030931D01*
X146688925Y-122258597D01*
X146737000Y-122500286D01*
X146737000Y-122746714D01*
X146688925Y-122988403D01*
X146595659Y-123213569D01*
X146594622Y-123216071D01*
X146457715Y-123420966D01*
X146283466Y-123595215D01*
X146078571Y-123732122D01*
X146078570Y-123732123D01*
X146078569Y-123732123D01*
X145850903Y-123826425D01*
X145609214Y-123874500D01*
X145362786Y-123874500D01*
X145121097Y-123826425D01*
X144893431Y-123732123D01*
X144893430Y-123732123D01*
X144893429Y-123732122D01*
X144688534Y-123595215D01*
X144514285Y-123420966D01*
X144377378Y-123216071D01*
X144376342Y-123213569D01*
X144283075Y-122988403D01*
X144235000Y-122746714D01*
X144235000Y-122500286D01*
X144283075Y-122258597D01*
X144377377Y-122030931D01*
X144379047Y-122028431D01*
X144514285Y-121826034D01*
X144688534Y-121651785D01*
X144893429Y-121514878D01*
X144899465Y-121512378D01*
X145121097Y-121420575D01*
X145362786Y-121372500D01*
X145609214Y-121372500D01*
X145850903Y-121420575D01*
X145850903Y-121420575D01*
G37*
G36*
X149350903Y-121420575D02*
G01*
X149572536Y-121512378D01*
X149578571Y-121514878D01*
X149783466Y-121651785D01*
X149957715Y-121826034D01*
X150092953Y-122028431D01*
X150094623Y-122030931D01*
X150188925Y-122258597D01*
X150237000Y-122500286D01*
X150237000Y-122746714D01*
X150188925Y-122988403D01*
X150095659Y-123213569D01*
X150094622Y-123216071D01*
X149957715Y-123420966D01*
X149783466Y-123595215D01*
X149578571Y-123732122D01*
X149578570Y-123732123D01*
X149578569Y-123732123D01*
X149350903Y-123826425D01*
X149109214Y-123874500D01*
X148862786Y-123874500D01*
X148621097Y-123826425D01*
X148393431Y-123732123D01*
X148393430Y-123732123D01*
X148393429Y-123732122D01*
X148188534Y-123595215D01*
X148014285Y-123420966D01*
X147877378Y-123216071D01*
X147876342Y-123213569D01*
X147783075Y-122988403D01*
X147735000Y-122746714D01*
X147735000Y-122500286D01*
X147783075Y-122258597D01*
X147877377Y-122030931D01*
X147879047Y-122028431D01*
X148014285Y-121826034D01*
X148188534Y-121651785D01*
X148393429Y-121514878D01*
X148399465Y-121512378D01*
X148621097Y-121420575D01*
X148862786Y-121372500D01*
X149109214Y-121372500D01*
X149350903Y-121420575D01*
X149350903Y-121420575D01*
G37*
G36*
X137793903Y-121418075D02*
G01*
X138015536Y-121509878D01*
X138021571Y-121512378D01*
X138226466Y-121649285D01*
X138400715Y-121823534D01*
X138535953Y-122025931D01*
X138537623Y-122028431D01*
X138631925Y-122256097D01*
X138680000Y-122497786D01*
X138680000Y-122744214D01*
X138631925Y-122985903D01*
X138538659Y-123211069D01*
X138537622Y-123213571D01*
X138400715Y-123418466D01*
X138226466Y-123592715D01*
X138021571Y-123729622D01*
X138021570Y-123729623D01*
X138021569Y-123729623D01*
X137793903Y-123823925D01*
X137552214Y-123872000D01*
X137305786Y-123872000D01*
X137064097Y-123823925D01*
X136836431Y-123729623D01*
X136836430Y-123729623D01*
X136836429Y-123729622D01*
X136631534Y-123592715D01*
X136457285Y-123418466D01*
X136320378Y-123213571D01*
X136319342Y-123211069D01*
X136226075Y-122985903D01*
X136178000Y-122744214D01*
X136178000Y-122497786D01*
X136226075Y-122256097D01*
X136320377Y-122028431D01*
X136322047Y-122025931D01*
X136457285Y-121823534D01*
X136631534Y-121649285D01*
X136836429Y-121512378D01*
X136842465Y-121509878D01*
X137064097Y-121418075D01*
X137305786Y-121370000D01*
X137552214Y-121370000D01*
X137793903Y-121418075D01*
X137793903Y-121418075D01*
G37*
G36*
X134293903Y-121418075D02*
G01*
X134515536Y-121509878D01*
X134521571Y-121512378D01*
X134726466Y-121649285D01*
X134900715Y-121823534D01*
X135035953Y-122025931D01*
X135037623Y-122028431D01*
X135131925Y-122256097D01*
X135180000Y-122497786D01*
X135180000Y-122744214D01*
X135131925Y-122985903D01*
X135038659Y-123211069D01*
X135037622Y-123213571D01*
X134900715Y-123418466D01*
X134726466Y-123592715D01*
X134521571Y-123729622D01*
X134521570Y-123729623D01*
X134521569Y-123729623D01*
X134293903Y-123823925D01*
X134052214Y-123872000D01*
X133805786Y-123872000D01*
X133564097Y-123823925D01*
X133336431Y-123729623D01*
X133336430Y-123729623D01*
X133336429Y-123729622D01*
X133131534Y-123592715D01*
X132957285Y-123418466D01*
X132820378Y-123213571D01*
X132819342Y-123211069D01*
X132726075Y-122985903D01*
X132678000Y-122744214D01*
X132678000Y-122497786D01*
X132726075Y-122256097D01*
X132820377Y-122028431D01*
X132822047Y-122025931D01*
X132957285Y-121823534D01*
X133131534Y-121649285D01*
X133336429Y-121512378D01*
X133342465Y-121509878D01*
X133564097Y-121418075D01*
X133805786Y-121370000D01*
X134052214Y-121370000D01*
X134293903Y-121418075D01*
X134293903Y-121418075D01*
G37*
G36*
X131680000Y-123872000D02*
G01*
X129178000Y-123872000D01*
X129178000Y-121370000D01*
X131680000Y-121370000D01*
X131680000Y-123872000D01*
X131680000Y-123872000D01*
G37*
G36*
X126236903Y-121415575D02*
G01*
X126464571Y-121509878D01*
X126669466Y-121646785D01*
X126843715Y-121821034D01*
X126847056Y-121826034D01*
X126980623Y-122025931D01*
X127074925Y-122253597D01*
X127123000Y-122495286D01*
X127123000Y-122741714D01*
X127122005Y-122746714D01*
X127074925Y-122983403D01*
X126980622Y-123211071D01*
X126843715Y-123415966D01*
X126669466Y-123590215D01*
X126464571Y-123727122D01*
X126464570Y-123727123D01*
X126464569Y-123727123D01*
X126236903Y-123821425D01*
X125995214Y-123869500D01*
X125748786Y-123869500D01*
X125507097Y-123821425D01*
X125279431Y-123727123D01*
X125279430Y-123727123D01*
X125279429Y-123727122D01*
X125074534Y-123590215D01*
X124900285Y-123415966D01*
X124763378Y-123211071D01*
X124669075Y-122983403D01*
X124621995Y-122746714D01*
X124621000Y-122741714D01*
X124621000Y-122495286D01*
X124669075Y-122253597D01*
X124763377Y-122025931D01*
X124896944Y-121826034D01*
X124900285Y-121821034D01*
X125074534Y-121646785D01*
X125279429Y-121509878D01*
X125507097Y-121415575D01*
X125748786Y-121367500D01*
X125995214Y-121367500D01*
X126236903Y-121415575D01*
X126236903Y-121415575D01*
G37*
G36*
X122736903Y-121415575D02*
G01*
X122964571Y-121509878D01*
X123169466Y-121646785D01*
X123343715Y-121821034D01*
X123347056Y-121826034D01*
X123480623Y-122025931D01*
X123574925Y-122253597D01*
X123623000Y-122495286D01*
X123623000Y-122741714D01*
X123622005Y-122746714D01*
X123574925Y-122983403D01*
X123480622Y-123211071D01*
X123343715Y-123415966D01*
X123169466Y-123590215D01*
X122964571Y-123727122D01*
X122964570Y-123727123D01*
X122964569Y-123727123D01*
X122736903Y-123821425D01*
X122495214Y-123869500D01*
X122248786Y-123869500D01*
X122007097Y-123821425D01*
X121779431Y-123727123D01*
X121779430Y-123727123D01*
X121779429Y-123727122D01*
X121574534Y-123590215D01*
X121400285Y-123415966D01*
X121263378Y-123211071D01*
X121169075Y-122983403D01*
X121121995Y-122746714D01*
X121121000Y-122741714D01*
X121121000Y-122495286D01*
X121169075Y-122253597D01*
X121263377Y-122025931D01*
X121396944Y-121826034D01*
X121400285Y-121821034D01*
X121574534Y-121646785D01*
X121779429Y-121509878D01*
X122007097Y-121415575D01*
X122248786Y-121367500D01*
X122495214Y-121367500D01*
X122736903Y-121415575D01*
X122736903Y-121415575D01*
G37*
G36*
X120123000Y-123869500D02*
G01*
X117621000Y-123869500D01*
X117621000Y-121367500D01*
X120123000Y-121367500D01*
X120123000Y-123869500D01*
X120123000Y-123869500D01*
G37*
G36*
X164321443Y-119120519D02*
G01*
X164387627Y-119127037D01*
X164557466Y-119178557D01*
X164713991Y-119262222D01*
X164749729Y-119291552D01*
X164851186Y-119374814D01*
X164934448Y-119476271D01*
X164963778Y-119512009D01*
X165047443Y-119668534D01*
X165098963Y-119838373D01*
X165116359Y-120015000D01*
X165098963Y-120191627D01*
X165047443Y-120361466D01*
X164963778Y-120517991D01*
X164934448Y-120553729D01*
X164851186Y-120655186D01*
X164749729Y-120738448D01*
X164713991Y-120767778D01*
X164557466Y-120851443D01*
X164387627Y-120902963D01*
X164321442Y-120909482D01*
X164255260Y-120916000D01*
X164166740Y-120916000D01*
X164100558Y-120909482D01*
X164034373Y-120902963D01*
X163864534Y-120851443D01*
X163708009Y-120767778D01*
X163672271Y-120738448D01*
X163570814Y-120655186D01*
X163487552Y-120553729D01*
X163458222Y-120517991D01*
X163374557Y-120361466D01*
X163323037Y-120191627D01*
X163305641Y-120015000D01*
X163323037Y-119838373D01*
X163374557Y-119668534D01*
X163458222Y-119512009D01*
X163487552Y-119476271D01*
X163570814Y-119374814D01*
X163672271Y-119291552D01*
X163708009Y-119262222D01*
X163864534Y-119178557D01*
X164034373Y-119127037D01*
X164100557Y-119120519D01*
X164166740Y-119114000D01*
X164255260Y-119114000D01*
X164321443Y-119120519D01*
X164321443Y-119120519D01*
G37*
G36*
X167652000Y-120916000D02*
G01*
X165850000Y-120916000D01*
X165850000Y-119114000D01*
X167652000Y-119114000D01*
X167652000Y-120916000D01*
X167652000Y-120916000D01*
G37*
G36*
X145673000Y-120568500D02*
G01*
X144771000Y-120568500D01*
X144771000Y-119566500D01*
X145673000Y-119566500D01*
X145673000Y-120568500D01*
X145673000Y-120568500D01*
G37*
G36*
X143773000Y-120568500D02*
G01*
X142871000Y-120568500D01*
X142871000Y-119566500D01*
X143773000Y-119566500D01*
X143773000Y-120568500D01*
X143773000Y-120568500D01*
G37*
G36*
X132216000Y-120566000D02*
G01*
X131314000Y-120566000D01*
X131314000Y-119564000D01*
X132216000Y-119564000D01*
X132216000Y-120566000D01*
X132216000Y-120566000D01*
G37*
G36*
X134116000Y-120566000D02*
G01*
X133214000Y-120566000D01*
X133214000Y-119564000D01*
X134116000Y-119564000D01*
X134116000Y-120566000D01*
X134116000Y-120566000D01*
G37*
G36*
X120659000Y-120563500D02*
G01*
X119757000Y-120563500D01*
X119757000Y-119561500D01*
X120659000Y-119561500D01*
X120659000Y-120563500D01*
X120659000Y-120563500D01*
G37*
G36*
X122559000Y-120563500D02*
G01*
X121657000Y-120563500D01*
X121657000Y-119561500D01*
X122559000Y-119561500D01*
X122559000Y-120563500D01*
X122559000Y-120563500D01*
G37*
G36*
X161775000Y-119707000D02*
G01*
X160673000Y-119707000D01*
X160673000Y-118205000D01*
X161775000Y-118205000D01*
X161775000Y-119707000D01*
X161775000Y-119707000D01*
G37*
G36*
X159875000Y-119707000D02*
G01*
X158773000Y-119707000D01*
X158773000Y-118205000D01*
X159875000Y-118205000D01*
X159875000Y-119707000D01*
X159875000Y-119707000D01*
G37*
G36*
X144723000Y-118568500D02*
G01*
X143821000Y-118568500D01*
X143821000Y-117566500D01*
X144723000Y-117566500D01*
X144723000Y-118568500D01*
X144723000Y-118568500D01*
G37*
G36*
X133166000Y-118566000D02*
G01*
X132264000Y-118566000D01*
X132264000Y-117564000D01*
X133166000Y-117564000D01*
X133166000Y-118566000D01*
X133166000Y-118566000D01*
G37*
G36*
X121609000Y-118563500D02*
G01*
X120707000Y-118563500D01*
X120707000Y-117561500D01*
X121609000Y-117561500D01*
X121609000Y-118563500D01*
X121609000Y-118563500D01*
G37*
G36*
X148291000Y-118477500D02*
G01*
X147389000Y-118477500D01*
X147389000Y-117625500D01*
X148291000Y-117625500D01*
X148291000Y-118477500D01*
X148291000Y-118477500D01*
G37*
G36*
X149791000Y-118477500D02*
G01*
X148889000Y-118477500D01*
X148889000Y-117625500D01*
X149791000Y-117625500D01*
X149791000Y-118477500D01*
X149791000Y-118477500D01*
G37*
G36*
X136734000Y-118475000D02*
G01*
X135832000Y-118475000D01*
X135832000Y-117623000D01*
X136734000Y-117623000D01*
X136734000Y-118475000D01*
X136734000Y-118475000D01*
G37*
G36*
X138234000Y-118475000D02*
G01*
X137332000Y-118475000D01*
X137332000Y-117623000D01*
X138234000Y-117623000D01*
X138234000Y-118475000D01*
X138234000Y-118475000D01*
G37*
G36*
X126677000Y-118472500D02*
G01*
X125775000Y-118472500D01*
X125775000Y-117620500D01*
X126677000Y-117620500D01*
X126677000Y-118472500D01*
X126677000Y-118472500D01*
G37*
G36*
X125177000Y-118472500D02*
G01*
X124275000Y-118472500D01*
X124275000Y-117620500D01*
X125177000Y-117620500D01*
X125177000Y-118472500D01*
X125177000Y-118472500D01*
G37*
G36*
X166861443Y-116580519D02*
G01*
X166927627Y-116587037D01*
X167097466Y-116638557D01*
X167253991Y-116722222D01*
X167289729Y-116751552D01*
X167391186Y-116834814D01*
X167466019Y-116926000D01*
X167503778Y-116972009D01*
X167587443Y-117128534D01*
X167638963Y-117298373D01*
X167656359Y-117475000D01*
X167638963Y-117651627D01*
X167587443Y-117821466D01*
X167503778Y-117977991D01*
X167474448Y-118013729D01*
X167391186Y-118115186D01*
X167289729Y-118198448D01*
X167253991Y-118227778D01*
X167097466Y-118311443D01*
X166927627Y-118362963D01*
X166861442Y-118369482D01*
X166795260Y-118376000D01*
X166706740Y-118376000D01*
X166640558Y-118369482D01*
X166574373Y-118362963D01*
X166404534Y-118311443D01*
X166248009Y-118227778D01*
X166212271Y-118198448D01*
X166110814Y-118115186D01*
X166027552Y-118013729D01*
X165998222Y-117977991D01*
X165914557Y-117821466D01*
X165863037Y-117651627D01*
X165845641Y-117475000D01*
X165863037Y-117298373D01*
X165914557Y-117128534D01*
X165998222Y-116972009D01*
X166035981Y-116926000D01*
X166110814Y-116834814D01*
X166212271Y-116751552D01*
X166248009Y-116722222D01*
X166404534Y-116638557D01*
X166574373Y-116587037D01*
X166640557Y-116580519D01*
X166706740Y-116574000D01*
X166795260Y-116574000D01*
X166861443Y-116580519D01*
X166861443Y-116580519D01*
G37*
G36*
X164321443Y-116580519D02*
G01*
X164387627Y-116587037D01*
X164557466Y-116638557D01*
X164713991Y-116722222D01*
X164749729Y-116751552D01*
X164851186Y-116834814D01*
X164926019Y-116926000D01*
X164963778Y-116972009D01*
X165047443Y-117128534D01*
X165098963Y-117298373D01*
X165116359Y-117475000D01*
X165098963Y-117651627D01*
X165047443Y-117821466D01*
X164963778Y-117977991D01*
X164934448Y-118013729D01*
X164851186Y-118115186D01*
X164749729Y-118198448D01*
X164713991Y-118227778D01*
X164557466Y-118311443D01*
X164387627Y-118362963D01*
X164321442Y-118369482D01*
X164255260Y-118376000D01*
X164166740Y-118376000D01*
X164100558Y-118369482D01*
X164034373Y-118362963D01*
X163864534Y-118311443D01*
X163708009Y-118227778D01*
X163672271Y-118198448D01*
X163570814Y-118115186D01*
X163487552Y-118013729D01*
X163458222Y-117977991D01*
X163374557Y-117821466D01*
X163323037Y-117651627D01*
X163305641Y-117475000D01*
X163323037Y-117298373D01*
X163374557Y-117128534D01*
X163458222Y-116972009D01*
X163495981Y-116926000D01*
X163570814Y-116834814D01*
X163672271Y-116751552D01*
X163708009Y-116722222D01*
X163864534Y-116638557D01*
X164034373Y-116587037D01*
X164100557Y-116580519D01*
X164166740Y-116574000D01*
X164255260Y-116574000D01*
X164321443Y-116580519D01*
X164321443Y-116580519D01*
G37*
G36*
X161775000Y-117507000D02*
G01*
X160673000Y-117507000D01*
X160673000Y-116005000D01*
X161775000Y-116005000D01*
X161775000Y-117507000D01*
X161775000Y-117507000D01*
G37*
G36*
X160155000Y-117507000D02*
G01*
X158853000Y-117507000D01*
X158853000Y-116005000D01*
X160155000Y-116005000D01*
X160155000Y-117507000D01*
X160155000Y-117507000D01*
G37*
G36*
X113470000Y-116960000D02*
G01*
X112868000Y-116960000D01*
X112868000Y-115958000D01*
X113470000Y-115958000D01*
X113470000Y-116960000D01*
X113470000Y-116960000D01*
G37*
G36*
X114970000Y-116960000D02*
G01*
X114368000Y-116960000D01*
X114368000Y-115958000D01*
X114970000Y-115958000D01*
X114970000Y-116960000D01*
X114970000Y-116960000D01*
G37*
G36*
X149641000Y-116928500D02*
G01*
X148939000Y-116928500D01*
X148939000Y-116126500D01*
X149641000Y-116126500D01*
X149641000Y-116928500D01*
X149641000Y-116928500D01*
G37*
G36*
X148241000Y-116928500D02*
G01*
X147539000Y-116928500D01*
X147539000Y-116126500D01*
X148241000Y-116126500D01*
X148241000Y-116928500D01*
X148241000Y-116928500D01*
G37*
G36*
X138084000Y-116926000D02*
G01*
X137382000Y-116926000D01*
X137382000Y-116124000D01*
X138084000Y-116124000D01*
X138084000Y-116926000D01*
X138084000Y-116926000D01*
G37*
G36*
X136684000Y-116926000D02*
G01*
X135982000Y-116926000D01*
X135982000Y-116124000D01*
X136684000Y-116124000D01*
X136684000Y-116926000D01*
X136684000Y-116926000D01*
G37*
G36*
X126527000Y-116923500D02*
G01*
X125825000Y-116923500D01*
X125825000Y-116121500D01*
X126527000Y-116121500D01*
X126527000Y-116923500D01*
X126527000Y-116923500D01*
G37*
G36*
X125127000Y-116923500D02*
G01*
X124425000Y-116923500D01*
X124425000Y-116121500D01*
X125127000Y-116121500D01*
X125127000Y-116923500D01*
X125127000Y-116923500D01*
G37*
G36*
X166861442Y-114040518D02*
G01*
X166927627Y-114047037D01*
X167097466Y-114098557D01*
X167253991Y-114182222D01*
X167289729Y-114211552D01*
X167391186Y-114294814D01*
X167474448Y-114396271D01*
X167503778Y-114432009D01*
X167587443Y-114588534D01*
X167638963Y-114758373D01*
X167656359Y-114935000D01*
X167638963Y-115111627D01*
X167587443Y-115281466D01*
X167503778Y-115437991D01*
X167474448Y-115473729D01*
X167391186Y-115575186D01*
X167289729Y-115658448D01*
X167253991Y-115687778D01*
X167097466Y-115771443D01*
X166927627Y-115822963D01*
X166861443Y-115829481D01*
X166795260Y-115836000D01*
X166706740Y-115836000D01*
X166640557Y-115829481D01*
X166574373Y-115822963D01*
X166404534Y-115771443D01*
X166248009Y-115687778D01*
X166212271Y-115658448D01*
X166110814Y-115575186D01*
X166027552Y-115473729D01*
X165998222Y-115437991D01*
X165914557Y-115281466D01*
X165863037Y-115111627D01*
X165845641Y-114935000D01*
X165863037Y-114758373D01*
X165914557Y-114588534D01*
X165998222Y-114432009D01*
X166027552Y-114396271D01*
X166110814Y-114294814D01*
X166212271Y-114211552D01*
X166248009Y-114182222D01*
X166404534Y-114098557D01*
X166574373Y-114047037D01*
X166640558Y-114040518D01*
X166706740Y-114034000D01*
X166795260Y-114034000D01*
X166861442Y-114040518D01*
X166861442Y-114040518D01*
G37*
G36*
X164321442Y-114040518D02*
G01*
X164387627Y-114047037D01*
X164557466Y-114098557D01*
X164713991Y-114182222D01*
X164749729Y-114211552D01*
X164851186Y-114294814D01*
X164934448Y-114396271D01*
X164963778Y-114432009D01*
X165047443Y-114588534D01*
X165098963Y-114758373D01*
X165116359Y-114935000D01*
X165098963Y-115111627D01*
X165047443Y-115281466D01*
X164963778Y-115437991D01*
X164934448Y-115473729D01*
X164851186Y-115575186D01*
X164749729Y-115658448D01*
X164713991Y-115687778D01*
X164557466Y-115771443D01*
X164387627Y-115822963D01*
X164321443Y-115829481D01*
X164255260Y-115836000D01*
X164166740Y-115836000D01*
X164100557Y-115829481D01*
X164034373Y-115822963D01*
X163864534Y-115771443D01*
X163708009Y-115687778D01*
X163672271Y-115658448D01*
X163570814Y-115575186D01*
X163487552Y-115473729D01*
X163458222Y-115437991D01*
X163374557Y-115281466D01*
X163323037Y-115111627D01*
X163305641Y-114935000D01*
X163323037Y-114758373D01*
X163374557Y-114588534D01*
X163458222Y-114432009D01*
X163487552Y-114396271D01*
X163570814Y-114294814D01*
X163672271Y-114211552D01*
X163708009Y-114182222D01*
X163864534Y-114098557D01*
X164034373Y-114047037D01*
X164100558Y-114040518D01*
X164166740Y-114034000D01*
X164255260Y-114034000D01*
X164321442Y-114040518D01*
X164321442Y-114040518D01*
G37*
G36*
X164321443Y-111500519D02*
G01*
X164387627Y-111507037D01*
X164557466Y-111558557D01*
X164713991Y-111642222D01*
X164749729Y-111671552D01*
X164851186Y-111754814D01*
X164934448Y-111856271D01*
X164963778Y-111892009D01*
X165047443Y-112048534D01*
X165098963Y-112218373D01*
X165116359Y-112395000D01*
X165098963Y-112571627D01*
X165047443Y-112741466D01*
X164963778Y-112897991D01*
X164934448Y-112933729D01*
X164851186Y-113035186D01*
X164749729Y-113118448D01*
X164713991Y-113147778D01*
X164557466Y-113231443D01*
X164387627Y-113282963D01*
X164321443Y-113289481D01*
X164255260Y-113296000D01*
X164166740Y-113296000D01*
X164100557Y-113289481D01*
X164034373Y-113282963D01*
X163864534Y-113231443D01*
X163708009Y-113147778D01*
X163672271Y-113118448D01*
X163570814Y-113035186D01*
X163487552Y-112933729D01*
X163458222Y-112897991D01*
X163374557Y-112741466D01*
X163323037Y-112571627D01*
X163305641Y-112395000D01*
X163323037Y-112218373D01*
X163374557Y-112048534D01*
X163458222Y-111892009D01*
X163487552Y-111856271D01*
X163570814Y-111754814D01*
X163672271Y-111671552D01*
X163708009Y-111642222D01*
X163864534Y-111558557D01*
X164034373Y-111507037D01*
X164100557Y-111500519D01*
X164166740Y-111494000D01*
X164255260Y-111494000D01*
X164321443Y-111500519D01*
X164321443Y-111500519D01*
G37*
G36*
X166861443Y-111500519D02*
G01*
X166927627Y-111507037D01*
X167097466Y-111558557D01*
X167253991Y-111642222D01*
X167289729Y-111671552D01*
X167391186Y-111754814D01*
X167474448Y-111856271D01*
X167503778Y-111892009D01*
X167587443Y-112048534D01*
X167638963Y-112218373D01*
X167656359Y-112395000D01*
X167638963Y-112571627D01*
X167587443Y-112741466D01*
X167503778Y-112897991D01*
X167474448Y-112933729D01*
X167391186Y-113035186D01*
X167289729Y-113118448D01*
X167253991Y-113147778D01*
X167097466Y-113231443D01*
X166927627Y-113282963D01*
X166861443Y-113289481D01*
X166795260Y-113296000D01*
X166706740Y-113296000D01*
X166640557Y-113289481D01*
X166574373Y-113282963D01*
X166404534Y-113231443D01*
X166248009Y-113147778D01*
X166212271Y-113118448D01*
X166110814Y-113035186D01*
X166027552Y-112933729D01*
X165998222Y-112897991D01*
X165914557Y-112741466D01*
X165863037Y-112571627D01*
X165845641Y-112395000D01*
X165863037Y-112218373D01*
X165914557Y-112048534D01*
X165998222Y-111892009D01*
X166027552Y-111856271D01*
X166110814Y-111754814D01*
X166212271Y-111671552D01*
X166248009Y-111642222D01*
X166404534Y-111558557D01*
X166574373Y-111507037D01*
X166640557Y-111500519D01*
X166706740Y-111494000D01*
X166795260Y-111494000D01*
X166861443Y-111500519D01*
X166861443Y-111500519D01*
G37*
G36*
X161775000Y-111833000D02*
G01*
X160673000Y-111833000D01*
X160673000Y-110331000D01*
X161775000Y-110331000D01*
X161775000Y-111833000D01*
X161775000Y-111833000D01*
G37*
G36*
X159875000Y-111833000D02*
G01*
X158773000Y-111833000D01*
X158773000Y-110331000D01*
X159875000Y-110331000D01*
X159875000Y-111833000D01*
X159875000Y-111833000D01*
G37*
G36*
X121740500Y-111183000D02*
G01*
X119938500Y-111183000D01*
X119938500Y-109381000D01*
X121740500Y-109381000D01*
X121740500Y-111183000D01*
X121740500Y-111183000D01*
G37*
G36*
X133649943Y-109387519D02*
G01*
X133716127Y-109394037D01*
X133885966Y-109445557D01*
X134042491Y-109529222D01*
X134078229Y-109558552D01*
X134179686Y-109641814D01*
X134262948Y-109743271D01*
X134292278Y-109779009D01*
X134375943Y-109935534D01*
X134427463Y-110105373D01*
X134444859Y-110282000D01*
X134427463Y-110458627D01*
X134375943Y-110628466D01*
X134292278Y-110784991D01*
X134262948Y-110820729D01*
X134179686Y-110922186D01*
X134078229Y-111005448D01*
X134042491Y-111034778D01*
X133885966Y-111118443D01*
X133716127Y-111169963D01*
X133649942Y-111176482D01*
X133583760Y-111183000D01*
X133495240Y-111183000D01*
X133429058Y-111176482D01*
X133362873Y-111169963D01*
X133193034Y-111118443D01*
X133036509Y-111034778D01*
X133000771Y-111005448D01*
X132899314Y-110922186D01*
X132816052Y-110820729D01*
X132786722Y-110784991D01*
X132703057Y-110628466D01*
X132651537Y-110458627D01*
X132634141Y-110282000D01*
X132651537Y-110105373D01*
X132703057Y-109935534D01*
X132786722Y-109779009D01*
X132816052Y-109743271D01*
X132899314Y-109641814D01*
X133000771Y-109558552D01*
X133036509Y-109529222D01*
X133193034Y-109445557D01*
X133362873Y-109394037D01*
X133429057Y-109387519D01*
X133495240Y-109381000D01*
X133583760Y-109381000D01*
X133649943Y-109387519D01*
X133649943Y-109387519D01*
G37*
G36*
X123489943Y-109387519D02*
G01*
X123556127Y-109394037D01*
X123725966Y-109445557D01*
X123882491Y-109529222D01*
X123918229Y-109558552D01*
X124019686Y-109641814D01*
X124102948Y-109743271D01*
X124132278Y-109779009D01*
X124215943Y-109935534D01*
X124267463Y-110105373D01*
X124284859Y-110282000D01*
X124267463Y-110458627D01*
X124215943Y-110628466D01*
X124132278Y-110784991D01*
X124102948Y-110820729D01*
X124019686Y-110922186D01*
X123918229Y-111005448D01*
X123882491Y-111034778D01*
X123725966Y-111118443D01*
X123556127Y-111169963D01*
X123489942Y-111176482D01*
X123423760Y-111183000D01*
X123335240Y-111183000D01*
X123269058Y-111176482D01*
X123202873Y-111169963D01*
X123033034Y-111118443D01*
X122876509Y-111034778D01*
X122840771Y-111005448D01*
X122739314Y-110922186D01*
X122656052Y-110820729D01*
X122626722Y-110784991D01*
X122543057Y-110628466D01*
X122491537Y-110458627D01*
X122474141Y-110282000D01*
X122491537Y-110105373D01*
X122543057Y-109935534D01*
X122626722Y-109779009D01*
X122656052Y-109743271D01*
X122739314Y-109641814D01*
X122840771Y-109558552D01*
X122876509Y-109529222D01*
X123033034Y-109445557D01*
X123202873Y-109394037D01*
X123269057Y-109387519D01*
X123335240Y-109381000D01*
X123423760Y-109381000D01*
X123489943Y-109387519D01*
X123489943Y-109387519D01*
G37*
G36*
X126029943Y-109387519D02*
G01*
X126096127Y-109394037D01*
X126265966Y-109445557D01*
X126422491Y-109529222D01*
X126458229Y-109558552D01*
X126559686Y-109641814D01*
X126642948Y-109743271D01*
X126672278Y-109779009D01*
X126755943Y-109935534D01*
X126807463Y-110105373D01*
X126824859Y-110282000D01*
X126807463Y-110458627D01*
X126755943Y-110628466D01*
X126672278Y-110784991D01*
X126642948Y-110820729D01*
X126559686Y-110922186D01*
X126458229Y-111005448D01*
X126422491Y-111034778D01*
X126265966Y-111118443D01*
X126096127Y-111169963D01*
X126029942Y-111176482D01*
X125963760Y-111183000D01*
X125875240Y-111183000D01*
X125809058Y-111176482D01*
X125742873Y-111169963D01*
X125573034Y-111118443D01*
X125416509Y-111034778D01*
X125380771Y-111005448D01*
X125279314Y-110922186D01*
X125196052Y-110820729D01*
X125166722Y-110784991D01*
X125083057Y-110628466D01*
X125031537Y-110458627D01*
X125014141Y-110282000D01*
X125031537Y-110105373D01*
X125083057Y-109935534D01*
X125166722Y-109779009D01*
X125196052Y-109743271D01*
X125279314Y-109641814D01*
X125380771Y-109558552D01*
X125416509Y-109529222D01*
X125573034Y-109445557D01*
X125742873Y-109394037D01*
X125809057Y-109387519D01*
X125875240Y-109381000D01*
X125963760Y-109381000D01*
X126029943Y-109387519D01*
X126029943Y-109387519D01*
G37*
G36*
X131109943Y-109387519D02*
G01*
X131176127Y-109394037D01*
X131345966Y-109445557D01*
X131502491Y-109529222D01*
X131538229Y-109558552D01*
X131639686Y-109641814D01*
X131722948Y-109743271D01*
X131752278Y-109779009D01*
X131835943Y-109935534D01*
X131887463Y-110105373D01*
X131904859Y-110282000D01*
X131887463Y-110458627D01*
X131835943Y-110628466D01*
X131752278Y-110784991D01*
X131722948Y-110820729D01*
X131639686Y-110922186D01*
X131538229Y-111005448D01*
X131502491Y-111034778D01*
X131345966Y-111118443D01*
X131176127Y-111169963D01*
X131109942Y-111176482D01*
X131043760Y-111183000D01*
X130955240Y-111183000D01*
X130889058Y-111176482D01*
X130822873Y-111169963D01*
X130653034Y-111118443D01*
X130496509Y-111034778D01*
X130460771Y-111005448D01*
X130359314Y-110922186D01*
X130276052Y-110820729D01*
X130246722Y-110784991D01*
X130163057Y-110628466D01*
X130111537Y-110458627D01*
X130094141Y-110282000D01*
X130111537Y-110105373D01*
X130163057Y-109935534D01*
X130246722Y-109779009D01*
X130276052Y-109743271D01*
X130359314Y-109641814D01*
X130460771Y-109558552D01*
X130496509Y-109529222D01*
X130653034Y-109445557D01*
X130822873Y-109394037D01*
X130889057Y-109387519D01*
X130955240Y-109381000D01*
X131043760Y-109381000D01*
X131109943Y-109387519D01*
X131109943Y-109387519D01*
G37*
G36*
X128569943Y-109387519D02*
G01*
X128636127Y-109394037D01*
X128805966Y-109445557D01*
X128962491Y-109529222D01*
X128998229Y-109558552D01*
X129099686Y-109641814D01*
X129182948Y-109743271D01*
X129212278Y-109779009D01*
X129295943Y-109935534D01*
X129347463Y-110105373D01*
X129364859Y-110282000D01*
X129347463Y-110458627D01*
X129295943Y-110628466D01*
X129212278Y-110784991D01*
X129182948Y-110820729D01*
X129099686Y-110922186D01*
X128998229Y-111005448D01*
X128962491Y-111034778D01*
X128805966Y-111118443D01*
X128636127Y-111169963D01*
X128569942Y-111176482D01*
X128503760Y-111183000D01*
X128415240Y-111183000D01*
X128349058Y-111176482D01*
X128282873Y-111169963D01*
X128113034Y-111118443D01*
X127956509Y-111034778D01*
X127920771Y-111005448D01*
X127819314Y-110922186D01*
X127736052Y-110820729D01*
X127706722Y-110784991D01*
X127623057Y-110628466D01*
X127571537Y-110458627D01*
X127554141Y-110282000D01*
X127571537Y-110105373D01*
X127623057Y-109935534D01*
X127706722Y-109779009D01*
X127736052Y-109743271D01*
X127819314Y-109641814D01*
X127920771Y-109558552D01*
X127956509Y-109529222D01*
X128113034Y-109445557D01*
X128282873Y-109394037D01*
X128349057Y-109387519D01*
X128415240Y-109381000D01*
X128503760Y-109381000D01*
X128569943Y-109387519D01*
X128569943Y-109387519D01*
G37*
G36*
X164321443Y-108960519D02*
G01*
X164387627Y-108967037D01*
X164557466Y-109018557D01*
X164713991Y-109102222D01*
X164749729Y-109131552D01*
X164851186Y-109214814D01*
X164934448Y-109316271D01*
X164963778Y-109352009D01*
X165047443Y-109508534D01*
X165098963Y-109678373D01*
X165116359Y-109855000D01*
X165098963Y-110031627D01*
X165047443Y-110201466D01*
X164963778Y-110357991D01*
X164934448Y-110393729D01*
X164851186Y-110495186D01*
X164749729Y-110578448D01*
X164713991Y-110607778D01*
X164557466Y-110691443D01*
X164387627Y-110742963D01*
X164321442Y-110749482D01*
X164255260Y-110756000D01*
X164166740Y-110756000D01*
X164100558Y-110749482D01*
X164034373Y-110742963D01*
X163864534Y-110691443D01*
X163708009Y-110607778D01*
X163672271Y-110578448D01*
X163570814Y-110495186D01*
X163487552Y-110393729D01*
X163458222Y-110357991D01*
X163374557Y-110201466D01*
X163323037Y-110031627D01*
X163305641Y-109855000D01*
X163323037Y-109678373D01*
X163374557Y-109508534D01*
X163458222Y-109352009D01*
X163487552Y-109316271D01*
X163570814Y-109214814D01*
X163672271Y-109131552D01*
X163708009Y-109102222D01*
X163864534Y-109018557D01*
X164034373Y-108967037D01*
X164100557Y-108960519D01*
X164166740Y-108954000D01*
X164255260Y-108954000D01*
X164321443Y-108960519D01*
X164321443Y-108960519D01*
G37*
G36*
X166861443Y-108960519D02*
G01*
X166927627Y-108967037D01*
X167097466Y-109018557D01*
X167253991Y-109102222D01*
X167289729Y-109131552D01*
X167391186Y-109214814D01*
X167474448Y-109316271D01*
X167503778Y-109352009D01*
X167587443Y-109508534D01*
X167638963Y-109678373D01*
X167656359Y-109855000D01*
X167638963Y-110031627D01*
X167587443Y-110201466D01*
X167503778Y-110357991D01*
X167474448Y-110393729D01*
X167391186Y-110495186D01*
X167289729Y-110578448D01*
X167253991Y-110607778D01*
X167097466Y-110691443D01*
X166927627Y-110742963D01*
X166861442Y-110749482D01*
X166795260Y-110756000D01*
X166706740Y-110756000D01*
X166640558Y-110749482D01*
X166574373Y-110742963D01*
X166404534Y-110691443D01*
X166248009Y-110607778D01*
X166212271Y-110578448D01*
X166110814Y-110495186D01*
X166027552Y-110393729D01*
X165998222Y-110357991D01*
X165914557Y-110201466D01*
X165863037Y-110031627D01*
X165845641Y-109855000D01*
X165863037Y-109678373D01*
X165914557Y-109508534D01*
X165998222Y-109352009D01*
X166027552Y-109316271D01*
X166110814Y-109214814D01*
X166212271Y-109131552D01*
X166248009Y-109102222D01*
X166404534Y-109018557D01*
X166574373Y-108967037D01*
X166640557Y-108960519D01*
X166706740Y-108954000D01*
X166795260Y-108954000D01*
X166861443Y-108960519D01*
X166861443Y-108960519D01*
G37*
G36*
X161775000Y-109633000D02*
G01*
X160673000Y-109633000D01*
X160673000Y-108131000D01*
X161775000Y-108131000D01*
X161775000Y-109633000D01*
X161775000Y-109633000D01*
G37*
G36*
X160155000Y-109633000D02*
G01*
X158853000Y-109633000D01*
X158853000Y-108131000D01*
X160155000Y-108131000D01*
X160155000Y-109633000D01*
X160155000Y-109633000D01*
G37*
G36*
X125851500Y-108693500D02*
G01*
X124949500Y-108693500D01*
X124949500Y-107841500D01*
X125851500Y-107841500D01*
X125851500Y-108693500D01*
X125851500Y-108693500D01*
G37*
G36*
X124351500Y-108693500D02*
G01*
X123449500Y-108693500D01*
X123449500Y-107841500D01*
X124351500Y-107841500D01*
X124351500Y-108693500D01*
X124351500Y-108693500D01*
G37*
G36*
X166861443Y-106420519D02*
G01*
X166927627Y-106427037D01*
X167097466Y-106478557D01*
X167253991Y-106562222D01*
X167289729Y-106591552D01*
X167391186Y-106674814D01*
X167474448Y-106776271D01*
X167503778Y-106812009D01*
X167587443Y-106968534D01*
X167638963Y-107138373D01*
X167656359Y-107315000D01*
X167638963Y-107491627D01*
X167587443Y-107661466D01*
X167503778Y-107817991D01*
X167474448Y-107853729D01*
X167391186Y-107955186D01*
X167289729Y-108038448D01*
X167253991Y-108067778D01*
X167097466Y-108151443D01*
X166927627Y-108202963D01*
X166861443Y-108209481D01*
X166795260Y-108216000D01*
X166706740Y-108216000D01*
X166640557Y-108209481D01*
X166574373Y-108202963D01*
X166404534Y-108151443D01*
X166248009Y-108067778D01*
X166212271Y-108038448D01*
X166110814Y-107955186D01*
X166027552Y-107853729D01*
X165998222Y-107817991D01*
X165914557Y-107661466D01*
X165863037Y-107491627D01*
X165845641Y-107315000D01*
X165863037Y-107138373D01*
X165914557Y-106968534D01*
X165998222Y-106812009D01*
X166027552Y-106776271D01*
X166110814Y-106674814D01*
X166212271Y-106591552D01*
X166248009Y-106562222D01*
X166404534Y-106478557D01*
X166574373Y-106427037D01*
X166640557Y-106420519D01*
X166706740Y-106414000D01*
X166795260Y-106414000D01*
X166861443Y-106420519D01*
X166861443Y-106420519D01*
G37*
G36*
X164321443Y-106420519D02*
G01*
X164387627Y-106427037D01*
X164557466Y-106478557D01*
X164713991Y-106562222D01*
X164749729Y-106591552D01*
X164851186Y-106674814D01*
X164934448Y-106776271D01*
X164963778Y-106812009D01*
X165047443Y-106968534D01*
X165098963Y-107138373D01*
X165116359Y-107315000D01*
X165098963Y-107491627D01*
X165047443Y-107661466D01*
X164963778Y-107817991D01*
X164934448Y-107853729D01*
X164851186Y-107955186D01*
X164749729Y-108038448D01*
X164713991Y-108067778D01*
X164557466Y-108151443D01*
X164387627Y-108202963D01*
X164321443Y-108209481D01*
X164255260Y-108216000D01*
X164166740Y-108216000D01*
X164100557Y-108209481D01*
X164034373Y-108202963D01*
X163864534Y-108151443D01*
X163708009Y-108067778D01*
X163672271Y-108038448D01*
X163570814Y-107955186D01*
X163487552Y-107853729D01*
X163458222Y-107817991D01*
X163374557Y-107661466D01*
X163323037Y-107491627D01*
X163305641Y-107315000D01*
X163323037Y-107138373D01*
X163374557Y-106968534D01*
X163458222Y-106812009D01*
X163487552Y-106776271D01*
X163570814Y-106674814D01*
X163672271Y-106591552D01*
X163708009Y-106562222D01*
X163864534Y-106478557D01*
X164034373Y-106427037D01*
X164100557Y-106420519D01*
X164166740Y-106414000D01*
X164255260Y-106414000D01*
X164321443Y-106420519D01*
X164321443Y-106420519D01*
G37*
G36*
X125267000Y-107149000D02*
G01*
X124415000Y-107149000D01*
X124415000Y-106247000D01*
X125267000Y-106247000D01*
X125267000Y-107149000D01*
X125267000Y-107149000D01*
G37*
G36*
X126766000Y-106999000D02*
G01*
X125964000Y-106999000D01*
X125964000Y-106297000D01*
X126766000Y-106297000D01*
X126766000Y-106999000D01*
X126766000Y-106999000D01*
G37*
G36*
X164321443Y-103880519D02*
G01*
X164387627Y-103887037D01*
X164557466Y-103938557D01*
X164713991Y-104022222D01*
X164749729Y-104051552D01*
X164851186Y-104134814D01*
X164922911Y-104222213D01*
X164963778Y-104272009D01*
X165047443Y-104428534D01*
X165098963Y-104598373D01*
X165116359Y-104775000D01*
X165098963Y-104951627D01*
X165047443Y-105121466D01*
X164963778Y-105277991D01*
X164944136Y-105301925D01*
X164851186Y-105415186D01*
X164749729Y-105498448D01*
X164713991Y-105527778D01*
X164557466Y-105611443D01*
X164387627Y-105662963D01*
X164321443Y-105669481D01*
X164255260Y-105676000D01*
X164166740Y-105676000D01*
X164100557Y-105669481D01*
X164034373Y-105662963D01*
X163864534Y-105611443D01*
X163708009Y-105527778D01*
X163672271Y-105498448D01*
X163570814Y-105415186D01*
X163477864Y-105301925D01*
X163458222Y-105277991D01*
X163374557Y-105121466D01*
X163323037Y-104951627D01*
X163305641Y-104775000D01*
X163323037Y-104598373D01*
X163374557Y-104428534D01*
X163458222Y-104272009D01*
X163499089Y-104222213D01*
X163570814Y-104134814D01*
X163672271Y-104051552D01*
X163708009Y-104022222D01*
X163864534Y-103938557D01*
X164034373Y-103887037D01*
X164100557Y-103880519D01*
X164166740Y-103874000D01*
X164255260Y-103874000D01*
X164321443Y-103880519D01*
X164321443Y-103880519D01*
G37*
G36*
X166861443Y-103880519D02*
G01*
X166927627Y-103887037D01*
X167097466Y-103938557D01*
X167253991Y-104022222D01*
X167289729Y-104051552D01*
X167391186Y-104134814D01*
X167462911Y-104222213D01*
X167503778Y-104272009D01*
X167587443Y-104428534D01*
X167638963Y-104598373D01*
X167656359Y-104775000D01*
X167638963Y-104951627D01*
X167587443Y-105121466D01*
X167503778Y-105277991D01*
X167484136Y-105301925D01*
X167391186Y-105415186D01*
X167289729Y-105498448D01*
X167253991Y-105527778D01*
X167097466Y-105611443D01*
X166927627Y-105662963D01*
X166861443Y-105669481D01*
X166795260Y-105676000D01*
X166706740Y-105676000D01*
X166640557Y-105669481D01*
X166574373Y-105662963D01*
X166404534Y-105611443D01*
X166248009Y-105527778D01*
X166212271Y-105498448D01*
X166110814Y-105415186D01*
X166017864Y-105301925D01*
X165998222Y-105277991D01*
X165914557Y-105121466D01*
X165863037Y-104951627D01*
X165845641Y-104775000D01*
X165863037Y-104598373D01*
X165914557Y-104428534D01*
X165998222Y-104272009D01*
X166039089Y-104222213D01*
X166110814Y-104134814D01*
X166212271Y-104051552D01*
X166248009Y-104022222D01*
X166404534Y-103938557D01*
X166574373Y-103887037D01*
X166640557Y-103880519D01*
X166706740Y-103874000D01*
X166795260Y-103874000D01*
X166861443Y-103880519D01*
X166861443Y-103880519D01*
G37*
G36*
X125267000Y-105649000D02*
G01*
X124415000Y-105649000D01*
X124415000Y-104747000D01*
X125267000Y-104747000D01*
X125267000Y-105649000D01*
X125267000Y-105649000D01*
G37*
G36*
X126766000Y-105599000D02*
G01*
X125964000Y-105599000D01*
X125964000Y-104897000D01*
X126766000Y-104897000D01*
X126766000Y-105599000D01*
X126766000Y-105599000D01*
G37*
G36*
X118157403Y-102896075D02*
G01*
X118378797Y-102987779D01*
X118385071Y-102990378D01*
X118589966Y-103127285D01*
X118764215Y-103301534D01*
X118901122Y-103506429D01*
X118995425Y-103734097D01*
X119043500Y-103975787D01*
X119043500Y-104222213D01*
X118995425Y-104463903D01*
X118901122Y-104691571D01*
X118764215Y-104896466D01*
X118589966Y-105070715D01*
X118385071Y-105207622D01*
X118385070Y-105207623D01*
X118385069Y-105207623D01*
X118157403Y-105301925D01*
X117915714Y-105350000D01*
X117669286Y-105350000D01*
X117427597Y-105301925D01*
X117199931Y-105207623D01*
X117199930Y-105207623D01*
X117199929Y-105207622D01*
X116995034Y-105070715D01*
X116820785Y-104896466D01*
X116683878Y-104691571D01*
X116589575Y-104463903D01*
X116541500Y-104222213D01*
X116541500Y-103975787D01*
X116589575Y-103734097D01*
X116683878Y-103506429D01*
X116820785Y-103301534D01*
X116995034Y-103127285D01*
X117199929Y-102990378D01*
X117206204Y-102987779D01*
X117427597Y-102896075D01*
X117669286Y-102848000D01*
X117915714Y-102848000D01*
X118157403Y-102896075D01*
X118157403Y-102896075D01*
G37*
G36*
X161775000Y-103959000D02*
G01*
X160673000Y-103959000D01*
X160673000Y-102457000D01*
X161775000Y-102457000D01*
X161775000Y-103959000D01*
X161775000Y-103959000D01*
G37*
G36*
X159875000Y-103959000D02*
G01*
X158773000Y-103959000D01*
X158773000Y-102457000D01*
X159875000Y-102457000D01*
X159875000Y-103959000D01*
X159875000Y-103959000D01*
G37*
G36*
X166861442Y-101340518D02*
G01*
X166927627Y-101347037D01*
X167097466Y-101398557D01*
X167253991Y-101482222D01*
X167289729Y-101511552D01*
X167391186Y-101594814D01*
X167474448Y-101696271D01*
X167503778Y-101732009D01*
X167587443Y-101888534D01*
X167638963Y-102058373D01*
X167656359Y-102235000D01*
X167638963Y-102411627D01*
X167587443Y-102581466D01*
X167503778Y-102737991D01*
X167474448Y-102773729D01*
X167391186Y-102875186D01*
X167289729Y-102958448D01*
X167253991Y-102987778D01*
X167097466Y-103071443D01*
X166927627Y-103122963D01*
X166883754Y-103127284D01*
X166795260Y-103136000D01*
X166706740Y-103136000D01*
X166618246Y-103127284D01*
X166574373Y-103122963D01*
X166404534Y-103071443D01*
X166248009Y-102987778D01*
X166212271Y-102958448D01*
X166110814Y-102875186D01*
X166027552Y-102773729D01*
X165998222Y-102737991D01*
X165914557Y-102581466D01*
X165863037Y-102411627D01*
X165845641Y-102235000D01*
X165863037Y-102058373D01*
X165914557Y-101888534D01*
X165998222Y-101732009D01*
X166027552Y-101696271D01*
X166110814Y-101594814D01*
X166212271Y-101511552D01*
X166248009Y-101482222D01*
X166404534Y-101398557D01*
X166574373Y-101347037D01*
X166640558Y-101340518D01*
X166706740Y-101334000D01*
X166795260Y-101334000D01*
X166861442Y-101340518D01*
X166861442Y-101340518D01*
G37*
G36*
X164321442Y-101340518D02*
G01*
X164387627Y-101347037D01*
X164557466Y-101398557D01*
X164713991Y-101482222D01*
X164749729Y-101511552D01*
X164851186Y-101594814D01*
X164934448Y-101696271D01*
X164963778Y-101732009D01*
X165047443Y-101888534D01*
X165098963Y-102058373D01*
X165116359Y-102235000D01*
X165098963Y-102411627D01*
X165047443Y-102581466D01*
X164963778Y-102737991D01*
X164934448Y-102773729D01*
X164851186Y-102875186D01*
X164749729Y-102958448D01*
X164713991Y-102987778D01*
X164557466Y-103071443D01*
X164387627Y-103122963D01*
X164343754Y-103127284D01*
X164255260Y-103136000D01*
X164166740Y-103136000D01*
X164078246Y-103127284D01*
X164034373Y-103122963D01*
X163864534Y-103071443D01*
X163708009Y-102987778D01*
X163672271Y-102958448D01*
X163570814Y-102875186D01*
X163487552Y-102773729D01*
X163458222Y-102737991D01*
X163374557Y-102581466D01*
X163323037Y-102411627D01*
X163305641Y-102235000D01*
X163323037Y-102058373D01*
X163374557Y-101888534D01*
X163458222Y-101732009D01*
X163487552Y-101696271D01*
X163570814Y-101594814D01*
X163672271Y-101511552D01*
X163708009Y-101482222D01*
X163864534Y-101398557D01*
X164034373Y-101347037D01*
X164100558Y-101340518D01*
X164166740Y-101334000D01*
X164255260Y-101334000D01*
X164321442Y-101340518D01*
X164321442Y-101340518D01*
G37*
G36*
X118157403Y-99396075D02*
G01*
X118385071Y-99490378D01*
X118589966Y-99627285D01*
X118764215Y-99801534D01*
X118901122Y-100006429D01*
X118995425Y-100234097D01*
X119043500Y-100475787D01*
X119043500Y-100722213D01*
X118995425Y-100963903D01*
X118901122Y-101191571D01*
X118764215Y-101396466D01*
X118589966Y-101570715D01*
X118385071Y-101707622D01*
X118385070Y-101707623D01*
X118385069Y-101707623D01*
X118157403Y-101801925D01*
X117915714Y-101850000D01*
X117669286Y-101850000D01*
X117427597Y-101801925D01*
X117199931Y-101707623D01*
X117199930Y-101707623D01*
X117199929Y-101707622D01*
X116995034Y-101570715D01*
X116820785Y-101396466D01*
X116683878Y-101191571D01*
X116589575Y-100963903D01*
X116541500Y-100722213D01*
X116541500Y-100475787D01*
X116589575Y-100234097D01*
X116683878Y-100006429D01*
X116820785Y-99801534D01*
X116995034Y-99627285D01*
X117199929Y-99490378D01*
X117427597Y-99396075D01*
X117669286Y-99348000D01*
X117915714Y-99348000D01*
X118157403Y-99396075D01*
X118157403Y-99396075D01*
G37*
G36*
X161775000Y-101759000D02*
G01*
X160673000Y-101759000D01*
X160673000Y-100257000D01*
X161775000Y-100257000D01*
X161775000Y-101759000D01*
X161775000Y-101759000D01*
G37*
G36*
X160155000Y-101759000D02*
G01*
X158853000Y-101759000D01*
X158853000Y-100257000D01*
X160155000Y-100257000D01*
X160155000Y-101759000D01*
X160155000Y-101759000D01*
G37*
G36*
X123563500Y-100614000D02*
G01*
X120911500Y-100614000D01*
X120911500Y-99452000D01*
X123563500Y-99452000D01*
X123563500Y-100614000D01*
X123563500Y-100614000D01*
G37*
G36*
X164321443Y-98800519D02*
G01*
X164387627Y-98807037D01*
X164557466Y-98858557D01*
X164713991Y-98942222D01*
X164749729Y-98971552D01*
X164851186Y-99054814D01*
X164934448Y-99156271D01*
X164963778Y-99192009D01*
X165047443Y-99348534D01*
X165098963Y-99518373D01*
X165116359Y-99695000D01*
X165098963Y-99871627D01*
X165047443Y-100041466D01*
X164963778Y-100197991D01*
X164934448Y-100233729D01*
X164851186Y-100335186D01*
X164749729Y-100418448D01*
X164713991Y-100447778D01*
X164557466Y-100531443D01*
X164387627Y-100582963D01*
X164321443Y-100589481D01*
X164255260Y-100596000D01*
X164166740Y-100596000D01*
X164100557Y-100589481D01*
X164034373Y-100582963D01*
X163864534Y-100531443D01*
X163708009Y-100447778D01*
X163672271Y-100418448D01*
X163570814Y-100335186D01*
X163487552Y-100233729D01*
X163458222Y-100197991D01*
X163374557Y-100041466D01*
X163323037Y-99871627D01*
X163305641Y-99695000D01*
X163323037Y-99518373D01*
X163374557Y-99348534D01*
X163458222Y-99192009D01*
X163487552Y-99156271D01*
X163570814Y-99054814D01*
X163672271Y-98971552D01*
X163708009Y-98942222D01*
X163864534Y-98858557D01*
X164034373Y-98807037D01*
X164100557Y-98800519D01*
X164166740Y-98794000D01*
X164255260Y-98794000D01*
X164321443Y-98800519D01*
X164321443Y-98800519D01*
G37*
G36*
X166861443Y-98800519D02*
G01*
X166927627Y-98807037D01*
X167097466Y-98858557D01*
X167253991Y-98942222D01*
X167289729Y-98971552D01*
X167391186Y-99054814D01*
X167474448Y-99156271D01*
X167503778Y-99192009D01*
X167587443Y-99348534D01*
X167638963Y-99518373D01*
X167656359Y-99695000D01*
X167638963Y-99871627D01*
X167587443Y-100041466D01*
X167503778Y-100197991D01*
X167474448Y-100233729D01*
X167391186Y-100335186D01*
X167289729Y-100418448D01*
X167253991Y-100447778D01*
X167097466Y-100531443D01*
X166927627Y-100582963D01*
X166861443Y-100589481D01*
X166795260Y-100596000D01*
X166706740Y-100596000D01*
X166640557Y-100589481D01*
X166574373Y-100582963D01*
X166404534Y-100531443D01*
X166248009Y-100447778D01*
X166212271Y-100418448D01*
X166110814Y-100335186D01*
X166027552Y-100233729D01*
X165998222Y-100197991D01*
X165914557Y-100041466D01*
X165863037Y-99871627D01*
X165845641Y-99695000D01*
X165863037Y-99518373D01*
X165914557Y-99348534D01*
X165998222Y-99192009D01*
X166027552Y-99156271D01*
X166110814Y-99054814D01*
X166212271Y-98971552D01*
X166248009Y-98942222D01*
X166404534Y-98858557D01*
X166574373Y-98807037D01*
X166640557Y-98800519D01*
X166706740Y-98794000D01*
X166795260Y-98794000D01*
X166861443Y-98800519D01*
X166861443Y-98800519D01*
G37*
G36*
X125267000Y-100149000D02*
G01*
X124415000Y-100149000D01*
X124415000Y-99247000D01*
X125267000Y-99247000D01*
X125267000Y-100149000D01*
X125267000Y-100149000D01*
G37*
G36*
X126766000Y-99999000D02*
G01*
X125964000Y-99999000D01*
X125964000Y-99297000D01*
X126766000Y-99297000D01*
X126766000Y-99999000D01*
X126766000Y-99999000D01*
G37*
G36*
X125267000Y-98649000D02*
G01*
X124415000Y-98649000D01*
X124415000Y-97747000D01*
X125267000Y-97747000D01*
X125267000Y-98649000D01*
X125267000Y-98649000D01*
G37*
G36*
X126766000Y-98599000D02*
G01*
X125964000Y-98599000D01*
X125964000Y-97897000D01*
X126766000Y-97897000D01*
X126766000Y-98599000D01*
X126766000Y-98599000D01*
G37*
G36*
X123563500Y-98414000D02*
G01*
X120911500Y-98414000D01*
X120911500Y-97252000D01*
X123563500Y-97252000D01*
X123563500Y-98414000D01*
X123563500Y-98414000D01*
G37*
G36*
X118157403Y-95896075D02*
G01*
X118385071Y-95990378D01*
X118589966Y-96127285D01*
X118764215Y-96301534D01*
X118901122Y-96506429D01*
X118995425Y-96734097D01*
X119043500Y-96975787D01*
X119043500Y-97222213D01*
X118995425Y-97463903D01*
X118901122Y-97691571D01*
X118764215Y-97896466D01*
X118589966Y-98070715D01*
X118385071Y-98207622D01*
X118385070Y-98207623D01*
X118385069Y-98207623D01*
X118157403Y-98301925D01*
X117915714Y-98350000D01*
X117669286Y-98350000D01*
X117427597Y-98301925D01*
X117199931Y-98207623D01*
X117199930Y-98207623D01*
X117199929Y-98207622D01*
X116995034Y-98070715D01*
X116820785Y-97896466D01*
X116683878Y-97691571D01*
X116589575Y-97463903D01*
X116541500Y-97222213D01*
X116541500Y-96975787D01*
X116589575Y-96734097D01*
X116683878Y-96506429D01*
X116820785Y-96301534D01*
X116995034Y-96127285D01*
X117199929Y-95990378D01*
X117427597Y-95896075D01*
X117669286Y-95848000D01*
X117915714Y-95848000D01*
X118157403Y-95896075D01*
X118157403Y-95896075D01*
G37*
G36*
X164321442Y-96260518D02*
G01*
X164387627Y-96267037D01*
X164557466Y-96318557D01*
X164713991Y-96402222D01*
X164749729Y-96431552D01*
X164851186Y-96514814D01*
X164934448Y-96616271D01*
X164963778Y-96652009D01*
X165047443Y-96808534D01*
X165098963Y-96978373D01*
X165116359Y-97155000D01*
X165098963Y-97331627D01*
X165047443Y-97501466D01*
X164963778Y-97657991D01*
X164936221Y-97691569D01*
X164851186Y-97795186D01*
X164749729Y-97878448D01*
X164713991Y-97907778D01*
X164557466Y-97991443D01*
X164387627Y-98042963D01*
X164321443Y-98049481D01*
X164255260Y-98056000D01*
X164166740Y-98056000D01*
X164100557Y-98049481D01*
X164034373Y-98042963D01*
X163864534Y-97991443D01*
X163708009Y-97907778D01*
X163672271Y-97878448D01*
X163570814Y-97795186D01*
X163485779Y-97691569D01*
X163458222Y-97657991D01*
X163374557Y-97501466D01*
X163323037Y-97331627D01*
X163305641Y-97155000D01*
X163323037Y-96978373D01*
X163374557Y-96808534D01*
X163458222Y-96652009D01*
X163487552Y-96616271D01*
X163570814Y-96514814D01*
X163672271Y-96431552D01*
X163708009Y-96402222D01*
X163864534Y-96318557D01*
X164034373Y-96267037D01*
X164100558Y-96260518D01*
X164166740Y-96254000D01*
X164255260Y-96254000D01*
X164321442Y-96260518D01*
X164321442Y-96260518D01*
G37*
G36*
X166861442Y-96260518D02*
G01*
X166927627Y-96267037D01*
X167097466Y-96318557D01*
X167253991Y-96402222D01*
X167289729Y-96431552D01*
X167391186Y-96514814D01*
X167474448Y-96616271D01*
X167503778Y-96652009D01*
X167587443Y-96808534D01*
X167638963Y-96978373D01*
X167656359Y-97155000D01*
X167638963Y-97331627D01*
X167587443Y-97501466D01*
X167503778Y-97657991D01*
X167476221Y-97691569D01*
X167391186Y-97795186D01*
X167289729Y-97878448D01*
X167253991Y-97907778D01*
X167097466Y-97991443D01*
X166927627Y-98042963D01*
X166861443Y-98049481D01*
X166795260Y-98056000D01*
X166706740Y-98056000D01*
X166640557Y-98049481D01*
X166574373Y-98042963D01*
X166404534Y-97991443D01*
X166248009Y-97907778D01*
X166212271Y-97878448D01*
X166110814Y-97795186D01*
X166025779Y-97691569D01*
X165998222Y-97657991D01*
X165914557Y-97501466D01*
X165863037Y-97331627D01*
X165845641Y-97155000D01*
X165863037Y-96978373D01*
X165914557Y-96808534D01*
X165998222Y-96652009D01*
X166027552Y-96616271D01*
X166110814Y-96514814D01*
X166212271Y-96431552D01*
X166248009Y-96402222D01*
X166404534Y-96318557D01*
X166574373Y-96267037D01*
X166640558Y-96260518D01*
X166706740Y-96254000D01*
X166795260Y-96254000D01*
X166861442Y-96260518D01*
X166861442Y-96260518D01*
G37*
G36*
X164321443Y-93720519D02*
G01*
X164387627Y-93727037D01*
X164557466Y-93778557D01*
X164713991Y-93862222D01*
X164749729Y-93891552D01*
X164851186Y-93974814D01*
X164934448Y-94076271D01*
X164963778Y-94112009D01*
X165047443Y-94268534D01*
X165098963Y-94438373D01*
X165116359Y-94615000D01*
X165098963Y-94791627D01*
X165047443Y-94961466D01*
X164963778Y-95117991D01*
X164934448Y-95153729D01*
X164851186Y-95255186D01*
X164749729Y-95338448D01*
X164713991Y-95367778D01*
X164557466Y-95451443D01*
X164387627Y-95502963D01*
X164321443Y-95509481D01*
X164255260Y-95516000D01*
X164166740Y-95516000D01*
X164100557Y-95509481D01*
X164034373Y-95502963D01*
X163864534Y-95451443D01*
X163708009Y-95367778D01*
X163672271Y-95338448D01*
X163570814Y-95255186D01*
X163487552Y-95153729D01*
X163458222Y-95117991D01*
X163374557Y-94961466D01*
X163323037Y-94791627D01*
X163305641Y-94615000D01*
X163323037Y-94438373D01*
X163374557Y-94268534D01*
X163458222Y-94112009D01*
X163487552Y-94076271D01*
X163570814Y-93974814D01*
X163672271Y-93891552D01*
X163708009Y-93862222D01*
X163864534Y-93778557D01*
X164034373Y-93727037D01*
X164100558Y-93720518D01*
X164166740Y-93714000D01*
X164255260Y-93714000D01*
X164321443Y-93720519D01*
X164321443Y-93720519D01*
G37*
G36*
X166861443Y-93720519D02*
G01*
X166927627Y-93727037D01*
X167097466Y-93778557D01*
X167253991Y-93862222D01*
X167289729Y-93891552D01*
X167391186Y-93974814D01*
X167474448Y-94076271D01*
X167503778Y-94112009D01*
X167587443Y-94268534D01*
X167638963Y-94438373D01*
X167656359Y-94615000D01*
X167638963Y-94791627D01*
X167587443Y-94961466D01*
X167503778Y-95117991D01*
X167474448Y-95153729D01*
X167391186Y-95255186D01*
X167289729Y-95338448D01*
X167253991Y-95367778D01*
X167097466Y-95451443D01*
X166927627Y-95502963D01*
X166861443Y-95509481D01*
X166795260Y-95516000D01*
X166706740Y-95516000D01*
X166640557Y-95509481D01*
X166574373Y-95502963D01*
X166404534Y-95451443D01*
X166248009Y-95367778D01*
X166212271Y-95338448D01*
X166110814Y-95255186D01*
X166027552Y-95153729D01*
X165998222Y-95117991D01*
X165914557Y-94961466D01*
X165863037Y-94791627D01*
X165845641Y-94615000D01*
X165863037Y-94438373D01*
X165914557Y-94268534D01*
X165998222Y-94112009D01*
X166027552Y-94076271D01*
X166110814Y-93974814D01*
X166212271Y-93891552D01*
X166248009Y-93862222D01*
X166404534Y-93778557D01*
X166574373Y-93727037D01*
X166640558Y-93720518D01*
X166706740Y-93714000D01*
X166795260Y-93714000D01*
X166861443Y-93720519D01*
X166861443Y-93720519D01*
G37*
G36*
X119043500Y-94850000D02*
G01*
X116541500Y-94850000D01*
X116541500Y-92348000D01*
X119043500Y-92348000D01*
X119043500Y-94850000D01*
X119043500Y-94850000D01*
G37*
G36*
X125267000Y-93149000D02*
G01*
X124415000Y-93149000D01*
X124415000Y-92247000D01*
X125267000Y-92247000D01*
X125267000Y-93149000D01*
X125267000Y-93149000D01*
G37*
G36*
X126766000Y-92999000D02*
G01*
X125964000Y-92999000D01*
X125964000Y-92297000D01*
X126766000Y-92297000D01*
X126766000Y-92999000D01*
X126766000Y-92999000D01*
G37*
G36*
X166861442Y-91180518D02*
G01*
X166927627Y-91187037D01*
X167097466Y-91238557D01*
X167253991Y-91322222D01*
X167289729Y-91351552D01*
X167391186Y-91434814D01*
X167474448Y-91536271D01*
X167503778Y-91572009D01*
X167587443Y-91728534D01*
X167638963Y-91898373D01*
X167656359Y-92075000D01*
X167638963Y-92251627D01*
X167587443Y-92421466D01*
X167503778Y-92577991D01*
X167474448Y-92613729D01*
X167391186Y-92715186D01*
X167289729Y-92798448D01*
X167253991Y-92827778D01*
X167097466Y-92911443D01*
X166927627Y-92962963D01*
X166861442Y-92969482D01*
X166795260Y-92976000D01*
X166706740Y-92976000D01*
X166640558Y-92969482D01*
X166574373Y-92962963D01*
X166404534Y-92911443D01*
X166248009Y-92827778D01*
X166212271Y-92798448D01*
X166110814Y-92715186D01*
X166027552Y-92613729D01*
X165998222Y-92577991D01*
X165914557Y-92421466D01*
X165863037Y-92251627D01*
X165845641Y-92075000D01*
X165863037Y-91898373D01*
X165914557Y-91728534D01*
X165998222Y-91572009D01*
X166027552Y-91536271D01*
X166110814Y-91434814D01*
X166212271Y-91351552D01*
X166248009Y-91322222D01*
X166404534Y-91238557D01*
X166574373Y-91187037D01*
X166640558Y-91180518D01*
X166706740Y-91174000D01*
X166795260Y-91174000D01*
X166861442Y-91180518D01*
X166861442Y-91180518D01*
G37*
G36*
X164321442Y-91180518D02*
G01*
X164387627Y-91187037D01*
X164557466Y-91238557D01*
X164713991Y-91322222D01*
X164749729Y-91351552D01*
X164851186Y-91434814D01*
X164934448Y-91536271D01*
X164963778Y-91572009D01*
X165047443Y-91728534D01*
X165098963Y-91898373D01*
X165116359Y-92075000D01*
X165098963Y-92251627D01*
X165047443Y-92421466D01*
X164963778Y-92577991D01*
X164934448Y-92613729D01*
X164851186Y-92715186D01*
X164749729Y-92798448D01*
X164713991Y-92827778D01*
X164557466Y-92911443D01*
X164387627Y-92962963D01*
X164321442Y-92969482D01*
X164255260Y-92976000D01*
X164166740Y-92976000D01*
X164100558Y-92969482D01*
X164034373Y-92962963D01*
X163864534Y-92911443D01*
X163708009Y-92827778D01*
X163672271Y-92798448D01*
X163570814Y-92715186D01*
X163487552Y-92613729D01*
X163458222Y-92577991D01*
X163374557Y-92421466D01*
X163323037Y-92251627D01*
X163305641Y-92075000D01*
X163323037Y-91898373D01*
X163374557Y-91728534D01*
X163458222Y-91572009D01*
X163487552Y-91536271D01*
X163570814Y-91434814D01*
X163672271Y-91351552D01*
X163708009Y-91322222D01*
X163864534Y-91238557D01*
X164034373Y-91187037D01*
X164100558Y-91180518D01*
X164166740Y-91174000D01*
X164255260Y-91174000D01*
X164321442Y-91180518D01*
X164321442Y-91180518D01*
G37*
G36*
X125267000Y-91649000D02*
G01*
X124415000Y-91649000D01*
X124415000Y-90747000D01*
X125267000Y-90747000D01*
X125267000Y-91649000D01*
X125267000Y-91649000D01*
G37*
G36*
X126766000Y-91599000D02*
G01*
X125964000Y-91599000D01*
X125964000Y-90897000D01*
X126766000Y-90897000D01*
X126766000Y-91599000D01*
X126766000Y-91599000D01*
G37*
G36*
X164321443Y-88640519D02*
G01*
X164387627Y-88647037D01*
X164557466Y-88698557D01*
X164713991Y-88782222D01*
X164749729Y-88811552D01*
X164851186Y-88894814D01*
X164934448Y-88996271D01*
X164963778Y-89032009D01*
X165047443Y-89188534D01*
X165098963Y-89358373D01*
X165116359Y-89535000D01*
X165098963Y-89711627D01*
X165047443Y-89881466D01*
X164963778Y-90037991D01*
X164934448Y-90073729D01*
X164851186Y-90175186D01*
X164749729Y-90258448D01*
X164713991Y-90287778D01*
X164557466Y-90371443D01*
X164387627Y-90422963D01*
X164321443Y-90429481D01*
X164255260Y-90436000D01*
X164166740Y-90436000D01*
X164100557Y-90429481D01*
X164034373Y-90422963D01*
X163864534Y-90371443D01*
X163708009Y-90287778D01*
X163672271Y-90258448D01*
X163570814Y-90175186D01*
X163487552Y-90073729D01*
X163458222Y-90037991D01*
X163374557Y-89881466D01*
X163323037Y-89711627D01*
X163305641Y-89535000D01*
X163323037Y-89358373D01*
X163374557Y-89188534D01*
X163458222Y-89032009D01*
X163487552Y-88996271D01*
X163570814Y-88894814D01*
X163672271Y-88811552D01*
X163708009Y-88782222D01*
X163864534Y-88698557D01*
X164034373Y-88647037D01*
X164100557Y-88640519D01*
X164166740Y-88634000D01*
X164255260Y-88634000D01*
X164321443Y-88640519D01*
X164321443Y-88640519D01*
G37*
G36*
X166861443Y-88640519D02*
G01*
X166927627Y-88647037D01*
X167097466Y-88698557D01*
X167253991Y-88782222D01*
X167289729Y-88811552D01*
X167391186Y-88894814D01*
X167474448Y-88996271D01*
X167503778Y-89032009D01*
X167587443Y-89188534D01*
X167638963Y-89358373D01*
X167656359Y-89535000D01*
X167638963Y-89711627D01*
X167587443Y-89881466D01*
X167503778Y-90037991D01*
X167474448Y-90073729D01*
X167391186Y-90175186D01*
X167289729Y-90258448D01*
X167253991Y-90287778D01*
X167097466Y-90371443D01*
X166927627Y-90422963D01*
X166861443Y-90429481D01*
X166795260Y-90436000D01*
X166706740Y-90436000D01*
X166640557Y-90429481D01*
X166574373Y-90422963D01*
X166404534Y-90371443D01*
X166248009Y-90287778D01*
X166212271Y-90258448D01*
X166110814Y-90175186D01*
X166027552Y-90073729D01*
X165998222Y-90037991D01*
X165914557Y-89881466D01*
X165863037Y-89711627D01*
X165845641Y-89535000D01*
X165863037Y-89358373D01*
X165914557Y-89188534D01*
X165998222Y-89032009D01*
X166027552Y-88996271D01*
X166110814Y-88894814D01*
X166212271Y-88811552D01*
X166248009Y-88782222D01*
X166404534Y-88698557D01*
X166574373Y-88647037D01*
X166640557Y-88640519D01*
X166706740Y-88634000D01*
X166795260Y-88634000D01*
X166861443Y-88640519D01*
X166861443Y-88640519D01*
G37*
G36*
X164321442Y-86100518D02*
G01*
X164387627Y-86107037D01*
X164557466Y-86158557D01*
X164713991Y-86242222D01*
X164749729Y-86271552D01*
X164851186Y-86354814D01*
X164934448Y-86456271D01*
X164963778Y-86492009D01*
X165047443Y-86648534D01*
X165098963Y-86818373D01*
X165116359Y-86995000D01*
X165098963Y-87171627D01*
X165047443Y-87341466D01*
X164963778Y-87497991D01*
X164934448Y-87533729D01*
X164851186Y-87635186D01*
X164749729Y-87718448D01*
X164713991Y-87747778D01*
X164557466Y-87831443D01*
X164387627Y-87882963D01*
X164321443Y-87889481D01*
X164255260Y-87896000D01*
X164166740Y-87896000D01*
X164100557Y-87889481D01*
X164034373Y-87882963D01*
X163864534Y-87831443D01*
X163708009Y-87747778D01*
X163672271Y-87718448D01*
X163570814Y-87635186D01*
X163487552Y-87533729D01*
X163458222Y-87497991D01*
X163374557Y-87341466D01*
X163323037Y-87171627D01*
X163305641Y-86995000D01*
X163323037Y-86818373D01*
X163374557Y-86648534D01*
X163458222Y-86492009D01*
X163487552Y-86456271D01*
X163570814Y-86354814D01*
X163672271Y-86271552D01*
X163708009Y-86242222D01*
X163864534Y-86158557D01*
X164034373Y-86107037D01*
X164100558Y-86100518D01*
X164166740Y-86094000D01*
X164255260Y-86094000D01*
X164321442Y-86100518D01*
X164321442Y-86100518D01*
G37*
G36*
X166861442Y-86100518D02*
G01*
X166927627Y-86107037D01*
X167097466Y-86158557D01*
X167253991Y-86242222D01*
X167289729Y-86271552D01*
X167391186Y-86354814D01*
X167474448Y-86456271D01*
X167503778Y-86492009D01*
X167587443Y-86648534D01*
X167638963Y-86818373D01*
X167656359Y-86995000D01*
X167638963Y-87171627D01*
X167587443Y-87341466D01*
X167503778Y-87497991D01*
X167474448Y-87533729D01*
X167391186Y-87635186D01*
X167289729Y-87718448D01*
X167253991Y-87747778D01*
X167097466Y-87831443D01*
X166927627Y-87882963D01*
X166861443Y-87889481D01*
X166795260Y-87896000D01*
X166706740Y-87896000D01*
X166640557Y-87889481D01*
X166574373Y-87882963D01*
X166404534Y-87831443D01*
X166248009Y-87747778D01*
X166212271Y-87718448D01*
X166110814Y-87635186D01*
X166027552Y-87533729D01*
X165998222Y-87497991D01*
X165914557Y-87341466D01*
X165863037Y-87171627D01*
X165845641Y-86995000D01*
X165863037Y-86818373D01*
X165914557Y-86648534D01*
X165998222Y-86492009D01*
X166027552Y-86456271D01*
X166110814Y-86354814D01*
X166212271Y-86271552D01*
X166248009Y-86242222D01*
X166404534Y-86158557D01*
X166574373Y-86107037D01*
X166640558Y-86100518D01*
X166706740Y-86094000D01*
X166795260Y-86094000D01*
X166861442Y-86100518D01*
X166861442Y-86100518D01*
G37*
G36*
X117927000Y-85622000D02*
G01*
X114325000Y-85622000D01*
X114325000Y-82020000D01*
X117927000Y-82020000D01*
X117927000Y-85622000D01*
X117927000Y-85622000D01*
G37*
G36*
X164321443Y-83560519D02*
G01*
X164387627Y-83567037D01*
X164557466Y-83618557D01*
X164713991Y-83702222D01*
X164749729Y-83731552D01*
X164851186Y-83814814D01*
X164934448Y-83916271D01*
X164963778Y-83952009D01*
X165047443Y-84108534D01*
X165098963Y-84278373D01*
X165116359Y-84455000D01*
X165098963Y-84631627D01*
X165047443Y-84801466D01*
X164963778Y-84957991D01*
X164934448Y-84993729D01*
X164851186Y-85095186D01*
X164749729Y-85178448D01*
X164713991Y-85207778D01*
X164557466Y-85291443D01*
X164387627Y-85342963D01*
X164321442Y-85349482D01*
X164255260Y-85356000D01*
X164166740Y-85356000D01*
X164100558Y-85349482D01*
X164034373Y-85342963D01*
X163864534Y-85291443D01*
X163708009Y-85207778D01*
X163672271Y-85178448D01*
X163570814Y-85095186D01*
X163487552Y-84993729D01*
X163458222Y-84957991D01*
X163374557Y-84801466D01*
X163323037Y-84631627D01*
X163305641Y-84455000D01*
X163323037Y-84278373D01*
X163374557Y-84108534D01*
X163458222Y-83952009D01*
X163487552Y-83916271D01*
X163570814Y-83814814D01*
X163672271Y-83731552D01*
X163708009Y-83702222D01*
X163864534Y-83618557D01*
X164034373Y-83567037D01*
X164100557Y-83560519D01*
X164166740Y-83554000D01*
X164255260Y-83554000D01*
X164321443Y-83560519D01*
X164321443Y-83560519D01*
G37*
G36*
X166861443Y-83560519D02*
G01*
X166927627Y-83567037D01*
X167097466Y-83618557D01*
X167253991Y-83702222D01*
X167289729Y-83731552D01*
X167391186Y-83814814D01*
X167474448Y-83916271D01*
X167503778Y-83952009D01*
X167587443Y-84108534D01*
X167638963Y-84278373D01*
X167656359Y-84455000D01*
X167638963Y-84631627D01*
X167587443Y-84801466D01*
X167503778Y-84957991D01*
X167474448Y-84993729D01*
X167391186Y-85095186D01*
X167289729Y-85178448D01*
X167253991Y-85207778D01*
X167097466Y-85291443D01*
X166927627Y-85342963D01*
X166861442Y-85349482D01*
X166795260Y-85356000D01*
X166706740Y-85356000D01*
X166640558Y-85349482D01*
X166574373Y-85342963D01*
X166404534Y-85291443D01*
X166248009Y-85207778D01*
X166212271Y-85178448D01*
X166110814Y-85095186D01*
X166027552Y-84993729D01*
X165998222Y-84957991D01*
X165914557Y-84801466D01*
X165863037Y-84631627D01*
X165845641Y-84455000D01*
X165863037Y-84278373D01*
X165914557Y-84108534D01*
X165998222Y-83952009D01*
X166027552Y-83916271D01*
X166110814Y-83814814D01*
X166212271Y-83731552D01*
X166248009Y-83702222D01*
X166404534Y-83618557D01*
X166574373Y-83567037D01*
X166640557Y-83560519D01*
X166706740Y-83554000D01*
X166795260Y-83554000D01*
X166861443Y-83560519D01*
X166861443Y-83560519D01*
G37*
G36*
X166861442Y-81020518D02*
G01*
X166927627Y-81027037D01*
X167097466Y-81078557D01*
X167253991Y-81162222D01*
X167289729Y-81191552D01*
X167391186Y-81274814D01*
X167474448Y-81376271D01*
X167503778Y-81412009D01*
X167587443Y-81568534D01*
X167638963Y-81738373D01*
X167656359Y-81915000D01*
X167638963Y-82091627D01*
X167587443Y-82261466D01*
X167503778Y-82417991D01*
X167474448Y-82453729D01*
X167391186Y-82555186D01*
X167289729Y-82638448D01*
X167253991Y-82667778D01*
X167097466Y-82751443D01*
X166927627Y-82802963D01*
X166861442Y-82809482D01*
X166795260Y-82816000D01*
X166706740Y-82816000D01*
X166640558Y-82809482D01*
X166574373Y-82802963D01*
X166404534Y-82751443D01*
X166248009Y-82667778D01*
X166212271Y-82638448D01*
X166110814Y-82555186D01*
X166027552Y-82453729D01*
X165998222Y-82417991D01*
X165914557Y-82261466D01*
X165863037Y-82091627D01*
X165845641Y-81915000D01*
X165863037Y-81738373D01*
X165914557Y-81568534D01*
X165998222Y-81412009D01*
X166027552Y-81376271D01*
X166110814Y-81274814D01*
X166212271Y-81191552D01*
X166248009Y-81162222D01*
X166404534Y-81078557D01*
X166574373Y-81027037D01*
X166640558Y-81020518D01*
X166706740Y-81014000D01*
X166795260Y-81014000D01*
X166861442Y-81020518D01*
X166861442Y-81020518D01*
G37*
G36*
X164321442Y-81020518D02*
G01*
X164387627Y-81027037D01*
X164557466Y-81078557D01*
X164713991Y-81162222D01*
X164749729Y-81191552D01*
X164851186Y-81274814D01*
X164934448Y-81376271D01*
X164963778Y-81412009D01*
X165047443Y-81568534D01*
X165098963Y-81738373D01*
X165116359Y-81915000D01*
X165098963Y-82091627D01*
X165047443Y-82261466D01*
X164963778Y-82417991D01*
X164934448Y-82453729D01*
X164851186Y-82555186D01*
X164749729Y-82638448D01*
X164713991Y-82667778D01*
X164557466Y-82751443D01*
X164387627Y-82802963D01*
X164321442Y-82809482D01*
X164255260Y-82816000D01*
X164166740Y-82816000D01*
X164100558Y-82809482D01*
X164034373Y-82802963D01*
X163864534Y-82751443D01*
X163708009Y-82667778D01*
X163672271Y-82638448D01*
X163570814Y-82555186D01*
X163487552Y-82453729D01*
X163458222Y-82417991D01*
X163374557Y-82261466D01*
X163323037Y-82091627D01*
X163305641Y-81915000D01*
X163323037Y-81738373D01*
X163374557Y-81568534D01*
X163458222Y-81412009D01*
X163487552Y-81376271D01*
X163570814Y-81274814D01*
X163672271Y-81191552D01*
X163708009Y-81162222D01*
X163864534Y-81078557D01*
X164034373Y-81027037D01*
X164100558Y-81020518D01*
X164166740Y-81014000D01*
X164255260Y-81014000D01*
X164321442Y-81020518D01*
X164321442Y-81020518D01*
G37*
G36*
X114927000Y-80922000D02*
G01*
X111325000Y-80922000D01*
X111325000Y-77320000D01*
X114927000Y-77320000D01*
X114927000Y-80922000D01*
X114927000Y-80922000D01*
G37*
G36*
X120927000Y-80922000D02*
G01*
X117325000Y-80922000D01*
X117325000Y-77320000D01*
X120927000Y-77320000D01*
X120927000Y-80922000D01*
X120927000Y-80922000D01*
G37*
G36*
X166861442Y-78480518D02*
G01*
X166927627Y-78487037D01*
X167097466Y-78538557D01*
X167253991Y-78622222D01*
X167289729Y-78651552D01*
X167391186Y-78734814D01*
X167474448Y-78836271D01*
X167503778Y-78872009D01*
X167587443Y-79028534D01*
X167638963Y-79198373D01*
X167656359Y-79375000D01*
X167638963Y-79551627D01*
X167587443Y-79721466D01*
X167503778Y-79877991D01*
X167474448Y-79913729D01*
X167391186Y-80015186D01*
X167289729Y-80098448D01*
X167253991Y-80127778D01*
X167097466Y-80211443D01*
X166927627Y-80262963D01*
X166861442Y-80269482D01*
X166795260Y-80276000D01*
X166706740Y-80276000D01*
X166640558Y-80269482D01*
X166574373Y-80262963D01*
X166404534Y-80211443D01*
X166248009Y-80127778D01*
X166212271Y-80098448D01*
X166110814Y-80015186D01*
X166027552Y-79913729D01*
X165998222Y-79877991D01*
X165914557Y-79721466D01*
X165863037Y-79551627D01*
X165845641Y-79375000D01*
X165863037Y-79198373D01*
X165914557Y-79028534D01*
X165998222Y-78872009D01*
X166027552Y-78836271D01*
X166110814Y-78734814D01*
X166212271Y-78651552D01*
X166248009Y-78622222D01*
X166404534Y-78538557D01*
X166574373Y-78487037D01*
X166640558Y-78480518D01*
X166706740Y-78474000D01*
X166795260Y-78474000D01*
X166861442Y-78480518D01*
X166861442Y-78480518D01*
G37*
G36*
X164321442Y-78480518D02*
G01*
X164387627Y-78487037D01*
X164557466Y-78538557D01*
X164713991Y-78622222D01*
X164749729Y-78651552D01*
X164851186Y-78734814D01*
X164934448Y-78836271D01*
X164963778Y-78872009D01*
X165047443Y-79028534D01*
X165098963Y-79198373D01*
X165116359Y-79375000D01*
X165098963Y-79551627D01*
X165047443Y-79721466D01*
X164963778Y-79877991D01*
X164934448Y-79913729D01*
X164851186Y-80015186D01*
X164749729Y-80098448D01*
X164713991Y-80127778D01*
X164557466Y-80211443D01*
X164387627Y-80262963D01*
X164321442Y-80269482D01*
X164255260Y-80276000D01*
X164166740Y-80276000D01*
X164100558Y-80269482D01*
X164034373Y-80262963D01*
X163864534Y-80211443D01*
X163708009Y-80127778D01*
X163672271Y-80098448D01*
X163570814Y-80015186D01*
X163487552Y-79913729D01*
X163458222Y-79877991D01*
X163374557Y-79721466D01*
X163323037Y-79551627D01*
X163305641Y-79375000D01*
X163323037Y-79198373D01*
X163374557Y-79028534D01*
X163458222Y-78872009D01*
X163487552Y-78836271D01*
X163570814Y-78734814D01*
X163672271Y-78651552D01*
X163708009Y-78622222D01*
X163864534Y-78538557D01*
X164034373Y-78487037D01*
X164100558Y-78480518D01*
X164166740Y-78474000D01*
X164255260Y-78474000D01*
X164321442Y-78480518D01*
X164321442Y-78480518D01*
G37*
G36*
X126893000Y-78267000D02*
G01*
X126091000Y-78267000D01*
X126091000Y-77565000D01*
X126893000Y-77565000D01*
X126893000Y-78267000D01*
X126893000Y-78267000D01*
G37*
G36*
X125469000Y-78267000D02*
G01*
X124467000Y-78267000D01*
X124467000Y-77665000D01*
X125469000Y-77665000D01*
X125469000Y-78267000D01*
X125469000Y-78267000D01*
G37*
G36*
X135290000Y-78034500D02*
G01*
X134688000Y-78034500D01*
X134688000Y-77032500D01*
X135290000Y-77032500D01*
X135290000Y-78034500D01*
X135290000Y-78034500D01*
G37*
G36*
X133790000Y-78034500D02*
G01*
X133188000Y-78034500D01*
X133188000Y-77032500D01*
X133790000Y-77032500D01*
X133790000Y-78034500D01*
X133790000Y-78034500D01*
G37*
G36*
X142680000Y-77907500D02*
G01*
X142078000Y-77907500D01*
X142078000Y-76905500D01*
X142680000Y-76905500D01*
X142680000Y-77907500D01*
X142680000Y-77907500D01*
G37*
G36*
X153070000Y-77907500D02*
G01*
X152468000Y-77907500D01*
X152468000Y-76905500D01*
X153070000Y-76905500D01*
X153070000Y-77907500D01*
X153070000Y-77907500D01*
G37*
G36*
X151570000Y-77907500D02*
G01*
X150968000Y-77907500D01*
X150968000Y-76905500D01*
X151570000Y-76905500D01*
X151570000Y-77907500D01*
X151570000Y-77907500D01*
G37*
G36*
X144180000Y-77907500D02*
G01*
X143578000Y-77907500D01*
X143578000Y-76905500D01*
X144180000Y-76905500D01*
X144180000Y-77907500D01*
X144180000Y-77907500D01*
G37*
G36*
X164321442Y-75940518D02*
G01*
X164387627Y-75947037D01*
X164557466Y-75998557D01*
X164713991Y-76082222D01*
X164738239Y-76102122D01*
X164851186Y-76194814D01*
X164934448Y-76296271D01*
X164963778Y-76332009D01*
X165047443Y-76488534D01*
X165098963Y-76658373D01*
X165116359Y-76835000D01*
X165098963Y-77011627D01*
X165047443Y-77181466D01*
X164963778Y-77337991D01*
X164934448Y-77373729D01*
X164851186Y-77475186D01*
X164749729Y-77558448D01*
X164713991Y-77587778D01*
X164557466Y-77671443D01*
X164387627Y-77722963D01*
X164321443Y-77729481D01*
X164255260Y-77736000D01*
X164166740Y-77736000D01*
X164100557Y-77729481D01*
X164034373Y-77722963D01*
X163864534Y-77671443D01*
X163708009Y-77587778D01*
X163672271Y-77558448D01*
X163570814Y-77475186D01*
X163487552Y-77373729D01*
X163458222Y-77337991D01*
X163374557Y-77181466D01*
X163323037Y-77011627D01*
X163305641Y-76835000D01*
X163323037Y-76658373D01*
X163374557Y-76488534D01*
X163458222Y-76332009D01*
X163487552Y-76296271D01*
X163570814Y-76194814D01*
X163683761Y-76102122D01*
X163708009Y-76082222D01*
X163864534Y-75998557D01*
X164034373Y-75947037D01*
X164100558Y-75940518D01*
X164166740Y-75934000D01*
X164255260Y-75934000D01*
X164321442Y-75940518D01*
X164321442Y-75940518D01*
G37*
G36*
X166861442Y-75940518D02*
G01*
X166927627Y-75947037D01*
X167097466Y-75998557D01*
X167253991Y-76082222D01*
X167278239Y-76102122D01*
X167391186Y-76194814D01*
X167474448Y-76296271D01*
X167503778Y-76332009D01*
X167587443Y-76488534D01*
X167638963Y-76658373D01*
X167656359Y-76835000D01*
X167638963Y-77011627D01*
X167587443Y-77181466D01*
X167503778Y-77337991D01*
X167474448Y-77373729D01*
X167391186Y-77475186D01*
X167289729Y-77558448D01*
X167253991Y-77587778D01*
X167097466Y-77671443D01*
X166927627Y-77722963D01*
X166861443Y-77729481D01*
X166795260Y-77736000D01*
X166706740Y-77736000D01*
X166640557Y-77729481D01*
X166574373Y-77722963D01*
X166404534Y-77671443D01*
X166248009Y-77587778D01*
X166212271Y-77558448D01*
X166110814Y-77475186D01*
X166027552Y-77373729D01*
X165998222Y-77337991D01*
X165914557Y-77181466D01*
X165863037Y-77011627D01*
X165845641Y-76835000D01*
X165863037Y-76658373D01*
X165914557Y-76488534D01*
X165998222Y-76332009D01*
X166027552Y-76296271D01*
X166110814Y-76194814D01*
X166223761Y-76102122D01*
X166248009Y-76082222D01*
X166404534Y-75998557D01*
X166574373Y-75947037D01*
X166640558Y-75940518D01*
X166706740Y-75934000D01*
X166795260Y-75934000D01*
X166861442Y-75940518D01*
X166861442Y-75940518D01*
G37*
G36*
X126893000Y-76867000D02*
G01*
X126091000Y-76867000D01*
X126091000Y-76165000D01*
X126893000Y-76165000D01*
X126893000Y-76867000D01*
X126893000Y-76867000D01*
G37*
G36*
X125469000Y-76767000D02*
G01*
X124467000Y-76767000D01*
X124467000Y-76165000D01*
X125469000Y-76165000D01*
X125469000Y-76767000D01*
X125469000Y-76767000D01*
G37*
G36*
X137141000Y-76244500D02*
G01*
X134639000Y-76244500D01*
X134639000Y-73742500D01*
X137141000Y-73742500D01*
X137141000Y-76244500D01*
X137141000Y-76244500D01*
G37*
G36*
X155048000Y-76244500D02*
G01*
X152546000Y-76244500D01*
X152546000Y-73742500D01*
X155048000Y-73742500D01*
X155048000Y-76244500D01*
X155048000Y-76244500D01*
G37*
G36*
X150661903Y-73790575D02*
G01*
X150889571Y-73884878D01*
X151094466Y-74021785D01*
X151268715Y-74196034D01*
X151405622Y-74400929D01*
X151499925Y-74628597D01*
X151548000Y-74870287D01*
X151548000Y-75116713D01*
X151499925Y-75358403D01*
X151405622Y-75586071D01*
X151268715Y-75790966D01*
X151094466Y-75965215D01*
X150889571Y-76102122D01*
X150889570Y-76102123D01*
X150889569Y-76102123D01*
X150661903Y-76196425D01*
X150420214Y-76244500D01*
X150173786Y-76244500D01*
X149932097Y-76196425D01*
X149704431Y-76102123D01*
X149704430Y-76102123D01*
X149704429Y-76102122D01*
X149499534Y-75965215D01*
X149325285Y-75790966D01*
X149188378Y-75586071D01*
X149094075Y-75358403D01*
X149046000Y-75116713D01*
X149046000Y-74870287D01*
X149094075Y-74628597D01*
X149188378Y-74400929D01*
X149325285Y-74196034D01*
X149499534Y-74021785D01*
X149704429Y-73884878D01*
X149932097Y-73790575D01*
X150173786Y-73742500D01*
X150420214Y-73742500D01*
X150661903Y-73790575D01*
X150661903Y-73790575D01*
G37*
G36*
X146031000Y-76244500D02*
G01*
X143529000Y-76244500D01*
X143529000Y-73742500D01*
X146031000Y-73742500D01*
X146031000Y-76244500D01*
X146031000Y-76244500D01*
G37*
G36*
X141644903Y-73790575D02*
G01*
X141872571Y-73884878D01*
X142077466Y-74021785D01*
X142251715Y-74196034D01*
X142388622Y-74400929D01*
X142482925Y-74628597D01*
X142531000Y-74870287D01*
X142531000Y-75116713D01*
X142482925Y-75358403D01*
X142388622Y-75586071D01*
X142251715Y-75790966D01*
X142077466Y-75965215D01*
X141872571Y-76102122D01*
X141872570Y-76102123D01*
X141872569Y-76102123D01*
X141644903Y-76196425D01*
X141403214Y-76244500D01*
X141156786Y-76244500D01*
X140915097Y-76196425D01*
X140687431Y-76102123D01*
X140687430Y-76102123D01*
X140687429Y-76102122D01*
X140482534Y-75965215D01*
X140308285Y-75790966D01*
X140171378Y-75586071D01*
X140077075Y-75358403D01*
X140029000Y-75116713D01*
X140029000Y-74870287D01*
X140077075Y-74628597D01*
X140171378Y-74400929D01*
X140308285Y-74196034D01*
X140482534Y-74021785D01*
X140687429Y-73884878D01*
X140915097Y-73790575D01*
X141156786Y-73742500D01*
X141403214Y-73742500D01*
X141644903Y-73790575D01*
X141644903Y-73790575D01*
G37*
G36*
X132754903Y-73790575D02*
G01*
X132982571Y-73884878D01*
X133187466Y-74021785D01*
X133361715Y-74196034D01*
X133498622Y-74400929D01*
X133592925Y-74628597D01*
X133641000Y-74870287D01*
X133641000Y-75116713D01*
X133592925Y-75358403D01*
X133498622Y-75586071D01*
X133361715Y-75790966D01*
X133187466Y-75965215D01*
X132982571Y-76102122D01*
X132982570Y-76102123D01*
X132982569Y-76102123D01*
X132754903Y-76196425D01*
X132513214Y-76244500D01*
X132266786Y-76244500D01*
X132025097Y-76196425D01*
X131797431Y-76102123D01*
X131797430Y-76102123D01*
X131797429Y-76102122D01*
X131592534Y-75965215D01*
X131418285Y-75790966D01*
X131281378Y-75586071D01*
X131187075Y-75358403D01*
X131139000Y-75116713D01*
X131139000Y-74870287D01*
X131187075Y-74628597D01*
X131281378Y-74400929D01*
X131418285Y-74196034D01*
X131592534Y-74021785D01*
X131797429Y-73884878D01*
X132025097Y-73790575D01*
X132266786Y-73742500D01*
X132513214Y-73742500D01*
X132754903Y-73790575D01*
X132754903Y-73790575D01*
G37*
G36*
X118630000Y-73037000D02*
G01*
X116828000Y-73037000D01*
X116828000Y-71235000D01*
X118630000Y-71235000D01*
X118630000Y-73037000D01*
X118630000Y-73037000D01*
G37*
G36*
X165751585Y-68918552D02*
G01*
X165901410Y-68948354D01*
X166183674Y-69065271D01*
X166437705Y-69235009D01*
X166653741Y-69451045D01*
X166823479Y-69705076D01*
X166940396Y-69987340D01*
X167000000Y-70286990D01*
X167000000Y-70592510D01*
X166940396Y-70892160D01*
X166823479Y-71174424D01*
X166653741Y-71428455D01*
X166437705Y-71644491D01*
X166183674Y-71814229D01*
X165901410Y-71931146D01*
X165751585Y-71960948D01*
X165601761Y-71990750D01*
X165296239Y-71990750D01*
X165146415Y-71960948D01*
X164996590Y-71931146D01*
X164714326Y-71814229D01*
X164460295Y-71644491D01*
X164244259Y-71428455D01*
X164074521Y-71174424D01*
X163957604Y-70892160D01*
X163898000Y-70592510D01*
X163898000Y-70286990D01*
X163957604Y-69987340D01*
X164074521Y-69705076D01*
X164244259Y-69451045D01*
X164460295Y-69235009D01*
X164714326Y-69065271D01*
X164996590Y-68948354D01*
X165146415Y-68918552D01*
X165296239Y-68888750D01*
X165601761Y-68888750D01*
X165751585Y-68918552D01*
X165751585Y-68918552D01*
G37*
G36*
X112426585Y-68918552D02*
G01*
X112576410Y-68948354D01*
X112858674Y-69065271D01*
X113112705Y-69235009D01*
X113328741Y-69451045D01*
X113498479Y-69705076D01*
X113615396Y-69987340D01*
X113675000Y-70286990D01*
X113675000Y-70592510D01*
X113615396Y-70892160D01*
X113498479Y-71174424D01*
X113328741Y-71428455D01*
X113112705Y-71644491D01*
X112858674Y-71814229D01*
X112576410Y-71931146D01*
X112426585Y-71960948D01*
X112276761Y-71990750D01*
X111971239Y-71990750D01*
X111821415Y-71960948D01*
X111671590Y-71931146D01*
X111389326Y-71814229D01*
X111135295Y-71644491D01*
X110919259Y-71428455D01*
X110749521Y-71174424D01*
X110632604Y-70892160D01*
X110573000Y-70592510D01*
X110573000Y-70286990D01*
X110632604Y-69987340D01*
X110749521Y-69705076D01*
X110919259Y-69451045D01*
X111135295Y-69235009D01*
X111389326Y-69065271D01*
X111671590Y-68948354D01*
X111821415Y-68918552D01*
X111971239Y-68888750D01*
X112276761Y-68888750D01*
X112426585Y-68918552D01*
X112426585Y-68918552D01*
G37*
M02*
