G04 #@! TF.GenerationSoftware,KiCad,Pcbnew,(5.1.4)-1*
G04 #@! TF.CreationDate,2020-05-02T17:21:17-05:00*
G04 #@! TF.ProjectId,Audio_Optical_Trigger,41756469-6f5f-44f7-9074-6963616c5f54,rev?*
G04 #@! TF.SameCoordinates,Original*
G04 #@! TF.FileFunction,Legend,Top*
G04 #@! TF.FilePolarity,Positive*
%FSLAX46Y46*%
G04 Gerber Fmt 4.6, Leading zero omitted, Abs format (unit mm)*
G04 Created by KiCad (PCBNEW (5.1.4)-1) date 2020-05-02 17:21:17*
%MOMM*%
%LPD*%
G04 APERTURE LIST*
%ADD10C,0.150000*%
%ADD11C,0.300000*%
%ADD12C,0.120000*%
%ADD13C,0.500000*%
%ADD14C,0.010000*%
G04 APERTURE END LIST*
D10*
X117292761Y-108084880D02*
X117292761Y-107084880D01*
X117673714Y-107084880D01*
X117768952Y-107132500D01*
X117816571Y-107180119D01*
X117864190Y-107275357D01*
X117864190Y-107418214D01*
X117816571Y-107513452D01*
X117768952Y-107561071D01*
X117673714Y-107608690D01*
X117292761Y-107608690D01*
X118292761Y-108084880D02*
X118292761Y-107084880D01*
X119340380Y-107989642D02*
X119292761Y-108037261D01*
X119149904Y-108084880D01*
X119054666Y-108084880D01*
X118911809Y-108037261D01*
X118816571Y-107942023D01*
X118768952Y-107846785D01*
X118721333Y-107656309D01*
X118721333Y-107513452D01*
X118768952Y-107322976D01*
X118816571Y-107227738D01*
X118911809Y-107132500D01*
X119054666Y-107084880D01*
X119149904Y-107084880D01*
X119292761Y-107132500D01*
X119340380Y-107180119D01*
X119768952Y-108084880D02*
X119768952Y-107084880D01*
X120340380Y-108084880D02*
X119911809Y-107513452D01*
X120340380Y-107084880D02*
X119768952Y-107656309D01*
X120768952Y-108084880D02*
X120768952Y-107084880D01*
X121102285Y-107084880D02*
X121673714Y-107084880D01*
X121388000Y-108084880D02*
X121388000Y-107084880D01*
X121911809Y-107084880D02*
X122530857Y-107084880D01*
X122197523Y-107465833D01*
X122340380Y-107465833D01*
X122435619Y-107513452D01*
X122483238Y-107561071D01*
X122530857Y-107656309D01*
X122530857Y-107894404D01*
X122483238Y-107989642D01*
X122435619Y-108037261D01*
X122340380Y-108084880D01*
X122054666Y-108084880D01*
X121959428Y-108037261D01*
X121911809Y-107989642D01*
X156194380Y-88654380D02*
X156194380Y-87654380D01*
X156194380Y-88130571D02*
X156765809Y-88130571D01*
X156765809Y-88654380D02*
X156765809Y-87654380D01*
X157242000Y-88130571D02*
X157575333Y-88130571D01*
X157718190Y-88654380D02*
X157242000Y-88654380D01*
X157242000Y-87654380D01*
X157718190Y-87654380D01*
X158099142Y-88368666D02*
X158575333Y-88368666D01*
X158003904Y-88654380D02*
X158337238Y-87654380D01*
X158670571Y-88654380D01*
X159575333Y-88654380D02*
X159242000Y-88178190D01*
X159003904Y-88654380D02*
X159003904Y-87654380D01*
X159384857Y-87654380D01*
X159480095Y-87702000D01*
X159527714Y-87749619D01*
X159575333Y-87844857D01*
X159575333Y-87987714D01*
X159527714Y-88082952D01*
X159480095Y-88130571D01*
X159384857Y-88178190D01*
X159003904Y-88178190D01*
X159861047Y-87654380D02*
X160432476Y-87654380D01*
X160146761Y-88654380D02*
X160146761Y-87654380D01*
X157051523Y-89780571D02*
X157194380Y-89828190D01*
X157242000Y-89875809D01*
X157289619Y-89971047D01*
X157289619Y-90113904D01*
X157242000Y-90209142D01*
X157194380Y-90256761D01*
X157099142Y-90304380D01*
X156718190Y-90304380D01*
X156718190Y-89304380D01*
X157051523Y-89304380D01*
X157146761Y-89352000D01*
X157194380Y-89399619D01*
X157242000Y-89494857D01*
X157242000Y-89590095D01*
X157194380Y-89685333D01*
X157146761Y-89732952D01*
X157051523Y-89780571D01*
X156718190Y-89780571D01*
X157718190Y-89780571D02*
X158051523Y-89780571D01*
X158194380Y-90304380D02*
X157718190Y-90304380D01*
X157718190Y-89304380D01*
X158194380Y-89304380D01*
X158575333Y-90018666D02*
X159051523Y-90018666D01*
X158480095Y-90304380D02*
X158813428Y-89304380D01*
X159146761Y-90304380D01*
X159337238Y-89304380D02*
X159908666Y-89304380D01*
X159622952Y-90304380D02*
X159622952Y-89304380D01*
X156789619Y-82176880D02*
X156456285Y-81700690D01*
X156218190Y-82176880D02*
X156218190Y-81176880D01*
X156599142Y-81176880D01*
X156694380Y-81224500D01*
X156742000Y-81272119D01*
X156789619Y-81367357D01*
X156789619Y-81510214D01*
X156742000Y-81605452D01*
X156694380Y-81653071D01*
X156599142Y-81700690D01*
X156218190Y-81700690D01*
X157218190Y-81653071D02*
X157551523Y-81653071D01*
X157694380Y-82176880D02*
X157218190Y-82176880D01*
X157218190Y-81176880D01*
X157694380Y-81176880D01*
X158075333Y-82129261D02*
X158218190Y-82176880D01*
X158456285Y-82176880D01*
X158551523Y-82129261D01*
X158599142Y-82081642D01*
X158646761Y-81986404D01*
X158646761Y-81891166D01*
X158599142Y-81795928D01*
X158551523Y-81748309D01*
X158456285Y-81700690D01*
X158265809Y-81653071D01*
X158170571Y-81605452D01*
X158122952Y-81557833D01*
X158075333Y-81462595D01*
X158075333Y-81367357D01*
X158122952Y-81272119D01*
X158170571Y-81224500D01*
X158265809Y-81176880D01*
X158503904Y-81176880D01*
X158646761Y-81224500D01*
X159075333Y-81653071D02*
X159408666Y-81653071D01*
X159551523Y-82176880D02*
X159075333Y-82176880D01*
X159075333Y-81176880D01*
X159551523Y-81176880D01*
X159837238Y-81176880D02*
X160408666Y-81176880D01*
X160122952Y-82176880D02*
X160122952Y-81176880D01*
X158012000Y-127706380D02*
X157535809Y-127706380D01*
X157535809Y-126706380D01*
X158773904Y-127706380D02*
X158773904Y-127182571D01*
X158726285Y-127087333D01*
X158631047Y-127039714D01*
X158440571Y-127039714D01*
X158345333Y-127087333D01*
X158773904Y-127658761D02*
X158678666Y-127706380D01*
X158440571Y-127706380D01*
X158345333Y-127658761D01*
X158297714Y-127563523D01*
X158297714Y-127468285D01*
X158345333Y-127373047D01*
X158440571Y-127325428D01*
X158678666Y-127325428D01*
X158773904Y-127277809D01*
X159154857Y-127039714D02*
X159392952Y-127706380D01*
X159631047Y-127039714D02*
X159392952Y-127706380D01*
X159297714Y-127944476D01*
X159250095Y-127992095D01*
X159154857Y-128039714D01*
X160392952Y-127658761D02*
X160297714Y-127706380D01*
X160107238Y-127706380D01*
X160012000Y-127658761D01*
X159964380Y-127563523D01*
X159964380Y-127182571D01*
X160012000Y-127087333D01*
X160107238Y-127039714D01*
X160297714Y-127039714D01*
X160392952Y-127087333D01*
X160440571Y-127182571D01*
X160440571Y-127277809D01*
X159964380Y-127373047D01*
X160869142Y-127706380D02*
X160869142Y-127039714D01*
X160869142Y-127230190D02*
X160916761Y-127134952D01*
X160964380Y-127087333D01*
X161059619Y-127039714D01*
X161154857Y-127039714D01*
X161488190Y-127611142D02*
X161535809Y-127658761D01*
X161488190Y-127706380D01*
X161440571Y-127658761D01*
X161488190Y-127611142D01*
X161488190Y-127706380D01*
X161488190Y-127087333D02*
X161535809Y-127134952D01*
X161488190Y-127182571D01*
X161440571Y-127134952D01*
X161488190Y-127087333D01*
X161488190Y-127182571D01*
D11*
X153225571Y-69385642D02*
X154368428Y-69385642D01*
X153797000Y-69957071D02*
X153797000Y-68814214D01*
X149669571Y-69385642D02*
X150812428Y-69385642D01*
X140652571Y-69385642D02*
X141795428Y-69385642D01*
X144208571Y-69385642D02*
X145351428Y-69385642D01*
X144780000Y-69957071D02*
X144780000Y-68814214D01*
X131762571Y-69385642D02*
X132905428Y-69385642D01*
X135318571Y-69385642D02*
X136461428Y-69385642D01*
X135890000Y-69957071D02*
X135890000Y-68814214D01*
D10*
X113570000Y-112530428D02*
X114331904Y-112530428D01*
X113950952Y-112911380D02*
X113950952Y-112149476D01*
X114712857Y-111911380D02*
X115331904Y-111911380D01*
X114998571Y-112292333D01*
X115141428Y-112292333D01*
X115236666Y-112339952D01*
X115284285Y-112387571D01*
X115331904Y-112482809D01*
X115331904Y-112720904D01*
X115284285Y-112816142D01*
X115236666Y-112863761D01*
X115141428Y-112911380D01*
X114855714Y-112911380D01*
X114760476Y-112863761D01*
X114712857Y-112816142D01*
X115760476Y-112816142D02*
X115808095Y-112863761D01*
X115760476Y-112911380D01*
X115712857Y-112863761D01*
X115760476Y-112816142D01*
X115760476Y-112911380D01*
X116141428Y-111911380D02*
X116760476Y-111911380D01*
X116427142Y-112292333D01*
X116570000Y-112292333D01*
X116665238Y-112339952D01*
X116712857Y-112387571D01*
X116760476Y-112482809D01*
X116760476Y-112720904D01*
X116712857Y-112816142D01*
X116665238Y-112863761D01*
X116570000Y-112911380D01*
X116284285Y-112911380D01*
X116189047Y-112863761D01*
X116141428Y-112816142D01*
X117046190Y-111911380D02*
X117379523Y-112911380D01*
X117712857Y-111911380D01*
X113260476Y-114561380D02*
X113260476Y-113561380D01*
X113641428Y-113561380D01*
X113736666Y-113609000D01*
X113784285Y-113656619D01*
X113831904Y-113751857D01*
X113831904Y-113894714D01*
X113784285Y-113989952D01*
X113736666Y-114037571D01*
X113641428Y-114085190D01*
X113260476Y-114085190D01*
X114784285Y-113609000D02*
X114689047Y-113561380D01*
X114546190Y-113561380D01*
X114403333Y-113609000D01*
X114308095Y-113704238D01*
X114260476Y-113799476D01*
X114212857Y-113989952D01*
X114212857Y-114132809D01*
X114260476Y-114323285D01*
X114308095Y-114418523D01*
X114403333Y-114513761D01*
X114546190Y-114561380D01*
X114641428Y-114561380D01*
X114784285Y-114513761D01*
X114831904Y-114466142D01*
X114831904Y-114132809D01*
X114641428Y-114132809D01*
X115450952Y-113561380D02*
X115641428Y-113561380D01*
X115736666Y-113609000D01*
X115831904Y-113704238D01*
X115879523Y-113894714D01*
X115879523Y-114228047D01*
X115831904Y-114418523D01*
X115736666Y-114513761D01*
X115641428Y-114561380D01*
X115450952Y-114561380D01*
X115355714Y-114513761D01*
X115260476Y-114418523D01*
X115212857Y-114228047D01*
X115212857Y-113894714D01*
X115260476Y-113704238D01*
X115355714Y-113609000D01*
X115450952Y-113561380D01*
X116498571Y-113561380D02*
X116689047Y-113561380D01*
X116784285Y-113609000D01*
X116879523Y-113704238D01*
X116927142Y-113894714D01*
X116927142Y-114228047D01*
X116879523Y-114418523D01*
X116784285Y-114513761D01*
X116689047Y-114561380D01*
X116498571Y-114561380D01*
X116403333Y-114513761D01*
X116308095Y-114418523D01*
X116260476Y-114228047D01*
X116260476Y-113894714D01*
X116308095Y-113704238D01*
X116403333Y-113609000D01*
X116498571Y-113561380D01*
X117355714Y-114561380D02*
X117355714Y-113561380D01*
X117593809Y-113561380D01*
X117736666Y-113609000D01*
X117831904Y-113704238D01*
X117879523Y-113799476D01*
X117927142Y-113989952D01*
X117927142Y-114132809D01*
X117879523Y-114323285D01*
X117831904Y-114418523D01*
X117736666Y-114513761D01*
X117593809Y-114561380D01*
X117355714Y-114561380D01*
X141496095Y-94432428D02*
X142258000Y-94432428D01*
X141877047Y-94813380D02*
X141877047Y-94051476D01*
X142638952Y-93813380D02*
X143258000Y-93813380D01*
X142924666Y-94194333D01*
X143067523Y-94194333D01*
X143162761Y-94241952D01*
X143210380Y-94289571D01*
X143258000Y-94384809D01*
X143258000Y-94622904D01*
X143210380Y-94718142D01*
X143162761Y-94765761D01*
X143067523Y-94813380D01*
X142781809Y-94813380D01*
X142686571Y-94765761D01*
X142638952Y-94718142D01*
X143686571Y-94718142D02*
X143734190Y-94765761D01*
X143686571Y-94813380D01*
X143638952Y-94765761D01*
X143686571Y-94718142D01*
X143686571Y-94813380D01*
X144067523Y-93813380D02*
X144686571Y-93813380D01*
X144353238Y-94194333D01*
X144496095Y-94194333D01*
X144591333Y-94241952D01*
X144638952Y-94289571D01*
X144686571Y-94384809D01*
X144686571Y-94622904D01*
X144638952Y-94718142D01*
X144591333Y-94765761D01*
X144496095Y-94813380D01*
X144210380Y-94813380D01*
X144115142Y-94765761D01*
X144067523Y-94718142D01*
X144972285Y-93813380D02*
X145305619Y-94813380D01*
X145638952Y-93813380D01*
X119965595Y-88082428D02*
X120727500Y-88082428D01*
X120346547Y-88463380D02*
X120346547Y-87701476D01*
X121727500Y-88463380D02*
X121156071Y-88463380D01*
X121441785Y-88463380D02*
X121441785Y-87463380D01*
X121346547Y-87606238D01*
X121251309Y-87701476D01*
X121156071Y-87749095D01*
X122108452Y-87558619D02*
X122156071Y-87511000D01*
X122251309Y-87463380D01*
X122489404Y-87463380D01*
X122584642Y-87511000D01*
X122632261Y-87558619D01*
X122679880Y-87653857D01*
X122679880Y-87749095D01*
X122632261Y-87891952D01*
X122060833Y-88463380D01*
X122679880Y-88463380D01*
X122965595Y-87463380D02*
X123298928Y-88463380D01*
X123632261Y-87463380D01*
D11*
X111843285Y-104548714D02*
X111771857Y-104620142D01*
X111557571Y-104691571D01*
X111414714Y-104691571D01*
X111200428Y-104620142D01*
X111057571Y-104477285D01*
X110986142Y-104334428D01*
X110914714Y-104048714D01*
X110914714Y-103834428D01*
X110986142Y-103548714D01*
X111057571Y-103405857D01*
X111200428Y-103263000D01*
X111414714Y-103191571D01*
X111557571Y-103191571D01*
X111771857Y-103263000D01*
X111843285Y-103334428D01*
X111057571Y-96341500D02*
X110914714Y-96270071D01*
X110700428Y-96270071D01*
X110486142Y-96341500D01*
X110343285Y-96484357D01*
X110271857Y-96627214D01*
X110200428Y-96912928D01*
X110200428Y-97127214D01*
X110271857Y-97412928D01*
X110343285Y-97555785D01*
X110486142Y-97698642D01*
X110700428Y-97770071D01*
X110843285Y-97770071D01*
X111057571Y-97698642D01*
X111129000Y-97627214D01*
X111129000Y-97127214D01*
X110843285Y-97127214D01*
X111700428Y-96412928D02*
X111771857Y-96341500D01*
X111914714Y-96270071D01*
X112271857Y-96270071D01*
X112414714Y-96341500D01*
X112486142Y-96412928D01*
X112557571Y-96555785D01*
X112557571Y-96698642D01*
X112486142Y-96912928D01*
X111629000Y-97770071D01*
X112557571Y-97770071D01*
X111057571Y-99770500D02*
X110914714Y-99699071D01*
X110700428Y-99699071D01*
X110486142Y-99770500D01*
X110343285Y-99913357D01*
X110271857Y-100056214D01*
X110200428Y-100341928D01*
X110200428Y-100556214D01*
X110271857Y-100841928D01*
X110343285Y-100984785D01*
X110486142Y-101127642D01*
X110700428Y-101199071D01*
X110843285Y-101199071D01*
X111057571Y-101127642D01*
X111129000Y-101056214D01*
X111129000Y-100556214D01*
X110843285Y-100556214D01*
X111629000Y-99699071D02*
X112557571Y-99699071D01*
X112057571Y-100270500D01*
X112271857Y-100270500D01*
X112414714Y-100341928D01*
X112486142Y-100413357D01*
X112557571Y-100556214D01*
X112557571Y-100913357D01*
X112486142Y-101056214D01*
X112414714Y-101127642D01*
X112271857Y-101199071D01*
X111843285Y-101199071D01*
X111700428Y-101127642D01*
X111629000Y-101056214D01*
X111057571Y-92722000D02*
X110914714Y-92650571D01*
X110700428Y-92650571D01*
X110486142Y-92722000D01*
X110343285Y-92864857D01*
X110271857Y-93007714D01*
X110200428Y-93293428D01*
X110200428Y-93507714D01*
X110271857Y-93793428D01*
X110343285Y-93936285D01*
X110486142Y-94079142D01*
X110700428Y-94150571D01*
X110843285Y-94150571D01*
X111057571Y-94079142D01*
X111129000Y-94007714D01*
X111129000Y-93507714D01*
X110843285Y-93507714D01*
X112557571Y-94150571D02*
X111700428Y-94150571D01*
X112129000Y-94150571D02*
X112129000Y-92650571D01*
X111986142Y-92864857D01*
X111843285Y-93007714D01*
X111700428Y-93079142D01*
X144399142Y-129575642D02*
X144613428Y-129647071D01*
X144970571Y-129647071D01*
X145113428Y-129575642D01*
X145184857Y-129504214D01*
X145256285Y-129361357D01*
X145256285Y-129218500D01*
X145184857Y-129075642D01*
X145113428Y-129004214D01*
X144970571Y-128932785D01*
X144684857Y-128861357D01*
X144542000Y-128789928D01*
X144470571Y-128718500D01*
X144399142Y-128575642D01*
X144399142Y-128432785D01*
X144470571Y-128289928D01*
X144542000Y-128218500D01*
X144684857Y-128147071D01*
X145042000Y-128147071D01*
X145256285Y-128218500D01*
X145756285Y-128147071D02*
X146684857Y-128147071D01*
X146184857Y-128718500D01*
X146399142Y-128718500D01*
X146542000Y-128789928D01*
X146613428Y-128861357D01*
X146684857Y-129004214D01*
X146684857Y-129361357D01*
X146613428Y-129504214D01*
X146542000Y-129575642D01*
X146399142Y-129647071D01*
X145970571Y-129647071D01*
X145827714Y-129575642D01*
X145756285Y-129504214D01*
X149542428Y-128861357D02*
X148399571Y-128861357D01*
X142493928Y-128861357D02*
X141351071Y-128861357D01*
X141922500Y-128289928D02*
X141922500Y-129432785D01*
X132842142Y-129575642D02*
X133056428Y-129647071D01*
X133413571Y-129647071D01*
X133556428Y-129575642D01*
X133627857Y-129504214D01*
X133699285Y-129361357D01*
X133699285Y-129218500D01*
X133627857Y-129075642D01*
X133556428Y-129004214D01*
X133413571Y-128932785D01*
X133127857Y-128861357D01*
X132985000Y-128789928D01*
X132913571Y-128718500D01*
X132842142Y-128575642D01*
X132842142Y-128432785D01*
X132913571Y-128289928D01*
X132985000Y-128218500D01*
X133127857Y-128147071D01*
X133485000Y-128147071D01*
X133699285Y-128218500D01*
X134270714Y-128289928D02*
X134342142Y-128218500D01*
X134485000Y-128147071D01*
X134842142Y-128147071D01*
X134985000Y-128218500D01*
X135056428Y-128289928D01*
X135127857Y-128432785D01*
X135127857Y-128575642D01*
X135056428Y-128789928D01*
X134199285Y-129647071D01*
X135127857Y-129647071D01*
X137985428Y-128861357D02*
X136842571Y-128861357D01*
X130936928Y-128861357D02*
X129794071Y-128861357D01*
X130365500Y-128289928D02*
X130365500Y-129432785D01*
X126364928Y-128861357D02*
X125222071Y-128861357D01*
X121221642Y-129575642D02*
X121435928Y-129647071D01*
X121793071Y-129647071D01*
X121935928Y-129575642D01*
X122007357Y-129504214D01*
X122078785Y-129361357D01*
X122078785Y-129218500D01*
X122007357Y-129075642D01*
X121935928Y-129004214D01*
X121793071Y-128932785D01*
X121507357Y-128861357D01*
X121364500Y-128789928D01*
X121293071Y-128718500D01*
X121221642Y-128575642D01*
X121221642Y-128432785D01*
X121293071Y-128289928D01*
X121364500Y-128218500D01*
X121507357Y-128147071D01*
X121864500Y-128147071D01*
X122078785Y-128218500D01*
X123507357Y-129647071D02*
X122650214Y-129647071D01*
X123078785Y-129647071D02*
X123078785Y-128147071D01*
X122935928Y-128361357D01*
X122793071Y-128504214D01*
X122650214Y-128575642D01*
X119316428Y-128861357D02*
X118173571Y-128861357D01*
X118745000Y-128289928D02*
X118745000Y-129432785D01*
X121678000Y-105139357D02*
X121606571Y-105282214D01*
X121606571Y-105496500D01*
X121678000Y-105710785D01*
X121820857Y-105853642D01*
X121963714Y-105925071D01*
X122249428Y-105996500D01*
X122463714Y-105996500D01*
X122749428Y-105925071D01*
X122892285Y-105853642D01*
X123035142Y-105710785D01*
X123106571Y-105496500D01*
X123106571Y-105353642D01*
X123035142Y-105139357D01*
X122963714Y-105067928D01*
X122463714Y-105067928D01*
X122463714Y-105353642D01*
X123106571Y-104425071D02*
X122106571Y-104425071D01*
X122392285Y-104425071D02*
X122249428Y-104353642D01*
X122178000Y-104282214D01*
X122106571Y-104139357D01*
X122106571Y-103996500D01*
X123106571Y-103282214D02*
X123035142Y-103425071D01*
X122963714Y-103496500D01*
X122820857Y-103567928D01*
X122392285Y-103567928D01*
X122249428Y-103496500D01*
X122178000Y-103425071D01*
X122106571Y-103282214D01*
X122106571Y-103067928D01*
X122178000Y-102925071D01*
X122249428Y-102853642D01*
X122392285Y-102782214D01*
X122820857Y-102782214D01*
X122963714Y-102853642D01*
X123035142Y-102925071D01*
X123106571Y-103067928D01*
X123106571Y-103282214D01*
X122106571Y-101496500D02*
X123106571Y-101496500D01*
X122106571Y-102139357D02*
X122892285Y-102139357D01*
X123035142Y-102067928D01*
X123106571Y-101925071D01*
X123106571Y-101710785D01*
X123035142Y-101567928D01*
X122963714Y-101496500D01*
X122106571Y-100782214D02*
X123606571Y-100782214D01*
X122178000Y-100782214D02*
X122106571Y-100639357D01*
X122106571Y-100353642D01*
X122178000Y-100210785D01*
X122249428Y-100139357D01*
X122392285Y-100067928D01*
X122820857Y-100067928D01*
X122963714Y-100139357D01*
X123035142Y-100210785D01*
X123106571Y-100353642D01*
X123106571Y-100639357D01*
X123035142Y-100782214D01*
X123035142Y-98353642D02*
X123106571Y-98139357D01*
X123106571Y-97782214D01*
X123035142Y-97639357D01*
X122963714Y-97567928D01*
X122820857Y-97496500D01*
X122678000Y-97496500D01*
X122535142Y-97567928D01*
X122463714Y-97639357D01*
X122392285Y-97782214D01*
X122320857Y-98067928D01*
X122249428Y-98210785D01*
X122178000Y-98282214D01*
X122035142Y-98353642D01*
X121892285Y-98353642D01*
X121749428Y-98282214D01*
X121678000Y-98210785D01*
X121606571Y-98067928D01*
X121606571Y-97710785D01*
X121678000Y-97496500D01*
X123035142Y-96282214D02*
X123106571Y-96425071D01*
X123106571Y-96710785D01*
X123035142Y-96853642D01*
X122892285Y-96925071D01*
X122320857Y-96925071D01*
X122178000Y-96853642D01*
X122106571Y-96710785D01*
X122106571Y-96425071D01*
X122178000Y-96282214D01*
X122320857Y-96210785D01*
X122463714Y-96210785D01*
X122606571Y-96925071D01*
X123106571Y-95353642D02*
X123035142Y-95496500D01*
X122892285Y-95567928D01*
X121606571Y-95567928D01*
X123035142Y-94210785D02*
X123106571Y-94353642D01*
X123106571Y-94639357D01*
X123035142Y-94782214D01*
X122892285Y-94853642D01*
X122320857Y-94853642D01*
X122178000Y-94782214D01*
X122106571Y-94639357D01*
X122106571Y-94353642D01*
X122178000Y-94210785D01*
X122320857Y-94139357D01*
X122463714Y-94139357D01*
X122606571Y-94853642D01*
X123035142Y-92853642D02*
X123106571Y-92996500D01*
X123106571Y-93282214D01*
X123035142Y-93425071D01*
X122963714Y-93496500D01*
X122820857Y-93567928D01*
X122392285Y-93567928D01*
X122249428Y-93496500D01*
X122178000Y-93425071D01*
X122106571Y-93282214D01*
X122106571Y-92996500D01*
X122178000Y-92853642D01*
X122106571Y-92425071D02*
X122106571Y-91853642D01*
X121606571Y-92210785D02*
X122892285Y-92210785D01*
X123035142Y-92139357D01*
X123106571Y-91996500D01*
X123106571Y-91853642D01*
X153293000Y-129647071D02*
X152793000Y-128932785D01*
X152435857Y-129647071D02*
X152435857Y-128147071D01*
X153007285Y-128147071D01*
X153150142Y-128218500D01*
X153221571Y-128289928D01*
X153293000Y-128432785D01*
X153293000Y-128647071D01*
X153221571Y-128789928D01*
X153150142Y-128861357D01*
X153007285Y-128932785D01*
X152435857Y-128932785D01*
X153793000Y-128147071D02*
X154793000Y-129647071D01*
X154793000Y-128147071D02*
X153793000Y-129647071D01*
X156591142Y-68584071D02*
X157448285Y-68584071D01*
X157019714Y-70084071D02*
X157019714Y-68584071D01*
X157805428Y-68584071D02*
X158805428Y-70084071D01*
X158805428Y-68584071D02*
X157805428Y-70084071D01*
D10*
X112665190Y-89606428D02*
X113427095Y-89606428D01*
X113046142Y-89987380D02*
X113046142Y-89225476D01*
X114427095Y-89987380D02*
X113855666Y-89987380D01*
X114141380Y-89987380D02*
X114141380Y-88987380D01*
X114046142Y-89130238D01*
X113950904Y-89225476D01*
X113855666Y-89273095D01*
X114808047Y-89082619D02*
X114855666Y-89035000D01*
X114950904Y-88987380D01*
X115189000Y-88987380D01*
X115284238Y-89035000D01*
X115331857Y-89082619D01*
X115379476Y-89177857D01*
X115379476Y-89273095D01*
X115331857Y-89415952D01*
X114760428Y-89987380D01*
X115379476Y-89987380D01*
X115665190Y-88987380D02*
X115998523Y-89987380D01*
X116331857Y-88987380D01*
X116665190Y-89987380D02*
X116665190Y-88987380D01*
X117141380Y-89987380D02*
X117141380Y-88987380D01*
X117712809Y-89987380D01*
X117712809Y-88987380D01*
X118181428Y-87756952D02*
X118181428Y-86995047D01*
X111823547Y-87383928D02*
X112585452Y-87383928D01*
X112204500Y-87764880D02*
X112204500Y-87002976D01*
X123952095Y-68969000D02*
X123856857Y-68921380D01*
X123714000Y-68921380D01*
X123571142Y-68969000D01*
X123475904Y-69064238D01*
X123428285Y-69159476D01*
X123380666Y-69349952D01*
X123380666Y-69492809D01*
X123428285Y-69683285D01*
X123475904Y-69778523D01*
X123571142Y-69873761D01*
X123714000Y-69921380D01*
X123809238Y-69921380D01*
X123952095Y-69873761D01*
X123999714Y-69826142D01*
X123999714Y-69492809D01*
X123809238Y-69492809D01*
X124428285Y-69921380D02*
X124428285Y-68921380D01*
X124999714Y-69921380D01*
X124999714Y-68921380D01*
X125475904Y-69921380D02*
X125475904Y-68921380D01*
X125714000Y-68921380D01*
X125856857Y-68969000D01*
X125952095Y-69064238D01*
X125999714Y-69159476D01*
X126047333Y-69349952D01*
X126047333Y-69492809D01*
X125999714Y-69683285D01*
X125952095Y-69778523D01*
X125856857Y-69873761D01*
X125714000Y-69921380D01*
X125475904Y-69921380D01*
D12*
X119509500Y-111612000D02*
X119509500Y-110282000D01*
X120839500Y-111612000D02*
X119509500Y-111612000D01*
X122109500Y-111612000D02*
X122109500Y-108952000D01*
X122109500Y-108952000D02*
X134869500Y-108952000D01*
X122109500Y-111612000D02*
X134869500Y-111612000D01*
X134869500Y-111612000D02*
X134869500Y-108952000D01*
D10*
X115189000Y-87364500D02*
X113189000Y-87364500D01*
X117189000Y-87364500D02*
X116289000Y-87364500D01*
X119114000Y-87364500D02*
G75*
G03X119114000Y-87364500I-925000J0D01*
G01*
X113114000Y-87364500D02*
G75*
G03X113114000Y-87364500I-925000J0D01*
G01*
D13*
X115364000Y-87364500D02*
G75*
G03X115364000Y-87364500I-175000J0D01*
G01*
D10*
X114514000Y-88114500D02*
G75*
G03X114439000Y-86689500I675000J750000D01*
G01*
D14*
G36*
X134021594Y-99859158D02*
G01*
X134054119Y-99871736D01*
X134103693Y-99896712D01*
X134174874Y-99935876D01*
X134180416Y-99938988D01*
X134245974Y-99976476D01*
X134301298Y-100009319D01*
X134340955Y-100034205D01*
X134359512Y-100047820D01*
X134360031Y-100048487D01*
X134355548Y-100067390D01*
X134334986Y-100109605D01*
X134299683Y-100172832D01*
X134250980Y-100254772D01*
X134190218Y-100353122D01*
X134118736Y-100465585D01*
X134100945Y-100493165D01*
X134054593Y-100569699D01*
X134020842Y-100635556D01*
X134002653Y-100684782D01*
X134000786Y-100694507D01*
X134001615Y-100737312D01*
X134010894Y-100805209D01*
X134027468Y-100893843D01*
X134050180Y-100998859D01*
X134077873Y-101115902D01*
X134109390Y-101240616D01*
X134143575Y-101368645D01*
X134179271Y-101495634D01*
X134215321Y-101617228D01*
X134250568Y-101729072D01*
X134283856Y-101826810D01*
X134314028Y-101906087D01*
X134335061Y-101953122D01*
X134359837Y-102003225D01*
X134383230Y-102051168D01*
X134384497Y-102053793D01*
X134423199Y-102102220D01*
X134479684Y-102134828D01*
X134545439Y-102150454D01*
X134611951Y-102147937D01*
X134670705Y-102126114D01*
X134703758Y-102097382D01*
X134751359Y-102018583D01*
X134786239Y-101920378D01*
X134805377Y-101812779D01*
X134808088Y-101751780D01*
X134797170Y-101637935D01*
X134765124Y-101543660D01*
X134710226Y-101464379D01*
X134693107Y-101446733D01*
X134642161Y-101397235D01*
X134638663Y-101047362D01*
X134635164Y-100697489D01*
X134724318Y-100562531D01*
X134766154Y-100501445D01*
X134806445Y-100446493D01*
X134839443Y-100405336D01*
X134853626Y-100390192D01*
X134893781Y-100352810D01*
X134948165Y-100382098D01*
X134982539Y-100403084D01*
X135001346Y-100419378D01*
X135002549Y-100422307D01*
X135015403Y-100434728D01*
X135037396Y-100443977D01*
X135058650Y-100452313D01*
X135091194Y-100468149D01*
X135137822Y-100493033D01*
X135201329Y-100528509D01*
X135284508Y-100576123D01*
X135390153Y-100637422D01*
X135447562Y-100670932D01*
X135515094Y-100711071D01*
X135559385Y-100739659D01*
X135584355Y-100760039D01*
X135593923Y-100775553D01*
X135592008Y-100789546D01*
X135590411Y-100792796D01*
X135574876Y-100813266D01*
X135541636Y-100851665D01*
X135494562Y-100903696D01*
X135437528Y-100965066D01*
X135388200Y-101017090D01*
X135274530Y-101140567D01*
X135185605Y-101247591D01*
X135120634Y-101339240D01*
X135078821Y-101416588D01*
X135064717Y-101455866D01*
X135058892Y-101490249D01*
X135052875Y-101548899D01*
X135047196Y-101625117D01*
X135042384Y-101712202D01*
X135040119Y-101767268D01*
X135036959Y-101862464D01*
X135035569Y-101932062D01*
X135036358Y-101981409D01*
X135039735Y-102015854D01*
X135046108Y-102040743D01*
X135055887Y-102061425D01*
X135063567Y-102074053D01*
X135107921Y-102122726D01*
X135165074Y-102156645D01*
X135225208Y-102171438D01*
X135270273Y-102166086D01*
X135311076Y-102142930D01*
X135362224Y-102101462D01*
X135416542Y-102048912D01*
X135466857Y-101992516D01*
X135505994Y-101939505D01*
X135520405Y-101913889D01*
X135541991Y-101878814D01*
X135581253Y-101825389D01*
X135634602Y-101757789D01*
X135698452Y-101680190D01*
X135769215Y-101596768D01*
X135843304Y-101511698D01*
X135917132Y-101429155D01*
X135987111Y-101353316D01*
X136049655Y-101288356D01*
X136098760Y-101240669D01*
X136153279Y-101193032D01*
X136199142Y-101157908D01*
X136231311Y-101138949D01*
X136241989Y-101136864D01*
X136258353Y-101145274D01*
X136299171Y-101167846D01*
X136362086Y-101203224D01*
X136444744Y-101250054D01*
X136544789Y-101306981D01*
X136659866Y-101372649D01*
X136787619Y-101445703D01*
X136925694Y-101524788D01*
X137071734Y-101608548D01*
X137223384Y-101695629D01*
X137378290Y-101784676D01*
X137534095Y-101874332D01*
X137688444Y-101963243D01*
X137838982Y-102050054D01*
X137983354Y-102133409D01*
X138119204Y-102211954D01*
X138244177Y-102284333D01*
X138355917Y-102349190D01*
X138452070Y-102405171D01*
X138530279Y-102450920D01*
X138588189Y-102485083D01*
X138623446Y-102506304D01*
X138633665Y-102512963D01*
X138619902Y-102514280D01*
X138576604Y-102515559D01*
X138505214Y-102516796D01*
X138407173Y-102517983D01*
X138283922Y-102519115D01*
X138136903Y-102520186D01*
X137967557Y-102521189D01*
X137777326Y-102522119D01*
X137567651Y-102522968D01*
X137339973Y-102523732D01*
X137095735Y-102524403D01*
X136836377Y-102524976D01*
X136563341Y-102525444D01*
X136278068Y-102525802D01*
X135982000Y-102526042D01*
X135676579Y-102526159D01*
X135548424Y-102526171D01*
X132448470Y-102526171D01*
X132669553Y-102142847D01*
X132716356Y-102061680D01*
X132776602Y-101957166D01*
X132848278Y-101832801D01*
X132929369Y-101692082D01*
X133017862Y-101538503D01*
X133111740Y-101375562D01*
X133208991Y-101206754D01*
X133307600Y-101035575D01*
X133405553Y-100865521D01*
X133430325Y-100822512D01*
X133520652Y-100665857D01*
X133606789Y-100516803D01*
X133687442Y-100377568D01*
X133761316Y-100250371D01*
X133827117Y-100137432D01*
X133883550Y-100040968D01*
X133929321Y-99963200D01*
X133963135Y-99906346D01*
X133983698Y-99872625D01*
X133989453Y-99864040D01*
X134001558Y-99857189D01*
X134021594Y-99859158D01*
X134021594Y-99859158D01*
G37*
X134021594Y-99859158D02*
X134054119Y-99871736D01*
X134103693Y-99896712D01*
X134174874Y-99935876D01*
X134180416Y-99938988D01*
X134245974Y-99976476D01*
X134301298Y-100009319D01*
X134340955Y-100034205D01*
X134359512Y-100047820D01*
X134360031Y-100048487D01*
X134355548Y-100067390D01*
X134334986Y-100109605D01*
X134299683Y-100172832D01*
X134250980Y-100254772D01*
X134190218Y-100353122D01*
X134118736Y-100465585D01*
X134100945Y-100493165D01*
X134054593Y-100569699D01*
X134020842Y-100635556D01*
X134002653Y-100684782D01*
X134000786Y-100694507D01*
X134001615Y-100737312D01*
X134010894Y-100805209D01*
X134027468Y-100893843D01*
X134050180Y-100998859D01*
X134077873Y-101115902D01*
X134109390Y-101240616D01*
X134143575Y-101368645D01*
X134179271Y-101495634D01*
X134215321Y-101617228D01*
X134250568Y-101729072D01*
X134283856Y-101826810D01*
X134314028Y-101906087D01*
X134335061Y-101953122D01*
X134359837Y-102003225D01*
X134383230Y-102051168D01*
X134384497Y-102053793D01*
X134423199Y-102102220D01*
X134479684Y-102134828D01*
X134545439Y-102150454D01*
X134611951Y-102147937D01*
X134670705Y-102126114D01*
X134703758Y-102097382D01*
X134751359Y-102018583D01*
X134786239Y-101920378D01*
X134805377Y-101812779D01*
X134808088Y-101751780D01*
X134797170Y-101637935D01*
X134765124Y-101543660D01*
X134710226Y-101464379D01*
X134693107Y-101446733D01*
X134642161Y-101397235D01*
X134638663Y-101047362D01*
X134635164Y-100697489D01*
X134724318Y-100562531D01*
X134766154Y-100501445D01*
X134806445Y-100446493D01*
X134839443Y-100405336D01*
X134853626Y-100390192D01*
X134893781Y-100352810D01*
X134948165Y-100382098D01*
X134982539Y-100403084D01*
X135001346Y-100419378D01*
X135002549Y-100422307D01*
X135015403Y-100434728D01*
X135037396Y-100443977D01*
X135058650Y-100452313D01*
X135091194Y-100468149D01*
X135137822Y-100493033D01*
X135201329Y-100528509D01*
X135284508Y-100576123D01*
X135390153Y-100637422D01*
X135447562Y-100670932D01*
X135515094Y-100711071D01*
X135559385Y-100739659D01*
X135584355Y-100760039D01*
X135593923Y-100775553D01*
X135592008Y-100789546D01*
X135590411Y-100792796D01*
X135574876Y-100813266D01*
X135541636Y-100851665D01*
X135494562Y-100903696D01*
X135437528Y-100965066D01*
X135388200Y-101017090D01*
X135274530Y-101140567D01*
X135185605Y-101247591D01*
X135120634Y-101339240D01*
X135078821Y-101416588D01*
X135064717Y-101455866D01*
X135058892Y-101490249D01*
X135052875Y-101548899D01*
X135047196Y-101625117D01*
X135042384Y-101712202D01*
X135040119Y-101767268D01*
X135036959Y-101862464D01*
X135035569Y-101932062D01*
X135036358Y-101981409D01*
X135039735Y-102015854D01*
X135046108Y-102040743D01*
X135055887Y-102061425D01*
X135063567Y-102074053D01*
X135107921Y-102122726D01*
X135165074Y-102156645D01*
X135225208Y-102171438D01*
X135270273Y-102166086D01*
X135311076Y-102142930D01*
X135362224Y-102101462D01*
X135416542Y-102048912D01*
X135466857Y-101992516D01*
X135505994Y-101939505D01*
X135520405Y-101913889D01*
X135541991Y-101878814D01*
X135581253Y-101825389D01*
X135634602Y-101757789D01*
X135698452Y-101680190D01*
X135769215Y-101596768D01*
X135843304Y-101511698D01*
X135917132Y-101429155D01*
X135987111Y-101353316D01*
X136049655Y-101288356D01*
X136098760Y-101240669D01*
X136153279Y-101193032D01*
X136199142Y-101157908D01*
X136231311Y-101138949D01*
X136241989Y-101136864D01*
X136258353Y-101145274D01*
X136299171Y-101167846D01*
X136362086Y-101203224D01*
X136444744Y-101250054D01*
X136544789Y-101306981D01*
X136659866Y-101372649D01*
X136787619Y-101445703D01*
X136925694Y-101524788D01*
X137071734Y-101608548D01*
X137223384Y-101695629D01*
X137378290Y-101784676D01*
X137534095Y-101874332D01*
X137688444Y-101963243D01*
X137838982Y-102050054D01*
X137983354Y-102133409D01*
X138119204Y-102211954D01*
X138244177Y-102284333D01*
X138355917Y-102349190D01*
X138452070Y-102405171D01*
X138530279Y-102450920D01*
X138588189Y-102485083D01*
X138623446Y-102506304D01*
X138633665Y-102512963D01*
X138619902Y-102514280D01*
X138576604Y-102515559D01*
X138505214Y-102516796D01*
X138407173Y-102517983D01*
X138283922Y-102519115D01*
X138136903Y-102520186D01*
X137967557Y-102521189D01*
X137777326Y-102522119D01*
X137567651Y-102522968D01*
X137339973Y-102523732D01*
X137095735Y-102524403D01*
X136836377Y-102524976D01*
X136563341Y-102525444D01*
X136278068Y-102525802D01*
X135982000Y-102526042D01*
X135676579Y-102526159D01*
X135548424Y-102526171D01*
X132448470Y-102526171D01*
X132669553Y-102142847D01*
X132716356Y-102061680D01*
X132776602Y-101957166D01*
X132848278Y-101832801D01*
X132929369Y-101692082D01*
X133017862Y-101538503D01*
X133111740Y-101375562D01*
X133208991Y-101206754D01*
X133307600Y-101035575D01*
X133405553Y-100865521D01*
X133430325Y-100822512D01*
X133520652Y-100665857D01*
X133606789Y-100516803D01*
X133687442Y-100377568D01*
X133761316Y-100250371D01*
X133827117Y-100137432D01*
X133883550Y-100040968D01*
X133929321Y-99963200D01*
X133963135Y-99906346D01*
X133983698Y-99872625D01*
X133989453Y-99864040D01*
X134001558Y-99857189D01*
X134021594Y-99859158D01*
G36*
X137687028Y-99802619D02*
G01*
X137698408Y-99821693D01*
X137723988Y-99865421D01*
X137762502Y-99931619D01*
X137812686Y-100018102D01*
X137873275Y-100122685D01*
X137943003Y-100243183D01*
X138020607Y-100377412D01*
X138104820Y-100523187D01*
X138194379Y-100678323D01*
X138286498Y-100838000D01*
X138380576Y-101001117D01*
X138470902Y-101157709D01*
X138556165Y-101305506D01*
X138635057Y-101442240D01*
X138706269Y-101565642D01*
X138768491Y-101673444D01*
X138820413Y-101763377D01*
X138860728Y-101833173D01*
X138888124Y-101880564D01*
X138901007Y-101902786D01*
X138922007Y-101940330D01*
X138933425Y-101963831D01*
X138934051Y-101967920D01*
X138920136Y-101960242D01*
X138881441Y-101938203D01*
X138819987Y-101902971D01*
X138737798Y-101855711D01*
X138636896Y-101797589D01*
X138519305Y-101729771D01*
X138387046Y-101653424D01*
X138242142Y-101569714D01*
X138086617Y-101479806D01*
X137922492Y-101384867D01*
X137860049Y-101348732D01*
X137692987Y-101252083D01*
X137533574Y-101159938D01*
X137383855Y-101073475D01*
X137245876Y-100993871D01*
X137121685Y-100922305D01*
X137013327Y-100859955D01*
X136922848Y-100807998D01*
X136852296Y-100767613D01*
X136803715Y-100739978D01*
X136779154Y-100726272D01*
X136776585Y-100724974D01*
X136784069Y-100713220D01*
X136810114Y-100681795D01*
X136852059Y-100633594D01*
X136907246Y-100571510D01*
X136973017Y-100498439D01*
X137046712Y-100417276D01*
X137125673Y-100330916D01*
X137207240Y-100242253D01*
X137288754Y-100154182D01*
X137367557Y-100069599D01*
X137440990Y-99991397D01*
X137506393Y-99922472D01*
X137561108Y-99865719D01*
X137602477Y-99824032D01*
X137616664Y-99810363D01*
X137663680Y-99766201D01*
X137687028Y-99802619D01*
X137687028Y-99802619D01*
G37*
X137687028Y-99802619D02*
X137698408Y-99821693D01*
X137723988Y-99865421D01*
X137762502Y-99931619D01*
X137812686Y-100018102D01*
X137873275Y-100122685D01*
X137943003Y-100243183D01*
X138020607Y-100377412D01*
X138104820Y-100523187D01*
X138194379Y-100678323D01*
X138286498Y-100838000D01*
X138380576Y-101001117D01*
X138470902Y-101157709D01*
X138556165Y-101305506D01*
X138635057Y-101442240D01*
X138706269Y-101565642D01*
X138768491Y-101673444D01*
X138820413Y-101763377D01*
X138860728Y-101833173D01*
X138888124Y-101880564D01*
X138901007Y-101902786D01*
X138922007Y-101940330D01*
X138933425Y-101963831D01*
X138934051Y-101967920D01*
X138920136Y-101960242D01*
X138881441Y-101938203D01*
X138819987Y-101902971D01*
X138737798Y-101855711D01*
X138636896Y-101797589D01*
X138519305Y-101729771D01*
X138387046Y-101653424D01*
X138242142Y-101569714D01*
X138086617Y-101479806D01*
X137922492Y-101384867D01*
X137860049Y-101348732D01*
X137692987Y-101252083D01*
X137533574Y-101159938D01*
X137383855Y-101073475D01*
X137245876Y-100993871D01*
X137121685Y-100922305D01*
X137013327Y-100859955D01*
X136922848Y-100807998D01*
X136852296Y-100767613D01*
X136803715Y-100739978D01*
X136779154Y-100726272D01*
X136776585Y-100724974D01*
X136784069Y-100713220D01*
X136810114Y-100681795D01*
X136852059Y-100633594D01*
X136907246Y-100571510D01*
X136973017Y-100498439D01*
X137046712Y-100417276D01*
X137125673Y-100330916D01*
X137207240Y-100242253D01*
X137288754Y-100154182D01*
X137367557Y-100069599D01*
X137440990Y-99991397D01*
X137506393Y-99922472D01*
X137561108Y-99865719D01*
X137602477Y-99824032D01*
X137616664Y-99810363D01*
X137663680Y-99766201D01*
X137687028Y-99802619D01*
G36*
X135863543Y-96653835D02*
G01*
X135886565Y-96691245D01*
X135922034Y-96750514D01*
X135968496Y-96829118D01*
X136024496Y-96924538D01*
X136088581Y-97034250D01*
X136159296Y-97155734D01*
X136235187Y-97286468D01*
X136314799Y-97423930D01*
X136396678Y-97565598D01*
X136479370Y-97708951D01*
X136561421Y-97851467D01*
X136641376Y-97990624D01*
X136717781Y-98123901D01*
X136789182Y-98248776D01*
X136854124Y-98362727D01*
X136911153Y-98463233D01*
X136958815Y-98547772D01*
X136995655Y-98613822D01*
X137020220Y-98658862D01*
X137031054Y-98680370D01*
X137031451Y-98681714D01*
X137018001Y-98699965D01*
X136980614Y-98727882D01*
X136923735Y-98762725D01*
X136851812Y-98801754D01*
X136776515Y-98838843D01*
X136674060Y-98883817D01*
X136566317Y-98924226D01*
X136449573Y-98960969D01*
X136320118Y-98994942D01*
X136174240Y-99027044D01*
X136008226Y-99058173D01*
X135818366Y-99089227D01*
X135621969Y-99118145D01*
X135451334Y-99143800D01*
X135308045Y-99169198D01*
X135188508Y-99195602D01*
X135089130Y-99224273D01*
X135006318Y-99256473D01*
X134936478Y-99293465D01*
X134876018Y-99336512D01*
X134821345Y-99386875D01*
X134803714Y-99405583D01*
X134765500Y-99449139D01*
X134737232Y-99484682D01*
X134724118Y-99505583D01*
X134723768Y-99507297D01*
X134719180Y-99517806D01*
X134703258Y-99517924D01*
X134672766Y-99506254D01*
X134624468Y-99481396D01*
X134555127Y-99441952D01*
X134506939Y-99413587D01*
X134435083Y-99369247D01*
X134379242Y-99331279D01*
X134343167Y-99302416D01*
X134330613Y-99285388D01*
X134330621Y-99285264D01*
X134338406Y-99269037D01*
X134360392Y-99228400D01*
X134395303Y-99165567D01*
X134441863Y-99082752D01*
X134498795Y-98982172D01*
X134564823Y-98866040D01*
X134638672Y-98736571D01*
X134719064Y-98595980D01*
X134804724Y-98446482D01*
X134894376Y-98290292D01*
X134986743Y-98129624D01*
X135080549Y-97966693D01*
X135174518Y-97803713D01*
X135267374Y-97642900D01*
X135357840Y-97486468D01*
X135444641Y-97336633D01*
X135526500Y-97195608D01*
X135602141Y-97065609D01*
X135670287Y-96948849D01*
X135729663Y-96847545D01*
X135778993Y-96763911D01*
X135817000Y-96700162D01*
X135842407Y-96658511D01*
X135853940Y-96641175D01*
X135854423Y-96640805D01*
X135863543Y-96653835D01*
X135863543Y-96653835D01*
G37*
X135863543Y-96653835D02*
X135886565Y-96691245D01*
X135922034Y-96750514D01*
X135968496Y-96829118D01*
X136024496Y-96924538D01*
X136088581Y-97034250D01*
X136159296Y-97155734D01*
X136235187Y-97286468D01*
X136314799Y-97423930D01*
X136396678Y-97565598D01*
X136479370Y-97708951D01*
X136561421Y-97851467D01*
X136641376Y-97990624D01*
X136717781Y-98123901D01*
X136789182Y-98248776D01*
X136854124Y-98362727D01*
X136911153Y-98463233D01*
X136958815Y-98547772D01*
X136995655Y-98613822D01*
X137020220Y-98658862D01*
X137031054Y-98680370D01*
X137031451Y-98681714D01*
X137018001Y-98699965D01*
X136980614Y-98727882D01*
X136923735Y-98762725D01*
X136851812Y-98801754D01*
X136776515Y-98838843D01*
X136674060Y-98883817D01*
X136566317Y-98924226D01*
X136449573Y-98960969D01*
X136320118Y-98994942D01*
X136174240Y-99027044D01*
X136008226Y-99058173D01*
X135818366Y-99089227D01*
X135621969Y-99118145D01*
X135451334Y-99143800D01*
X135308045Y-99169198D01*
X135188508Y-99195602D01*
X135089130Y-99224273D01*
X135006318Y-99256473D01*
X134936478Y-99293465D01*
X134876018Y-99336512D01*
X134821345Y-99386875D01*
X134803714Y-99405583D01*
X134765500Y-99449139D01*
X134737232Y-99484682D01*
X134724118Y-99505583D01*
X134723768Y-99507297D01*
X134719180Y-99517806D01*
X134703258Y-99517924D01*
X134672766Y-99506254D01*
X134624468Y-99481396D01*
X134555127Y-99441952D01*
X134506939Y-99413587D01*
X134435083Y-99369247D01*
X134379242Y-99331279D01*
X134343167Y-99302416D01*
X134330613Y-99285388D01*
X134330621Y-99285264D01*
X134338406Y-99269037D01*
X134360392Y-99228400D01*
X134395303Y-99165567D01*
X134441863Y-99082752D01*
X134498795Y-98982172D01*
X134564823Y-98866040D01*
X134638672Y-98736571D01*
X134719064Y-98595980D01*
X134804724Y-98446482D01*
X134894376Y-98290292D01*
X134986743Y-98129624D01*
X135080549Y-97966693D01*
X135174518Y-97803713D01*
X135267374Y-97642900D01*
X135357840Y-97486468D01*
X135444641Y-97336633D01*
X135526500Y-97195608D01*
X135602141Y-97065609D01*
X135670287Y-96948849D01*
X135729663Y-96847545D01*
X135778993Y-96763911D01*
X135817000Y-96700162D01*
X135842407Y-96658511D01*
X135853940Y-96641175D01*
X135854423Y-96640805D01*
X135863543Y-96653835D01*
G36*
X155414630Y-100147235D02*
G01*
X155416230Y-100262139D01*
X155411653Y-100342699D01*
X155405172Y-100486889D01*
X155400899Y-100707787D01*
X155398837Y-100980525D01*
X155398990Y-101280236D01*
X155401361Y-101582051D01*
X155405952Y-101861102D01*
X155411437Y-102057200D01*
X155407947Y-102227355D01*
X155391013Y-102436731D01*
X155376878Y-102551007D01*
X155356209Y-102716198D01*
X155359116Y-102810117D01*
X155392133Y-102861649D01*
X155455033Y-102896599D01*
X155614522Y-103020483D01*
X155758041Y-103239739D01*
X155886985Y-103556699D01*
X155926479Y-103682800D01*
X156077201Y-104321192D01*
X156144288Y-104926277D01*
X156133352Y-105419724D01*
X156112354Y-105670716D01*
X156094383Y-105927472D01*
X156082801Y-106141100D01*
X156081627Y-106172000D01*
X156042092Y-106644818D01*
X155959125Y-107029206D01*
X155926333Y-107125528D01*
X155878993Y-107281127D01*
X155855099Y-107417520D01*
X155854400Y-107435923D01*
X155833586Y-107532287D01*
X155777707Y-107692991D01*
X155696604Y-107891240D01*
X155644892Y-108006395D01*
X155545744Y-108227986D01*
X155448220Y-108459466D01*
X155361005Y-108678592D01*
X155292782Y-108863119D01*
X155252234Y-108990803D01*
X155244800Y-109031297D01*
X155290752Y-109044555D01*
X155417156Y-109032949D01*
X155606828Y-108999733D01*
X155842588Y-108948157D01*
X156107254Y-108881474D01*
X156260747Y-108839014D01*
X156624065Y-108720260D01*
X156905247Y-108593325D01*
X157062051Y-108496262D01*
X157233778Y-108377538D01*
X157399085Y-108267964D01*
X157494527Y-108208098D01*
X157622704Y-108122976D01*
X157788113Y-108001960D01*
X157920767Y-107898475D01*
X158074307Y-107791889D01*
X158303902Y-107654774D01*
X158591877Y-107495817D01*
X158920559Y-107323705D01*
X159272276Y-107147124D01*
X159629354Y-106974760D01*
X159974119Y-106815300D01*
X160288900Y-106677431D01*
X160556022Y-106569839D01*
X160757812Y-106501210D01*
X160771019Y-106497551D01*
X160989564Y-106445165D01*
X161149097Y-106420752D01*
X161232350Y-106426807D01*
X161236966Y-106430259D01*
X161275498Y-106508034D01*
X161311525Y-106638636D01*
X161316178Y-106662385D01*
X161330654Y-106775966D01*
X161308075Y-106849577D01*
X161229006Y-106915810D01*
X161129631Y-106975242D01*
X160939837Y-107071530D01*
X160726322Y-107161574D01*
X160655024Y-107187057D01*
X160476573Y-107252909D01*
X160255460Y-107343396D01*
X160045424Y-107436271D01*
X159854955Y-107523958D01*
X159685075Y-107601279D01*
X159569870Y-107652729D01*
X159562800Y-107655798D01*
X159484342Y-107700492D01*
X159499394Y-107730482D01*
X159512000Y-107735094D01*
X159656599Y-107770442D01*
X159871224Y-107809800D01*
X160124667Y-107848576D01*
X160385716Y-107882180D01*
X160623165Y-107906021D01*
X160718500Y-107912588D01*
X160933466Y-107931706D01*
X161053847Y-107961297D01*
X161086800Y-107997467D01*
X161039193Y-108037162D01*
X160908806Y-108070463D01*
X160714289Y-108096851D01*
X160474292Y-108115811D01*
X160207465Y-108126824D01*
X159932457Y-108129374D01*
X159667918Y-108122942D01*
X159432498Y-108107013D01*
X159244847Y-108081069D01*
X159138596Y-108051499D01*
X159009833Y-108006111D01*
X158917541Y-108009778D01*
X158807676Y-108065404D01*
X158800635Y-108069673D01*
X158682992Y-108153732D01*
X158527994Y-108280690D01*
X158380143Y-108413007D01*
X158218936Y-108558842D01*
X158060345Y-108693416D01*
X157949133Y-108779839D01*
X157818501Y-108896548D01*
X157717065Y-109026955D01*
X157708233Y-109042908D01*
X157678226Y-109103089D01*
X157666174Y-109149298D01*
X157683413Y-109184284D01*
X157741277Y-109210794D01*
X157851102Y-109231577D01*
X158024222Y-109249380D01*
X158271973Y-109266953D01*
X158605690Y-109287042D01*
X158750000Y-109295475D01*
X159080030Y-109316732D01*
X159403968Y-109341102D01*
X159696553Y-109366433D01*
X159932529Y-109390574D01*
X160060572Y-109407122D01*
X160431345Y-109463818D01*
X160416172Y-109697509D01*
X160401000Y-109931200D01*
X159907090Y-109914770D01*
X159582484Y-109916886D01*
X159225696Y-109939531D01*
X158916490Y-109976439D01*
X158564324Y-110016702D01*
X158121687Y-110041677D01*
X157598632Y-110050844D01*
X157480000Y-110050714D01*
X157138412Y-110049305D01*
X156792120Y-110047842D01*
X156469824Y-110046450D01*
X156200226Y-110045251D01*
X156057600Y-110044591D01*
X155775929Y-110047970D01*
X155466910Y-110059001D01*
X155189021Y-110075468D01*
X155141352Y-110079301D01*
X154707704Y-110116312D01*
X154436093Y-110848645D01*
X154310058Y-111179159D01*
X154209834Y-111419011D01*
X154131634Y-111574731D01*
X154071671Y-111652849D01*
X154026160Y-111659895D01*
X153994306Y-111610560D01*
X153963810Y-111568881D01*
X153919331Y-111602394D01*
X153867452Y-111681039D01*
X153773524Y-111803794D01*
X153700692Y-111830721D01*
X153655726Y-111772700D01*
X153613557Y-111760037D01*
X153532836Y-111834239D01*
X153520806Y-111848900D01*
X153380500Y-111963052D01*
X153224664Y-111977060D01*
X153055363Y-111890846D01*
X153027222Y-111867795D01*
X152917664Y-111790335D01*
X152836433Y-111783627D01*
X152798924Y-111801857D01*
X152677673Y-111823001D01*
X152541738Y-111760945D01*
X152412679Y-111627404D01*
X152376991Y-111572568D01*
X152305392Y-111475487D01*
X152256274Y-111469952D01*
X152246517Y-111482352D01*
X152175793Y-111524245D01*
X152084171Y-111483910D01*
X151992005Y-111371967D01*
X151974528Y-111340438D01*
X151927752Y-111228036D01*
X151865024Y-111047895D01*
X151796634Y-110830430D01*
X151763055Y-110715524D01*
X151700409Y-110505533D01*
X151643076Y-110331837D01*
X151599210Y-110218265D01*
X151582882Y-110189039D01*
X151521795Y-110175452D01*
X151373573Y-110162323D01*
X151152685Y-110150332D01*
X150873595Y-110140161D01*
X150550771Y-110132488D01*
X150305799Y-110128962D01*
X149898804Y-110122234D01*
X149462625Y-110110819D01*
X149014394Y-110095531D01*
X148571244Y-110077183D01*
X148150308Y-110056589D01*
X147768716Y-110034562D01*
X147443602Y-110011916D01*
X147192098Y-109989464D01*
X147078700Y-109975720D01*
X146913600Y-109951996D01*
X146913600Y-108929063D01*
X147129500Y-108959463D01*
X147254297Y-108971755D01*
X147468842Y-108986848D01*
X147761341Y-109004165D01*
X148119998Y-109023129D01*
X148533017Y-109043164D01*
X148988603Y-109063691D01*
X149474961Y-109084135D01*
X149980295Y-109103919D01*
X150385789Y-109118723D01*
X150665888Y-109126381D01*
X150905118Y-109128651D01*
X151087461Y-109125733D01*
X151196898Y-109117829D01*
X151221310Y-109108267D01*
X151189296Y-109040011D01*
X151133312Y-108917110D01*
X151109562Y-108864400D01*
X151034955Y-108716929D01*
X150961216Y-108599155D01*
X150943555Y-108577038D01*
X150890051Y-108482902D01*
X150830590Y-108328573D01*
X150792805Y-108201747D01*
X150739454Y-108022973D01*
X150682592Y-107870957D01*
X150648962Y-107803308D01*
X150605322Y-107703766D01*
X150547167Y-107529282D01*
X150481367Y-107304238D01*
X150414791Y-107053017D01*
X150354309Y-106800000D01*
X150318155Y-106629200D01*
X150300409Y-106508766D01*
X150277711Y-106309797D01*
X150252389Y-106055094D01*
X150226770Y-105767461D01*
X150213217Y-105601209D01*
X150187237Y-105228901D01*
X150177021Y-104931561D01*
X150185383Y-104683387D01*
X150215137Y-104458575D01*
X150269097Y-104231322D01*
X150350077Y-103975825D01*
X150408586Y-103809937D01*
X150520062Y-103545928D01*
X150651035Y-103338861D01*
X150788129Y-103184188D01*
X150915623Y-103052314D01*
X150983707Y-102962821D01*
X151004569Y-102886009D01*
X150990401Y-102792178D01*
X150974279Y-102730669D01*
X150942423Y-102554661D01*
X150925324Y-102340045D01*
X150923165Y-102120476D01*
X150936127Y-101929609D01*
X150964389Y-101801100D01*
X150969221Y-101790682D01*
X151018000Y-101648368D01*
X151031763Y-101567428D01*
X151646715Y-101567428D01*
X151659285Y-101676748D01*
X151686691Y-101819413D01*
X151723020Y-101963075D01*
X151750456Y-102046552D01*
X151858765Y-102200453D01*
X152029169Y-102297547D01*
X152235925Y-102332085D01*
X152453289Y-102298319D01*
X152592205Y-102234519D01*
X152742592Y-102117148D01*
X152792957Y-102014530D01*
X153732286Y-102014530D01*
X153794579Y-102109361D01*
X153869292Y-102188107D01*
X154053454Y-102309250D01*
X154266036Y-102332885D01*
X154506855Y-102258997D01*
X154529795Y-102247621D01*
X154686693Y-102147680D01*
X154764653Y-102032776D01*
X154778793Y-101871845D01*
X154766255Y-101761736D01*
X154742433Y-101620400D01*
X154715746Y-101561846D01*
X154668502Y-101568342D01*
X154609634Y-101604779D01*
X154508283Y-101721000D01*
X154472928Y-101870689D01*
X154451582Y-101997296D01*
X154399525Y-102054904D01*
X154316927Y-102073348D01*
X154170335Y-102050028D01*
X154065388Y-101964803D01*
X153974189Y-101882211D01*
X153892281Y-101872977D01*
X153837560Y-101893308D01*
X153747335Y-101949215D01*
X153732286Y-102014530D01*
X152792957Y-102014530D01*
X152795465Y-102009421D01*
X152749573Y-101914425D01*
X152728744Y-101897453D01*
X152620361Y-101836587D01*
X152549048Y-101859279D01*
X152492356Y-101955600D01*
X152400926Y-102061489D01*
X152317624Y-102082600D01*
X152195254Y-102045111D01*
X152084747Y-101954016D01*
X152016878Y-101841366D01*
X152011881Y-101764177D01*
X151998024Y-101687466D01*
X151901814Y-101619357D01*
X151855947Y-101598823D01*
X151735277Y-101550526D01*
X151661592Y-101524999D01*
X151654894Y-101523800D01*
X151646715Y-101567428D01*
X151031763Y-101567428D01*
X151048908Y-101466605D01*
X151058129Y-101286611D01*
X151041848Y-101149605D01*
X151031094Y-101122433D01*
X151002703Y-100990507D01*
X151026220Y-100787503D01*
X151028256Y-100777599D01*
X151053658Y-100571833D01*
X151027898Y-100393684D01*
X151007532Y-100330000D01*
X150967584Y-100200937D01*
X150952592Y-100118870D01*
X150955118Y-100107262D01*
X151012090Y-100109512D01*
X151113268Y-100145631D01*
X151216122Y-100196575D01*
X151278123Y-100243303D01*
X151282400Y-100253800D01*
X151331844Y-100301820D01*
X151476261Y-100360049D01*
X151709780Y-100426343D01*
X151841200Y-100457965D01*
X152057137Y-100519436D01*
X152290537Y-100602993D01*
X152394576Y-100646886D01*
X152535667Y-100706454D01*
X152656501Y-100740279D01*
X152790202Y-100752326D01*
X152969894Y-100746563D01*
X153129788Y-100734928D01*
X153491576Y-100687857D01*
X153843730Y-100599128D01*
X154075011Y-100520126D01*
X154284554Y-100445601D01*
X154523955Y-100364635D01*
X154771444Y-100284083D01*
X155005247Y-100210799D01*
X155203592Y-100151637D01*
X155344707Y-100113453D01*
X155401107Y-100102638D01*
X155414630Y-100147235D01*
X155414630Y-100147235D01*
G37*
X155414630Y-100147235D02*
X155416230Y-100262139D01*
X155411653Y-100342699D01*
X155405172Y-100486889D01*
X155400899Y-100707787D01*
X155398837Y-100980525D01*
X155398990Y-101280236D01*
X155401361Y-101582051D01*
X155405952Y-101861102D01*
X155411437Y-102057200D01*
X155407947Y-102227355D01*
X155391013Y-102436731D01*
X155376878Y-102551007D01*
X155356209Y-102716198D01*
X155359116Y-102810117D01*
X155392133Y-102861649D01*
X155455033Y-102896599D01*
X155614522Y-103020483D01*
X155758041Y-103239739D01*
X155886985Y-103556699D01*
X155926479Y-103682800D01*
X156077201Y-104321192D01*
X156144288Y-104926277D01*
X156133352Y-105419724D01*
X156112354Y-105670716D01*
X156094383Y-105927472D01*
X156082801Y-106141100D01*
X156081627Y-106172000D01*
X156042092Y-106644818D01*
X155959125Y-107029206D01*
X155926333Y-107125528D01*
X155878993Y-107281127D01*
X155855099Y-107417520D01*
X155854400Y-107435923D01*
X155833586Y-107532287D01*
X155777707Y-107692991D01*
X155696604Y-107891240D01*
X155644892Y-108006395D01*
X155545744Y-108227986D01*
X155448220Y-108459466D01*
X155361005Y-108678592D01*
X155292782Y-108863119D01*
X155252234Y-108990803D01*
X155244800Y-109031297D01*
X155290752Y-109044555D01*
X155417156Y-109032949D01*
X155606828Y-108999733D01*
X155842588Y-108948157D01*
X156107254Y-108881474D01*
X156260747Y-108839014D01*
X156624065Y-108720260D01*
X156905247Y-108593325D01*
X157062051Y-108496262D01*
X157233778Y-108377538D01*
X157399085Y-108267964D01*
X157494527Y-108208098D01*
X157622704Y-108122976D01*
X157788113Y-108001960D01*
X157920767Y-107898475D01*
X158074307Y-107791889D01*
X158303902Y-107654774D01*
X158591877Y-107495817D01*
X158920559Y-107323705D01*
X159272276Y-107147124D01*
X159629354Y-106974760D01*
X159974119Y-106815300D01*
X160288900Y-106677431D01*
X160556022Y-106569839D01*
X160757812Y-106501210D01*
X160771019Y-106497551D01*
X160989564Y-106445165D01*
X161149097Y-106420752D01*
X161232350Y-106426807D01*
X161236966Y-106430259D01*
X161275498Y-106508034D01*
X161311525Y-106638636D01*
X161316178Y-106662385D01*
X161330654Y-106775966D01*
X161308075Y-106849577D01*
X161229006Y-106915810D01*
X161129631Y-106975242D01*
X160939837Y-107071530D01*
X160726322Y-107161574D01*
X160655024Y-107187057D01*
X160476573Y-107252909D01*
X160255460Y-107343396D01*
X160045424Y-107436271D01*
X159854955Y-107523958D01*
X159685075Y-107601279D01*
X159569870Y-107652729D01*
X159562800Y-107655798D01*
X159484342Y-107700492D01*
X159499394Y-107730482D01*
X159512000Y-107735094D01*
X159656599Y-107770442D01*
X159871224Y-107809800D01*
X160124667Y-107848576D01*
X160385716Y-107882180D01*
X160623165Y-107906021D01*
X160718500Y-107912588D01*
X160933466Y-107931706D01*
X161053847Y-107961297D01*
X161086800Y-107997467D01*
X161039193Y-108037162D01*
X160908806Y-108070463D01*
X160714289Y-108096851D01*
X160474292Y-108115811D01*
X160207465Y-108126824D01*
X159932457Y-108129374D01*
X159667918Y-108122942D01*
X159432498Y-108107013D01*
X159244847Y-108081069D01*
X159138596Y-108051499D01*
X159009833Y-108006111D01*
X158917541Y-108009778D01*
X158807676Y-108065404D01*
X158800635Y-108069673D01*
X158682992Y-108153732D01*
X158527994Y-108280690D01*
X158380143Y-108413007D01*
X158218936Y-108558842D01*
X158060345Y-108693416D01*
X157949133Y-108779839D01*
X157818501Y-108896548D01*
X157717065Y-109026955D01*
X157708233Y-109042908D01*
X157678226Y-109103089D01*
X157666174Y-109149298D01*
X157683413Y-109184284D01*
X157741277Y-109210794D01*
X157851102Y-109231577D01*
X158024222Y-109249380D01*
X158271973Y-109266953D01*
X158605690Y-109287042D01*
X158750000Y-109295475D01*
X159080030Y-109316732D01*
X159403968Y-109341102D01*
X159696553Y-109366433D01*
X159932529Y-109390574D01*
X160060572Y-109407122D01*
X160431345Y-109463818D01*
X160416172Y-109697509D01*
X160401000Y-109931200D01*
X159907090Y-109914770D01*
X159582484Y-109916886D01*
X159225696Y-109939531D01*
X158916490Y-109976439D01*
X158564324Y-110016702D01*
X158121687Y-110041677D01*
X157598632Y-110050844D01*
X157480000Y-110050714D01*
X157138412Y-110049305D01*
X156792120Y-110047842D01*
X156469824Y-110046450D01*
X156200226Y-110045251D01*
X156057600Y-110044591D01*
X155775929Y-110047970D01*
X155466910Y-110059001D01*
X155189021Y-110075468D01*
X155141352Y-110079301D01*
X154707704Y-110116312D01*
X154436093Y-110848645D01*
X154310058Y-111179159D01*
X154209834Y-111419011D01*
X154131634Y-111574731D01*
X154071671Y-111652849D01*
X154026160Y-111659895D01*
X153994306Y-111610560D01*
X153963810Y-111568881D01*
X153919331Y-111602394D01*
X153867452Y-111681039D01*
X153773524Y-111803794D01*
X153700692Y-111830721D01*
X153655726Y-111772700D01*
X153613557Y-111760037D01*
X153532836Y-111834239D01*
X153520806Y-111848900D01*
X153380500Y-111963052D01*
X153224664Y-111977060D01*
X153055363Y-111890846D01*
X153027222Y-111867795D01*
X152917664Y-111790335D01*
X152836433Y-111783627D01*
X152798924Y-111801857D01*
X152677673Y-111823001D01*
X152541738Y-111760945D01*
X152412679Y-111627404D01*
X152376991Y-111572568D01*
X152305392Y-111475487D01*
X152256274Y-111469952D01*
X152246517Y-111482352D01*
X152175793Y-111524245D01*
X152084171Y-111483910D01*
X151992005Y-111371967D01*
X151974528Y-111340438D01*
X151927752Y-111228036D01*
X151865024Y-111047895D01*
X151796634Y-110830430D01*
X151763055Y-110715524D01*
X151700409Y-110505533D01*
X151643076Y-110331837D01*
X151599210Y-110218265D01*
X151582882Y-110189039D01*
X151521795Y-110175452D01*
X151373573Y-110162323D01*
X151152685Y-110150332D01*
X150873595Y-110140161D01*
X150550771Y-110132488D01*
X150305799Y-110128962D01*
X149898804Y-110122234D01*
X149462625Y-110110819D01*
X149014394Y-110095531D01*
X148571244Y-110077183D01*
X148150308Y-110056589D01*
X147768716Y-110034562D01*
X147443602Y-110011916D01*
X147192098Y-109989464D01*
X147078700Y-109975720D01*
X146913600Y-109951996D01*
X146913600Y-108929063D01*
X147129500Y-108959463D01*
X147254297Y-108971755D01*
X147468842Y-108986848D01*
X147761341Y-109004165D01*
X148119998Y-109023129D01*
X148533017Y-109043164D01*
X148988603Y-109063691D01*
X149474961Y-109084135D01*
X149980295Y-109103919D01*
X150385789Y-109118723D01*
X150665888Y-109126381D01*
X150905118Y-109128651D01*
X151087461Y-109125733D01*
X151196898Y-109117829D01*
X151221310Y-109108267D01*
X151189296Y-109040011D01*
X151133312Y-108917110D01*
X151109562Y-108864400D01*
X151034955Y-108716929D01*
X150961216Y-108599155D01*
X150943555Y-108577038D01*
X150890051Y-108482902D01*
X150830590Y-108328573D01*
X150792805Y-108201747D01*
X150739454Y-108022973D01*
X150682592Y-107870957D01*
X150648962Y-107803308D01*
X150605322Y-107703766D01*
X150547167Y-107529282D01*
X150481367Y-107304238D01*
X150414791Y-107053017D01*
X150354309Y-106800000D01*
X150318155Y-106629200D01*
X150300409Y-106508766D01*
X150277711Y-106309797D01*
X150252389Y-106055094D01*
X150226770Y-105767461D01*
X150213217Y-105601209D01*
X150187237Y-105228901D01*
X150177021Y-104931561D01*
X150185383Y-104683387D01*
X150215137Y-104458575D01*
X150269097Y-104231322D01*
X150350077Y-103975825D01*
X150408586Y-103809937D01*
X150520062Y-103545928D01*
X150651035Y-103338861D01*
X150788129Y-103184188D01*
X150915623Y-103052314D01*
X150983707Y-102962821D01*
X151004569Y-102886009D01*
X150990401Y-102792178D01*
X150974279Y-102730669D01*
X150942423Y-102554661D01*
X150925324Y-102340045D01*
X150923165Y-102120476D01*
X150936127Y-101929609D01*
X150964389Y-101801100D01*
X150969221Y-101790682D01*
X151018000Y-101648368D01*
X151031763Y-101567428D01*
X151646715Y-101567428D01*
X151659285Y-101676748D01*
X151686691Y-101819413D01*
X151723020Y-101963075D01*
X151750456Y-102046552D01*
X151858765Y-102200453D01*
X152029169Y-102297547D01*
X152235925Y-102332085D01*
X152453289Y-102298319D01*
X152592205Y-102234519D01*
X152742592Y-102117148D01*
X152792957Y-102014530D01*
X153732286Y-102014530D01*
X153794579Y-102109361D01*
X153869292Y-102188107D01*
X154053454Y-102309250D01*
X154266036Y-102332885D01*
X154506855Y-102258997D01*
X154529795Y-102247621D01*
X154686693Y-102147680D01*
X154764653Y-102032776D01*
X154778793Y-101871845D01*
X154766255Y-101761736D01*
X154742433Y-101620400D01*
X154715746Y-101561846D01*
X154668502Y-101568342D01*
X154609634Y-101604779D01*
X154508283Y-101721000D01*
X154472928Y-101870689D01*
X154451582Y-101997296D01*
X154399525Y-102054904D01*
X154316927Y-102073348D01*
X154170335Y-102050028D01*
X154065388Y-101964803D01*
X153974189Y-101882211D01*
X153892281Y-101872977D01*
X153837560Y-101893308D01*
X153747335Y-101949215D01*
X153732286Y-102014530D01*
X152792957Y-102014530D01*
X152795465Y-102009421D01*
X152749573Y-101914425D01*
X152728744Y-101897453D01*
X152620361Y-101836587D01*
X152549048Y-101859279D01*
X152492356Y-101955600D01*
X152400926Y-102061489D01*
X152317624Y-102082600D01*
X152195254Y-102045111D01*
X152084747Y-101954016D01*
X152016878Y-101841366D01*
X152011881Y-101764177D01*
X151998024Y-101687466D01*
X151901814Y-101619357D01*
X151855947Y-101598823D01*
X151735277Y-101550526D01*
X151661592Y-101524999D01*
X151654894Y-101523800D01*
X151646715Y-101567428D01*
X151031763Y-101567428D01*
X151048908Y-101466605D01*
X151058129Y-101286611D01*
X151041848Y-101149605D01*
X151031094Y-101122433D01*
X151002703Y-100990507D01*
X151026220Y-100787503D01*
X151028256Y-100777599D01*
X151053658Y-100571833D01*
X151027898Y-100393684D01*
X151007532Y-100330000D01*
X150967584Y-100200937D01*
X150952592Y-100118870D01*
X150955118Y-100107262D01*
X151012090Y-100109512D01*
X151113268Y-100145631D01*
X151216122Y-100196575D01*
X151278123Y-100243303D01*
X151282400Y-100253800D01*
X151331844Y-100301820D01*
X151476261Y-100360049D01*
X151709780Y-100426343D01*
X151841200Y-100457965D01*
X152057137Y-100519436D01*
X152290537Y-100602993D01*
X152394576Y-100646886D01*
X152535667Y-100706454D01*
X152656501Y-100740279D01*
X152790202Y-100752326D01*
X152969894Y-100746563D01*
X153129788Y-100734928D01*
X153491576Y-100687857D01*
X153843730Y-100599128D01*
X154075011Y-100520126D01*
X154284554Y-100445601D01*
X154523955Y-100364635D01*
X154771444Y-100284083D01*
X155005247Y-100210799D01*
X155203592Y-100151637D01*
X155344707Y-100113453D01*
X155401107Y-100102638D01*
X155414630Y-100147235D01*
G36*
X160163770Y-110299807D02*
G01*
X160238557Y-110421733D01*
X160292855Y-110578198D01*
X160299282Y-110608839D01*
X160317400Y-110747505D01*
X160295144Y-110797181D01*
X160222191Y-110765929D01*
X160158655Y-110718692D01*
X160056796Y-110600728D01*
X159994641Y-110456532D01*
X159982778Y-110321757D01*
X160017603Y-110243679D01*
X160084712Y-110233447D01*
X160163770Y-110299807D01*
X160163770Y-110299807D01*
G37*
X160163770Y-110299807D02*
X160238557Y-110421733D01*
X160292855Y-110578198D01*
X160299282Y-110608839D01*
X160317400Y-110747505D01*
X160295144Y-110797181D01*
X160222191Y-110765929D01*
X160158655Y-110718692D01*
X160056796Y-110600728D01*
X159994641Y-110456532D01*
X159982778Y-110321757D01*
X160017603Y-110243679D01*
X160084712Y-110233447D01*
X160163770Y-110299807D01*
G36*
X160917423Y-110031217D02*
G01*
X161071105Y-110102309D01*
X161210610Y-110204482D01*
X161309175Y-110322381D01*
X161340800Y-110425980D01*
X161334408Y-110485314D01*
X161301149Y-110506198D01*
X161219892Y-110488121D01*
X161069509Y-110430573D01*
X161040208Y-110418717D01*
X160871758Y-110331670D01*
X160741926Y-110229939D01*
X160667913Y-110131168D01*
X160666925Y-110053002D01*
X160674577Y-110043702D01*
X160776326Y-110006563D01*
X160917423Y-110031217D01*
X160917423Y-110031217D01*
G37*
X160917423Y-110031217D02*
X161071105Y-110102309D01*
X161210610Y-110204482D01*
X161309175Y-110322381D01*
X161340800Y-110425980D01*
X161334408Y-110485314D01*
X161301149Y-110506198D01*
X161219892Y-110488121D01*
X161069509Y-110430573D01*
X161040208Y-110418717D01*
X160871758Y-110331670D01*
X160741926Y-110229939D01*
X160667913Y-110131168D01*
X160666925Y-110053002D01*
X160674577Y-110043702D01*
X160776326Y-110006563D01*
X160917423Y-110031217D01*
G36*
X160739413Y-108706295D02*
G01*
X160813939Y-108760492D01*
X160798029Y-108841854D01*
X160692757Y-108943044D01*
X160520722Y-109045912D01*
X160329322Y-109124633D01*
X160195574Y-109138972D01*
X160128103Y-109088851D01*
X160121600Y-109049617D01*
X160154552Y-108950415D01*
X160235006Y-108833445D01*
X160246174Y-108821017D01*
X160374022Y-108721473D01*
X160533597Y-108687413D01*
X160573376Y-108686600D01*
X160739413Y-108706295D01*
X160739413Y-108706295D01*
G37*
X160739413Y-108706295D02*
X160813939Y-108760492D01*
X160798029Y-108841854D01*
X160692757Y-108943044D01*
X160520722Y-109045912D01*
X160329322Y-109124633D01*
X160195574Y-109138972D01*
X160128103Y-109088851D01*
X160121600Y-109049617D01*
X160154552Y-108950415D01*
X160235006Y-108833445D01*
X160246174Y-108821017D01*
X160374022Y-108721473D01*
X160533597Y-108687413D01*
X160573376Y-108686600D01*
X160739413Y-108706295D01*
G36*
X149878954Y-108598661D02*
G01*
X149910800Y-108651695D01*
X149879088Y-108725424D01*
X149802634Y-108818848D01*
X149709458Y-108905211D01*
X149627581Y-108957755D01*
X149589777Y-108958244D01*
X149553980Y-108861302D01*
X149573998Y-108739863D01*
X149639397Y-108646464D01*
X149653460Y-108637587D01*
X149784441Y-108590548D01*
X149878954Y-108598661D01*
X149878954Y-108598661D01*
G37*
X149878954Y-108598661D02*
X149910800Y-108651695D01*
X149879088Y-108725424D01*
X149802634Y-108818848D01*
X149709458Y-108905211D01*
X149627581Y-108957755D01*
X149589777Y-108958244D01*
X149553980Y-108861302D01*
X149573998Y-108739863D01*
X149639397Y-108646464D01*
X149653460Y-108637587D01*
X149784441Y-108590548D01*
X149878954Y-108598661D01*
G36*
X149623616Y-108192528D02*
G01*
X149637531Y-108254455D01*
X149624677Y-108318300D01*
X149578843Y-108433553D01*
X149497258Y-108584609D01*
X149400807Y-108737804D01*
X149310376Y-108859473D01*
X149256828Y-108911227D01*
X149188767Y-108911384D01*
X149181285Y-108905352D01*
X149160944Y-108838301D01*
X149149628Y-108710298D01*
X149148800Y-108662237D01*
X149169473Y-108491295D01*
X149246480Y-108361380D01*
X149291279Y-108315104D01*
X149413015Y-108225270D01*
X149529210Y-108179926D01*
X149546247Y-108178600D01*
X149623616Y-108192528D01*
X149623616Y-108192528D01*
G37*
X149623616Y-108192528D02*
X149637531Y-108254455D01*
X149624677Y-108318300D01*
X149578843Y-108433553D01*
X149497258Y-108584609D01*
X149400807Y-108737804D01*
X149310376Y-108859473D01*
X149256828Y-108911227D01*
X149188767Y-108911384D01*
X149181285Y-108905352D01*
X149160944Y-108838301D01*
X149149628Y-108710298D01*
X149148800Y-108662237D01*
X149169473Y-108491295D01*
X149246480Y-108361380D01*
X149291279Y-108315104D01*
X149413015Y-108225270D01*
X149529210Y-108179926D01*
X149546247Y-108178600D01*
X149623616Y-108192528D01*
G36*
X161417073Y-107190988D02*
G01*
X161537806Y-107261805D01*
X161655227Y-107353529D01*
X161742512Y-107444640D01*
X161772840Y-107513617D01*
X161769437Y-107523317D01*
X161693197Y-107560752D01*
X161556825Y-107561400D01*
X161394090Y-107527278D01*
X161308798Y-107495828D01*
X161189559Y-107432239D01*
X161116144Y-107371897D01*
X161113925Y-107368591D01*
X161110315Y-107284087D01*
X161178359Y-107206763D01*
X161290232Y-107164452D01*
X161319852Y-107162600D01*
X161417073Y-107190988D01*
X161417073Y-107190988D01*
G37*
X161417073Y-107190988D02*
X161537806Y-107261805D01*
X161655227Y-107353529D01*
X161742512Y-107444640D01*
X161772840Y-107513617D01*
X161769437Y-107523317D01*
X161693197Y-107560752D01*
X161556825Y-107561400D01*
X161394090Y-107527278D01*
X161308798Y-107495828D01*
X161189559Y-107432239D01*
X161116144Y-107371897D01*
X161113925Y-107368591D01*
X161110315Y-107284087D01*
X161178359Y-107206763D01*
X161290232Y-107164452D01*
X161319852Y-107162600D01*
X161417073Y-107190988D01*
G36*
X159094321Y-106418035D02*
G01*
X159096698Y-106534035D01*
X159036275Y-106722931D01*
X159005368Y-106794300D01*
X158911522Y-106951139D01*
X158817882Y-107006785D01*
X158723632Y-106961636D01*
X158705465Y-106941549D01*
X158679722Y-106840926D01*
X158706681Y-106700087D01*
X158772499Y-106555591D01*
X158863334Y-106443998D01*
X158904292Y-106416397D01*
X159029925Y-106377849D01*
X159094321Y-106418035D01*
X159094321Y-106418035D01*
G37*
X159094321Y-106418035D02*
X159096698Y-106534035D01*
X159036275Y-106722931D01*
X159005368Y-106794300D01*
X158911522Y-106951139D01*
X158817882Y-107006785D01*
X158723632Y-106961636D01*
X158705465Y-106941549D01*
X158679722Y-106840926D01*
X158706681Y-106700087D01*
X158772499Y-106555591D01*
X158863334Y-106443998D01*
X158904292Y-106416397D01*
X159029925Y-106377849D01*
X159094321Y-106418035D01*
G36*
X159385829Y-106001836D02*
G01*
X159465600Y-106055569D01*
X159551701Y-106167315D01*
X159572854Y-106204888D01*
X159629047Y-106361212D01*
X159638151Y-106500112D01*
X159608238Y-106603270D01*
X159547378Y-106652373D01*
X159463643Y-106629104D01*
X159409001Y-106576714D01*
X159366542Y-106482378D01*
X159331330Y-106330167D01*
X159319631Y-106241451D01*
X159309162Y-106090211D01*
X159319933Y-106016735D01*
X159358224Y-105998291D01*
X159385829Y-106001836D01*
X159385829Y-106001836D01*
G37*
X159385829Y-106001836D02*
X159465600Y-106055569D01*
X159551701Y-106167315D01*
X159572854Y-106204888D01*
X159629047Y-106361212D01*
X159638151Y-106500112D01*
X159608238Y-106603270D01*
X159547378Y-106652373D01*
X159463643Y-106629104D01*
X159409001Y-106576714D01*
X159366542Y-106482378D01*
X159331330Y-106330167D01*
X159319631Y-106241451D01*
X159309162Y-106090211D01*
X159319933Y-106016735D01*
X159358224Y-105998291D01*
X159385829Y-106001836D01*
G36*
X160246228Y-105898158D02*
G01*
X160272212Y-105940060D01*
X160322366Y-106132935D01*
X160275812Y-106326820D01*
X160204022Y-106433747D01*
X160083244Y-106574159D01*
X160047464Y-106314009D01*
X160038090Y-106121450D01*
X160061668Y-105969629D01*
X160109809Y-105872503D01*
X160174125Y-105844027D01*
X160246228Y-105898158D01*
X160246228Y-105898158D01*
G37*
X160246228Y-105898158D02*
X160272212Y-105940060D01*
X160322366Y-106132935D01*
X160275812Y-106326820D01*
X160204022Y-106433747D01*
X160083244Y-106574159D01*
X160047464Y-106314009D01*
X160038090Y-106121450D01*
X160061668Y-105969629D01*
X160109809Y-105872503D01*
X160174125Y-105844027D01*
X160246228Y-105898158D01*
D12*
X149795000Y-90250500D02*
X151195000Y-90250500D01*
X151195000Y-87930500D02*
X149295000Y-87930500D01*
X149795000Y-82948000D02*
X151195000Y-82948000D01*
X151195000Y-80628000D02*
X149295000Y-80628000D01*
D10*
X139082000Y-104062000D02*
X139082000Y-104852000D01*
X145382000Y-104062000D02*
X145382000Y-104852000D01*
X145382000Y-110362000D02*
X145382000Y-109572000D01*
X139082000Y-110362000D02*
X139082000Y-109572000D01*
X145382000Y-104062000D02*
X144592000Y-104062000D01*
X145382000Y-110362000D02*
X144592000Y-110362000D01*
X139082000Y-104062000D02*
X139872000Y-104062000D01*
D12*
X153979500Y-90469000D02*
X152979500Y-90469000D01*
X152979500Y-89109000D02*
X153979500Y-89109000D01*
X153979500Y-83166500D02*
X152979500Y-83166500D01*
X152979500Y-81806500D02*
X153979500Y-81806500D01*
X148762000Y-89987500D02*
X148762000Y-90987500D01*
X147402000Y-90987500D02*
X147402000Y-89987500D01*
X147402000Y-83304000D02*
X147402000Y-82304000D01*
X148762000Y-82304000D02*
X148762000Y-83304000D01*
X154970000Y-88828500D02*
X152870000Y-88828500D01*
X154970000Y-87828500D02*
X152870000Y-87828500D01*
X154970000Y-88828500D02*
X154970000Y-87828500D01*
X154970000Y-81526000D02*
X152870000Y-81526000D01*
X154970000Y-80526000D02*
X152870000Y-80526000D01*
X154970000Y-81526000D02*
X154970000Y-80526000D01*
X150845000Y-91849500D02*
X150145000Y-91849500D01*
X150145000Y-90649500D02*
X150845000Y-90649500D01*
X150845000Y-84547000D02*
X150145000Y-84547000D01*
X150145000Y-83347000D02*
X150845000Y-83347000D01*
X142842500Y-101000000D02*
X143542500Y-101000000D01*
X143542500Y-102200000D02*
X142842500Y-102200000D01*
X142842500Y-99603000D02*
X143542500Y-99603000D01*
X143542500Y-100803000D02*
X142842500Y-100803000D01*
X142842500Y-98206000D02*
X143542500Y-98206000D01*
X143542500Y-99406000D02*
X142842500Y-99406000D01*
X125521000Y-105448000D02*
X125521000Y-106448000D01*
X124161000Y-106448000D02*
X124161000Y-105448000D01*
X125521000Y-98448000D02*
X125521000Y-99448000D01*
X124161000Y-99448000D02*
X124161000Y-98448000D01*
X129478000Y-104026000D02*
X127578000Y-104026000D01*
X128078000Y-106346000D02*
X129478000Y-106346000D01*
X129478000Y-97026000D02*
X127578000Y-97026000D01*
X128078000Y-99346000D02*
X129478000Y-99346000D01*
X127045000Y-105448000D02*
X127045000Y-106448000D01*
X125685000Y-106448000D02*
X125685000Y-105448000D01*
X127045000Y-98448000D02*
X127045000Y-99448000D01*
X125685000Y-99448000D02*
X125685000Y-98448000D01*
X129128000Y-108072000D02*
X128428000Y-108072000D01*
X128428000Y-106872000D02*
X129128000Y-106872000D01*
X129128000Y-101072000D02*
X128428000Y-101072000D01*
X128428000Y-99872000D02*
X129128000Y-99872000D01*
X113569000Y-118145000D02*
X114269000Y-118145000D01*
X114269000Y-119345000D02*
X113569000Y-119345000D01*
X130353000Y-86601000D02*
X130353000Y-81801000D01*
X130353000Y-81801000D02*
X121953000Y-81801000D01*
X130353000Y-86601000D02*
X121953000Y-86601000D01*
X133671500Y-84375500D02*
X133671500Y-82375500D01*
X131631500Y-82375500D02*
X131631500Y-84375500D01*
X135607500Y-81185500D02*
X135607500Y-80485500D01*
X136807500Y-80485500D02*
X136807500Y-81185500D01*
X135283500Y-82390500D02*
X135283500Y-83090500D01*
X134083500Y-83090500D02*
X134083500Y-82390500D01*
X137366500Y-92777500D02*
X139366500Y-92777500D01*
X139366500Y-90737500D02*
X137366500Y-90737500D01*
X139366500Y-88451500D02*
X137366500Y-88451500D01*
X137366500Y-90491500D02*
X139366500Y-90491500D01*
X127600000Y-113632500D02*
X127600000Y-114332500D01*
X126400000Y-114332500D02*
X126400000Y-113632500D01*
X139157000Y-113635000D02*
X139157000Y-114335000D01*
X137957000Y-114335000D02*
X137957000Y-113635000D01*
X149514000Y-114337500D02*
X149514000Y-113637500D01*
X150714000Y-113637500D02*
X150714000Y-114337500D01*
X128428000Y-92872000D02*
X129128000Y-92872000D01*
X129128000Y-94072000D02*
X128428000Y-94072000D01*
X118648000Y-116197000D02*
X116548000Y-116197000D01*
X118648000Y-115197000D02*
X116548000Y-115197000D01*
X118648000Y-116197000D02*
X118648000Y-115197000D01*
X120026000Y-74521000D02*
X120026000Y-77121000D01*
X105326000Y-74521000D02*
X120026000Y-74521000D01*
X120026000Y-83721000D02*
X118126000Y-83721000D01*
X120026000Y-81021000D02*
X120026000Y-83721000D01*
X105326000Y-83721000D02*
X105326000Y-74521000D01*
X114126000Y-83721000D02*
X105326000Y-83721000D01*
D10*
X130640000Y-78093500D02*
X137640000Y-78093500D01*
X130640000Y-70493500D02*
X130640000Y-78093500D01*
X137640000Y-78093500D02*
X137640000Y-70493500D01*
X137640000Y-70893500D02*
X130640000Y-70893500D01*
X137640000Y-71993500D02*
X130640000Y-71993500D01*
X134140000Y-70893500D02*
X134140000Y-70493500D01*
X120572000Y-126718500D02*
X120572000Y-127118500D01*
X124172000Y-126718500D02*
X124172000Y-127118500D01*
X117072000Y-125618500D02*
X127672000Y-125618500D01*
X117072000Y-126718500D02*
X127672000Y-126718500D01*
X117072000Y-119518500D02*
X117072000Y-127118500D01*
X127672000Y-127118500D02*
X127672000Y-119518500D01*
X127672000Y-119518500D02*
X117072000Y-119518500D01*
X139530000Y-78093500D02*
X146530000Y-78093500D01*
X139530000Y-70493500D02*
X139530000Y-78093500D01*
X146530000Y-78093500D02*
X146530000Y-70493500D01*
X146530000Y-70893500D02*
X139530000Y-70893500D01*
X146530000Y-71993500D02*
X139530000Y-71993500D01*
X143030000Y-70893500D02*
X143030000Y-70493500D01*
X139229000Y-119521000D02*
X128629000Y-119521000D01*
X139229000Y-127121000D02*
X139229000Y-119521000D01*
X128629000Y-119521000D02*
X128629000Y-127121000D01*
X128629000Y-126721000D02*
X139229000Y-126721000D01*
X128629000Y-125621000D02*
X139229000Y-125621000D01*
X135729000Y-126721000D02*
X135729000Y-127121000D01*
X132129000Y-126721000D02*
X132129000Y-127121000D01*
X152047000Y-70893500D02*
X152047000Y-70493500D01*
X155547000Y-71993500D02*
X148547000Y-71993500D01*
X155547000Y-70893500D02*
X148547000Y-70893500D01*
X155547000Y-78093500D02*
X155547000Y-70493500D01*
X148547000Y-70493500D02*
X148547000Y-78093500D01*
X148547000Y-78093500D02*
X155547000Y-78093500D01*
X150786000Y-119523500D02*
X140186000Y-119523500D01*
X150786000Y-127123500D02*
X150786000Y-119523500D01*
X140186000Y-119523500D02*
X140186000Y-127123500D01*
X140186000Y-126723500D02*
X150786000Y-126723500D01*
X140186000Y-125623500D02*
X150786000Y-125623500D01*
X147286000Y-126723500D02*
X147286000Y-127123500D01*
X143686000Y-126723500D02*
X143686000Y-127123500D01*
X120892500Y-105849000D02*
X120892500Y-91849000D01*
X113292500Y-105849000D02*
X120892500Y-105849000D01*
X120892500Y-91849000D02*
X113292500Y-91849000D01*
X113692500Y-91849000D02*
X113692500Y-105849000D01*
X114792500Y-91849000D02*
X114792500Y-105849000D01*
X113692500Y-102349000D02*
X113292500Y-102349000D01*
X113692500Y-98849000D02*
X113292500Y-98849000D01*
X113692500Y-95349000D02*
X113292500Y-95349000D01*
D12*
X168081000Y-121345000D02*
X166751000Y-121345000D01*
X168081000Y-120015000D02*
X168081000Y-121345000D01*
X165481000Y-121345000D02*
X162881000Y-121345000D01*
X165481000Y-118745000D02*
X165481000Y-121345000D01*
X168081000Y-118745000D02*
X165481000Y-118745000D01*
X162881000Y-121345000D02*
X162881000Y-75505000D01*
X168081000Y-118745000D02*
X168081000Y-75505000D01*
X168081000Y-75505000D02*
X162881000Y-75505000D01*
X141187500Y-89952500D02*
X142132500Y-89952500D01*
X141187500Y-84672500D02*
X141187500Y-89952500D01*
X142132500Y-84672500D02*
X141187500Y-84672500D01*
X146467500Y-89952500D02*
X145522500Y-89952500D01*
X146467500Y-84672500D02*
X146467500Y-89952500D01*
X145522500Y-84672500D02*
X146467500Y-84672500D01*
X116848000Y-116541000D02*
X117848000Y-116541000D01*
X117848000Y-117901000D02*
X116848000Y-117901000D01*
X133913500Y-87865500D02*
X132913500Y-87865500D01*
X132913500Y-86505500D02*
X133913500Y-86505500D01*
X133925499Y-89423499D02*
X132925499Y-89423499D01*
X132925499Y-88063499D02*
X133925499Y-88063499D01*
X140380000Y-80335500D02*
X140380000Y-81335500D01*
X139020000Y-81335500D02*
X139020000Y-80335500D01*
X137369000Y-81335500D02*
X137369000Y-80335500D01*
X138729000Y-80335500D02*
X138729000Y-81335500D01*
X124976000Y-117366500D02*
X125976000Y-117366500D01*
X125976000Y-118726500D02*
X124976000Y-118726500D01*
X124976000Y-115842500D02*
X125976000Y-115842500D01*
X125976000Y-117202500D02*
X124976000Y-117202500D01*
X137533000Y-118729000D02*
X136533000Y-118729000D01*
X136533000Y-117369000D02*
X137533000Y-117369000D01*
X136533000Y-115845000D02*
X137533000Y-115845000D01*
X137533000Y-117205000D02*
X136533000Y-117205000D01*
X148090000Y-117371500D02*
X149090000Y-117371500D01*
X149090000Y-118731500D02*
X148090000Y-118731500D01*
X149090000Y-117207500D02*
X148090000Y-117207500D01*
X148090000Y-115847500D02*
X149090000Y-115847500D01*
X124161000Y-92448000D02*
X124161000Y-91448000D01*
X125521000Y-91448000D02*
X125521000Y-92448000D01*
X125685000Y-92448000D02*
X125685000Y-91448000D01*
X127045000Y-91448000D02*
X127045000Y-92448000D01*
X116459000Y-70866000D02*
X117729000Y-70866000D01*
X116459000Y-72136000D02*
X116459000Y-70866000D01*
X118839000Y-72516000D02*
X119169000Y-72516000D01*
X118839000Y-71756000D02*
X119169000Y-71756000D01*
X121829000Y-72416000D02*
X127829000Y-72416000D01*
X121829000Y-72296000D02*
X127829000Y-72296000D01*
X121829000Y-72176000D02*
X127829000Y-72176000D01*
X121829000Y-72056000D02*
X127829000Y-72056000D01*
X121829000Y-71936000D02*
X127829000Y-71936000D01*
X121829000Y-71816000D02*
X127829000Y-71816000D01*
X127829000Y-72516000D02*
X121829000Y-72516000D01*
X127829000Y-71756000D02*
X127829000Y-72516000D01*
X121829000Y-71756000D02*
X127829000Y-71756000D01*
X121829000Y-70806000D02*
X119169000Y-70806000D01*
X121829000Y-73466000D02*
X121829000Y-70806000D01*
X119169000Y-73466000D02*
X121829000Y-73466000D01*
X119169000Y-70806000D02*
X119169000Y-73466000D01*
D10*
X126238000Y-88011000D02*
G75*
G03X126238000Y-88011000I-1016000J0D01*
G01*
X144843500Y-92392500D02*
G75*
G03X144843500Y-92392500I-1016000J0D01*
G01*
D12*
X114619000Y-115299000D02*
X112719000Y-115299000D01*
X113219000Y-117619000D02*
X114619000Y-117619000D01*
D10*
X136106500Y-86270500D02*
X136606500Y-86270500D01*
X136106500Y-83020500D02*
X136606500Y-83020500D01*
X139356500Y-83020500D02*
X138856500Y-83020500D01*
X139356500Y-86270500D02*
X138856500Y-86270500D01*
X136106500Y-83020500D02*
X136106500Y-83520500D01*
X139356500Y-83020500D02*
X139356500Y-83520500D01*
X136106500Y-86270500D02*
X136106500Y-85770500D01*
D12*
X125874000Y-114682500D02*
X125874000Y-113282500D01*
X123554000Y-113282500D02*
X123554000Y-115182500D01*
X135111000Y-113285000D02*
X135111000Y-115185000D01*
X137431000Y-114685000D02*
X137431000Y-113285000D01*
X146668000Y-113287500D02*
X146668000Y-115187500D01*
X148988000Y-114687500D02*
X148988000Y-113287500D01*
X128078000Y-92346000D02*
X129478000Y-92346000D01*
X129478000Y-90026000D02*
X127578000Y-90026000D01*
D10*
X127551000Y-81011000D02*
X128951000Y-81011000D01*
X127551000Y-75911000D02*
X123401000Y-75911000D01*
X127551000Y-81061000D02*
X123401000Y-81061000D01*
X127551000Y-75911000D02*
X127551000Y-76056000D01*
X123401000Y-75911000D02*
X123401000Y-76056000D01*
X123401000Y-81061000D02*
X123401000Y-80916000D01*
X127551000Y-81061000D02*
X127551000Y-81011000D01*
X148780714Y-86542880D02*
X148780714Y-87352404D01*
X148828333Y-87447642D01*
X148875952Y-87495261D01*
X148971190Y-87542880D01*
X149161666Y-87542880D01*
X149256904Y-87495261D01*
X149304523Y-87447642D01*
X149352142Y-87352404D01*
X149352142Y-86542880D01*
X149733095Y-86542880D02*
X150399761Y-86542880D01*
X149971190Y-87542880D01*
X150971190Y-86542880D02*
X151066428Y-86542880D01*
X151161666Y-86590500D01*
X151209285Y-86638119D01*
X151256904Y-86733357D01*
X151304523Y-86923833D01*
X151304523Y-87161928D01*
X151256904Y-87352404D01*
X151209285Y-87447642D01*
X151161666Y-87495261D01*
X151066428Y-87542880D01*
X150971190Y-87542880D01*
X150875952Y-87495261D01*
X150828333Y-87447642D01*
X150780714Y-87352404D01*
X150733095Y-87161928D01*
X150733095Y-86923833D01*
X150780714Y-86733357D01*
X150828333Y-86638119D01*
X150875952Y-86590500D01*
X150971190Y-86542880D01*
X151637857Y-86542880D02*
X152256904Y-86542880D01*
X151923571Y-86923833D01*
X152066428Y-86923833D01*
X152161666Y-86971452D01*
X152209285Y-87019071D01*
X152256904Y-87114309D01*
X152256904Y-87352404D01*
X152209285Y-87447642D01*
X152161666Y-87495261D01*
X152066428Y-87542880D01*
X151780714Y-87542880D01*
X151685476Y-87495261D01*
X151637857Y-87447642D01*
X148780714Y-79240380D02*
X148780714Y-80049904D01*
X148828333Y-80145142D01*
X148875952Y-80192761D01*
X148971190Y-80240380D01*
X149161666Y-80240380D01*
X149256904Y-80192761D01*
X149304523Y-80145142D01*
X149352142Y-80049904D01*
X149352142Y-79240380D01*
X149733095Y-79240380D02*
X150399761Y-79240380D01*
X149971190Y-80240380D01*
X150971190Y-79240380D02*
X151066428Y-79240380D01*
X151161666Y-79288000D01*
X151209285Y-79335619D01*
X151256904Y-79430857D01*
X151304523Y-79621333D01*
X151304523Y-79859428D01*
X151256904Y-80049904D01*
X151209285Y-80145142D01*
X151161666Y-80192761D01*
X151066428Y-80240380D01*
X150971190Y-80240380D01*
X150875952Y-80192761D01*
X150828333Y-80145142D01*
X150780714Y-80049904D01*
X150733095Y-79859428D01*
X150733095Y-79621333D01*
X150780714Y-79430857D01*
X150828333Y-79335619D01*
X150875952Y-79288000D01*
X150971190Y-79240380D01*
X151685476Y-79335619D02*
X151733095Y-79288000D01*
X151828333Y-79240380D01*
X152066428Y-79240380D01*
X152161666Y-79288000D01*
X152209285Y-79335619D01*
X152256904Y-79430857D01*
X152256904Y-79526095D01*
X152209285Y-79668952D01*
X151637857Y-80240380D01*
X152256904Y-80240380D01*
X137334380Y-108926285D02*
X138143904Y-108926285D01*
X138239142Y-108878666D01*
X138286761Y-108831047D01*
X138334380Y-108735809D01*
X138334380Y-108545333D01*
X138286761Y-108450095D01*
X138239142Y-108402476D01*
X138143904Y-108354857D01*
X137334380Y-108354857D01*
X137334380Y-107973904D02*
X137334380Y-107307238D01*
X138334380Y-107735809D01*
X137334380Y-106735809D02*
X137334380Y-106640571D01*
X137382000Y-106545333D01*
X137429619Y-106497714D01*
X137524857Y-106450095D01*
X137715333Y-106402476D01*
X137953428Y-106402476D01*
X138143904Y-106450095D01*
X138239142Y-106497714D01*
X138286761Y-106545333D01*
X138334380Y-106640571D01*
X138334380Y-106735809D01*
X138286761Y-106831047D01*
X138239142Y-106878666D01*
X138143904Y-106926285D01*
X137953428Y-106973904D01*
X137715333Y-106973904D01*
X137524857Y-106926285D01*
X137429619Y-106878666D01*
X137382000Y-106831047D01*
X137334380Y-106735809D01*
X138334380Y-105450095D02*
X138334380Y-106021523D01*
X138334380Y-105735809D02*
X137334380Y-105735809D01*
X137477238Y-105831047D01*
X137572476Y-105926285D01*
X137620095Y-106021523D01*
X127063714Y-102638380D02*
X127063714Y-103447904D01*
X127111333Y-103543142D01*
X127158952Y-103590761D01*
X127254190Y-103638380D01*
X127444666Y-103638380D01*
X127539904Y-103590761D01*
X127587523Y-103543142D01*
X127635142Y-103447904D01*
X127635142Y-102638380D01*
X128158952Y-103638380D02*
X128349428Y-103638380D01*
X128444666Y-103590761D01*
X128492285Y-103543142D01*
X128587523Y-103400285D01*
X128635142Y-103209809D01*
X128635142Y-102828857D01*
X128587523Y-102733619D01*
X128539904Y-102686000D01*
X128444666Y-102638380D01*
X128254190Y-102638380D01*
X128158952Y-102686000D01*
X128111333Y-102733619D01*
X128063714Y-102828857D01*
X128063714Y-103066952D01*
X128111333Y-103162190D01*
X128158952Y-103209809D01*
X128254190Y-103257428D01*
X128444666Y-103257428D01*
X128539904Y-103209809D01*
X128587523Y-103162190D01*
X128635142Y-103066952D01*
X129254190Y-102638380D02*
X129349428Y-102638380D01*
X129444666Y-102686000D01*
X129492285Y-102733619D01*
X129539904Y-102828857D01*
X129587523Y-103019333D01*
X129587523Y-103257428D01*
X129539904Y-103447904D01*
X129492285Y-103543142D01*
X129444666Y-103590761D01*
X129349428Y-103638380D01*
X129254190Y-103638380D01*
X129158952Y-103590761D01*
X129111333Y-103543142D01*
X129063714Y-103447904D01*
X129016095Y-103257428D01*
X129016095Y-103019333D01*
X129063714Y-102828857D01*
X129111333Y-102733619D01*
X129158952Y-102686000D01*
X129254190Y-102638380D01*
X129920857Y-102638380D02*
X130539904Y-102638380D01*
X130206571Y-103019333D01*
X130349428Y-103019333D01*
X130444666Y-103066952D01*
X130492285Y-103114571D01*
X130539904Y-103209809D01*
X130539904Y-103447904D01*
X130492285Y-103543142D01*
X130444666Y-103590761D01*
X130349428Y-103638380D01*
X130063714Y-103638380D01*
X129968476Y-103590761D01*
X129920857Y-103543142D01*
X127063714Y-95638380D02*
X127063714Y-96447904D01*
X127111333Y-96543142D01*
X127158952Y-96590761D01*
X127254190Y-96638380D01*
X127444666Y-96638380D01*
X127539904Y-96590761D01*
X127587523Y-96543142D01*
X127635142Y-96447904D01*
X127635142Y-95638380D01*
X128158952Y-96638380D02*
X128349428Y-96638380D01*
X128444666Y-96590761D01*
X128492285Y-96543142D01*
X128587523Y-96400285D01*
X128635142Y-96209809D01*
X128635142Y-95828857D01*
X128587523Y-95733619D01*
X128539904Y-95686000D01*
X128444666Y-95638380D01*
X128254190Y-95638380D01*
X128158952Y-95686000D01*
X128111333Y-95733619D01*
X128063714Y-95828857D01*
X128063714Y-96066952D01*
X128111333Y-96162190D01*
X128158952Y-96209809D01*
X128254190Y-96257428D01*
X128444666Y-96257428D01*
X128539904Y-96209809D01*
X128587523Y-96162190D01*
X128635142Y-96066952D01*
X129254190Y-95638380D02*
X129349428Y-95638380D01*
X129444666Y-95686000D01*
X129492285Y-95733619D01*
X129539904Y-95828857D01*
X129587523Y-96019333D01*
X129587523Y-96257428D01*
X129539904Y-96447904D01*
X129492285Y-96543142D01*
X129444666Y-96590761D01*
X129349428Y-96638380D01*
X129254190Y-96638380D01*
X129158952Y-96590761D01*
X129111333Y-96543142D01*
X129063714Y-96447904D01*
X129016095Y-96257428D01*
X129016095Y-96019333D01*
X129063714Y-95828857D01*
X129111333Y-95733619D01*
X129158952Y-95686000D01*
X129254190Y-95638380D01*
X129968476Y-95733619D02*
X130016095Y-95686000D01*
X130111333Y-95638380D01*
X130349428Y-95638380D01*
X130444666Y-95686000D01*
X130492285Y-95733619D01*
X130539904Y-95828857D01*
X130539904Y-95924095D01*
X130492285Y-96066952D01*
X129920857Y-96638380D01*
X130539904Y-96638380D01*
X111021880Y-118173285D02*
X111831404Y-118173285D01*
X111926642Y-118125666D01*
X111974261Y-118078047D01*
X112021880Y-117982809D01*
X112021880Y-117792333D01*
X111974261Y-117697095D01*
X111926642Y-117649476D01*
X111831404Y-117601857D01*
X111021880Y-117601857D01*
X111117119Y-117173285D02*
X111069500Y-117125666D01*
X111021880Y-117030428D01*
X111021880Y-116792333D01*
X111069500Y-116697095D01*
X111117119Y-116649476D01*
X111212357Y-116601857D01*
X111307595Y-116601857D01*
X111450452Y-116649476D01*
X112021880Y-117220904D01*
X112021880Y-116601857D01*
X111021880Y-115982809D02*
X111021880Y-115887571D01*
X111069500Y-115792333D01*
X111117119Y-115744714D01*
X111212357Y-115697095D01*
X111402833Y-115649476D01*
X111640928Y-115649476D01*
X111831404Y-115697095D01*
X111926642Y-115744714D01*
X111974261Y-115792333D01*
X112021880Y-115887571D01*
X112021880Y-115982809D01*
X111974261Y-116078047D01*
X111926642Y-116125666D01*
X111831404Y-116173285D01*
X111640928Y-116220904D01*
X111402833Y-116220904D01*
X111212357Y-116173285D01*
X111117119Y-116125666D01*
X111069500Y-116078047D01*
X111021880Y-115982809D01*
X112021880Y-114697095D02*
X112021880Y-115268523D01*
X112021880Y-114982809D02*
X111021880Y-114982809D01*
X111164738Y-115078047D01*
X111259976Y-115173285D01*
X111307595Y-115268523D01*
X136017214Y-86947880D02*
X136017214Y-87757404D01*
X136064833Y-87852642D01*
X136112452Y-87900261D01*
X136207690Y-87947880D01*
X136398166Y-87947880D01*
X136493404Y-87900261D01*
X136541023Y-87852642D01*
X136588642Y-87757404D01*
X136588642Y-86947880D01*
X137017214Y-87043119D02*
X137064833Y-86995500D01*
X137160071Y-86947880D01*
X137398166Y-86947880D01*
X137493404Y-86995500D01*
X137541023Y-87043119D01*
X137588642Y-87138357D01*
X137588642Y-87233595D01*
X137541023Y-87376452D01*
X136969595Y-87947880D01*
X137588642Y-87947880D01*
X138207690Y-86947880D02*
X138302928Y-86947880D01*
X138398166Y-86995500D01*
X138445785Y-87043119D01*
X138493404Y-87138357D01*
X138541023Y-87328833D01*
X138541023Y-87566928D01*
X138493404Y-87757404D01*
X138445785Y-87852642D01*
X138398166Y-87900261D01*
X138302928Y-87947880D01*
X138207690Y-87947880D01*
X138112452Y-87900261D01*
X138064833Y-87852642D01*
X138017214Y-87757404D01*
X137969595Y-87566928D01*
X137969595Y-87328833D01*
X138017214Y-87138357D01*
X138064833Y-87043119D01*
X138112452Y-86995500D01*
X138207690Y-86947880D01*
X138921976Y-87043119D02*
X138969595Y-86995500D01*
X139064833Y-86947880D01*
X139302928Y-86947880D01*
X139398166Y-86995500D01*
X139445785Y-87043119D01*
X139493404Y-87138357D01*
X139493404Y-87233595D01*
X139445785Y-87376452D01*
X138874357Y-87947880D01*
X139493404Y-87947880D01*
X122166380Y-115696785D02*
X122975904Y-115696785D01*
X123071142Y-115649166D01*
X123118761Y-115601547D01*
X123166380Y-115506309D01*
X123166380Y-115315833D01*
X123118761Y-115220595D01*
X123071142Y-115172976D01*
X122975904Y-115125357D01*
X122166380Y-115125357D01*
X122166380Y-114744404D02*
X122166380Y-114125357D01*
X122547333Y-114458690D01*
X122547333Y-114315833D01*
X122594952Y-114220595D01*
X122642571Y-114172976D01*
X122737809Y-114125357D01*
X122975904Y-114125357D01*
X123071142Y-114172976D01*
X123118761Y-114220595D01*
X123166380Y-114315833D01*
X123166380Y-114601547D01*
X123118761Y-114696785D01*
X123071142Y-114744404D01*
X122166380Y-113506309D02*
X122166380Y-113411071D01*
X122214000Y-113315833D01*
X122261619Y-113268214D01*
X122356857Y-113220595D01*
X122547333Y-113172976D01*
X122785428Y-113172976D01*
X122975904Y-113220595D01*
X123071142Y-113268214D01*
X123118761Y-113315833D01*
X123166380Y-113411071D01*
X123166380Y-113506309D01*
X123118761Y-113601547D01*
X123071142Y-113649166D01*
X122975904Y-113696785D01*
X122785428Y-113744404D01*
X122547333Y-113744404D01*
X122356857Y-113696785D01*
X122261619Y-113649166D01*
X122214000Y-113601547D01*
X122166380Y-113506309D01*
X123166380Y-112220595D02*
X123166380Y-112792023D01*
X123166380Y-112506309D02*
X122166380Y-112506309D01*
X122309238Y-112601547D01*
X122404476Y-112696785D01*
X122452095Y-112792023D01*
X133723380Y-115699285D02*
X134532904Y-115699285D01*
X134628142Y-115651666D01*
X134675761Y-115604047D01*
X134723380Y-115508809D01*
X134723380Y-115318333D01*
X134675761Y-115223095D01*
X134628142Y-115175476D01*
X134532904Y-115127857D01*
X133723380Y-115127857D01*
X134056714Y-114223095D02*
X134723380Y-114223095D01*
X133675761Y-114461190D02*
X134390047Y-114699285D01*
X134390047Y-114080238D01*
X133723380Y-113508809D02*
X133723380Y-113413571D01*
X133771000Y-113318333D01*
X133818619Y-113270714D01*
X133913857Y-113223095D01*
X134104333Y-113175476D01*
X134342428Y-113175476D01*
X134532904Y-113223095D01*
X134628142Y-113270714D01*
X134675761Y-113318333D01*
X134723380Y-113413571D01*
X134723380Y-113508809D01*
X134675761Y-113604047D01*
X134628142Y-113651666D01*
X134532904Y-113699285D01*
X134342428Y-113746904D01*
X134104333Y-113746904D01*
X133913857Y-113699285D01*
X133818619Y-113651666D01*
X133771000Y-113604047D01*
X133723380Y-113508809D01*
X134723380Y-112223095D02*
X134723380Y-112794523D01*
X134723380Y-112508809D02*
X133723380Y-112508809D01*
X133866238Y-112604047D01*
X133961476Y-112699285D01*
X134009095Y-112794523D01*
X145280380Y-115701785D02*
X146089904Y-115701785D01*
X146185142Y-115654166D01*
X146232761Y-115606547D01*
X146280380Y-115511309D01*
X146280380Y-115320833D01*
X146232761Y-115225595D01*
X146185142Y-115177976D01*
X146089904Y-115130357D01*
X145280380Y-115130357D01*
X145280380Y-114177976D02*
X145280380Y-114654166D01*
X145756571Y-114701785D01*
X145708952Y-114654166D01*
X145661333Y-114558928D01*
X145661333Y-114320833D01*
X145708952Y-114225595D01*
X145756571Y-114177976D01*
X145851809Y-114130357D01*
X146089904Y-114130357D01*
X146185142Y-114177976D01*
X146232761Y-114225595D01*
X146280380Y-114320833D01*
X146280380Y-114558928D01*
X146232761Y-114654166D01*
X146185142Y-114701785D01*
X145280380Y-113511309D02*
X145280380Y-113416071D01*
X145328000Y-113320833D01*
X145375619Y-113273214D01*
X145470857Y-113225595D01*
X145661333Y-113177976D01*
X145899428Y-113177976D01*
X146089904Y-113225595D01*
X146185142Y-113273214D01*
X146232761Y-113320833D01*
X146280380Y-113416071D01*
X146280380Y-113511309D01*
X146232761Y-113606547D01*
X146185142Y-113654166D01*
X146089904Y-113701785D01*
X145899428Y-113749404D01*
X145661333Y-113749404D01*
X145470857Y-113701785D01*
X145375619Y-113654166D01*
X145328000Y-113606547D01*
X145280380Y-113511309D01*
X146280380Y-112225595D02*
X146280380Y-112797023D01*
X146280380Y-112511309D02*
X145280380Y-112511309D01*
X145423238Y-112606547D01*
X145518476Y-112701785D01*
X145566095Y-112797023D01*
X127063714Y-88638380D02*
X127063714Y-89447904D01*
X127111333Y-89543142D01*
X127158952Y-89590761D01*
X127254190Y-89638380D01*
X127444666Y-89638380D01*
X127539904Y-89590761D01*
X127587523Y-89543142D01*
X127635142Y-89447904D01*
X127635142Y-88638380D01*
X128158952Y-89638380D02*
X128349428Y-89638380D01*
X128444666Y-89590761D01*
X128492285Y-89543142D01*
X128587523Y-89400285D01*
X128635142Y-89209809D01*
X128635142Y-88828857D01*
X128587523Y-88733619D01*
X128539904Y-88686000D01*
X128444666Y-88638380D01*
X128254190Y-88638380D01*
X128158952Y-88686000D01*
X128111333Y-88733619D01*
X128063714Y-88828857D01*
X128063714Y-89066952D01*
X128111333Y-89162190D01*
X128158952Y-89209809D01*
X128254190Y-89257428D01*
X128444666Y-89257428D01*
X128539904Y-89209809D01*
X128587523Y-89162190D01*
X128635142Y-89066952D01*
X129254190Y-88638380D02*
X129349428Y-88638380D01*
X129444666Y-88686000D01*
X129492285Y-88733619D01*
X129539904Y-88828857D01*
X129587523Y-89019333D01*
X129587523Y-89257428D01*
X129539904Y-89447904D01*
X129492285Y-89543142D01*
X129444666Y-89590761D01*
X129349428Y-89638380D01*
X129254190Y-89638380D01*
X129158952Y-89590761D01*
X129111333Y-89543142D01*
X129063714Y-89447904D01*
X129016095Y-89257428D01*
X129016095Y-89019333D01*
X129063714Y-88828857D01*
X129111333Y-88733619D01*
X129158952Y-88686000D01*
X129254190Y-88638380D01*
X130539904Y-89638380D02*
X129968476Y-89638380D01*
X130254190Y-89638380D02*
X130254190Y-88638380D01*
X130158952Y-88781238D01*
X130063714Y-88876476D01*
X129968476Y-88924095D01*
M02*
