M48
; DRILL file {KiCad (5.1.4)-1} date 5/2/2020 5:21:23 PM
; FORMAT={-:-/ absolute / inch / decimal}
; #@! TF.CreationDate,2020-05-02T17:21:23-05:00
; #@! TF.GenerationSoftware,Kicad,Pcbnew,(5.1.4)-1
; #@! TF.FileFunction,Plated,1,2,PTH
FMAT,2
INCH
T1C0.0079
T2C0.0118
T3C0.0394
T4C0.0472
%
G90
G05
T1
X4.4555Y-4.675
X4.48Y-4.585
X4.5145Y-4.585
X4.8325Y-4.435
X4.91Y-4.5022
X4.92Y-3.0695
X4.98Y-3.0124
X5.0Y-4.517
X5.0405Y-3.68
X5.0405Y-3.9556
X5.0405Y-4.2312
X5.0463Y-3.065
X5.0575Y-3.59
X5.06Y-3.865
X5.06Y-4.1425
X5.2Y-3.2241
X5.2225Y-3.2241
X5.2234Y-3.4938
X5.245Y-3.2241
X5.2555Y-3.0525
X5.3025Y-3.1625
X5.3475Y-4.165
X5.365Y-4.4975
X5.38Y-4.1575
X5.3884Y-3.5
X5.3884Y-3.5225
X5.3884Y-3.545
X5.3884Y-3.59
X5.3884Y-3.6125
X5.3884Y-3.635
X5.41Y-4.1575
X5.455Y-4.5171
X5.5066Y-3.6125
X5.5175Y-3.3
X5.5325Y-3.1025
X5.5369Y-4.1582
X5.5369Y-4.2
X5.5369Y-4.2419
X5.5369Y-4.2837
X5.55Y-4.3825
X5.575Y-4.3825
X5.5788Y-4.1582
X5.5788Y-4.2
X5.5788Y-4.2419
X5.5788Y-4.2837
X5.6Y-4.3825
X5.6055Y-3.0475
X5.608Y-3.89
X5.6206Y-4.1582
X5.6206Y-4.2
X5.6206Y-4.2419
X5.6206Y-4.2837
X5.64Y-4.3825
X5.6624Y-4.1582
X5.6624Y-4.2
X5.6624Y-4.2419
X5.6624Y-4.2837
X5.667Y-3.89
X5.7675Y-4.1975
X5.8Y-4.1975
X5.82Y-4.4925
X5.825Y-3.8075
X5.85Y-3.84
X5.8955Y-3.305
X5.8955Y-3.5925
X5.91Y-4.5172
X5.9555Y-3.0475
T2
X5.4048Y-3.3148
X5.4048Y-3.3502
X5.4402Y-3.3148
X5.4402Y-3.3502
T3
X4.7575Y-4.3418
X4.8575Y-4.3418
X4.9575Y-4.3418
X5.0575Y-4.3418
X5.1575Y-4.3418
X5.2575Y-4.3418
X6.465Y-3.025
X6.465Y-3.125
X6.465Y-3.225
X6.465Y-3.325
X6.465Y-3.425
X6.465Y-3.525
X6.465Y-3.625
X6.465Y-3.725
X6.465Y-3.825
X6.465Y-3.925
X6.465Y-4.025
X6.465Y-4.125
X6.465Y-4.225
X6.465Y-4.325
X6.465Y-4.425
X6.465Y-4.525
X6.465Y-4.625
X6.465Y-4.725
X6.565Y-3.025
X6.565Y-3.125
X6.565Y-3.225
X6.565Y-3.325
X6.565Y-3.425
X6.565Y-3.525
X6.565Y-3.625
X6.565Y-3.725
X6.565Y-3.825
X6.565Y-3.925
X6.565Y-4.025
X6.565Y-4.125
X6.565Y-4.225
X6.565Y-4.325
X6.565Y-4.425
X6.565Y-4.525
X6.565Y-4.625
X6.565Y-4.725
X4.635Y-2.84
T4
X5.9172Y-2.9525
X6.055Y-2.9525
X5.59Y-4.8277
X5.7278Y-4.8277
X5.8656Y-4.8277
X5.5622Y-2.9525
X5.7Y-2.9525
X5.2122Y-2.9525
X5.35Y-2.9525
X4.6375Y-3.685
X4.6375Y-3.8228
X4.6375Y-3.9606
X4.6375Y-4.0984
X5.135Y-4.8276
X5.2728Y-4.8276
X5.4106Y-4.8276
X4.68Y-4.8275
X4.8178Y-4.8275
X4.9556Y-4.8275
T3
G00X4.4538Y-3.0756
M15
G01X4.4538Y-3.1544
M16
G05
G00X4.5325Y-3.3
M15
G01X4.6113Y-3.3
M16
G05
G00X4.69Y-3.0756
M15
G01X4.69Y-3.1544
M16
G05
T0
M30
