G04 #@! TF.GenerationSoftware,KiCad,Pcbnew,(5.1.4)-1*
G04 #@! TF.CreationDate,2020-05-02T17:21:17-05:00*
G04 #@! TF.ProjectId,Audio_Optical_Trigger,41756469-6f5f-44f7-9074-6963616c5f54,rev?*
G04 #@! TF.SameCoordinates,Original*
G04 #@! TF.FileFunction,Legend,Bot*
G04 #@! TF.FilePolarity,Positive*
%FSLAX46Y46*%
G04 Gerber Fmt 4.6, Leading zero omitted, Abs format (unit mm)*
G04 Created by KiCad (PCBNEW (5.1.4)-1) date 2020-05-02 17:21:17*
%MOMM*%
%LPD*%
G04 APERTURE LIST*
%ADD10C,0.150000*%
%ADD11C,0.300000*%
%ADD12C,0.120000*%
G04 APERTURE END LIST*
D10*
X139747047Y-126706380D02*
X139747047Y-127420666D01*
X139794666Y-127563523D01*
X139889904Y-127658761D01*
X140032761Y-127706380D01*
X140128000Y-127706380D01*
X138794666Y-127706380D02*
X139270857Y-127706380D01*
X139270857Y-126706380D01*
X137889904Y-127611142D02*
X137937523Y-127658761D01*
X138080380Y-127706380D01*
X138175619Y-127706380D01*
X138318476Y-127658761D01*
X138413714Y-127563523D01*
X138461333Y-127468285D01*
X138508952Y-127277809D01*
X138508952Y-127134952D01*
X138461333Y-126944476D01*
X138413714Y-126849238D01*
X138318476Y-126754000D01*
X138175619Y-126706380D01*
X138080380Y-126706380D01*
X137937523Y-126754000D01*
X137889904Y-126801619D01*
X137175619Y-126706380D02*
X137175619Y-127420666D01*
X137223238Y-127563523D01*
X137318476Y-127658761D01*
X137461333Y-127706380D01*
X137556571Y-127706380D01*
X136223238Y-127706380D02*
X136699428Y-127706380D01*
X136699428Y-126706380D01*
X135318476Y-127611142D02*
X135366095Y-127658761D01*
X135508952Y-127706380D01*
X135604190Y-127706380D01*
X135747047Y-127658761D01*
X135842285Y-127563523D01*
X135889904Y-127468285D01*
X135937523Y-127277809D01*
X135937523Y-127134952D01*
X135889904Y-126944476D01*
X135842285Y-126849238D01*
X135747047Y-126754000D01*
X135604190Y-126706380D01*
X135508952Y-126706380D01*
X135366095Y-126754000D01*
X135318476Y-126801619D01*
X134604190Y-126706380D02*
X134604190Y-127420666D01*
X134651809Y-127563523D01*
X134747047Y-127658761D01*
X134889904Y-127706380D01*
X134985142Y-127706380D01*
X133651809Y-127706380D02*
X134128000Y-127706380D01*
X134128000Y-126706380D01*
X132747047Y-127611142D02*
X132794666Y-127658761D01*
X132937523Y-127706380D01*
X133032761Y-127706380D01*
X133175619Y-127658761D01*
X133270857Y-127563523D01*
X133318476Y-127468285D01*
X133366095Y-127277809D01*
X133366095Y-127134952D01*
X133318476Y-126944476D01*
X133270857Y-126849238D01*
X133175619Y-126754000D01*
X133032761Y-126706380D01*
X132937523Y-126706380D01*
X132794666Y-126754000D01*
X132747047Y-126801619D01*
X132032761Y-126706380D02*
X132032761Y-127420666D01*
X132080380Y-127563523D01*
X132175619Y-127658761D01*
X132318476Y-127706380D01*
X132413714Y-127706380D01*
X131080380Y-127706380D02*
X131556571Y-127706380D01*
X131556571Y-126706380D01*
X130175619Y-127611142D02*
X130223238Y-127658761D01*
X130366095Y-127706380D01*
X130461333Y-127706380D01*
X130604190Y-127658761D01*
X130699428Y-127563523D01*
X130747047Y-127468285D01*
X130794666Y-127277809D01*
X130794666Y-127134952D01*
X130747047Y-126944476D01*
X130699428Y-126849238D01*
X130604190Y-126754000D01*
X130461333Y-126706380D01*
X130366095Y-126706380D01*
X130223238Y-126754000D01*
X130175619Y-126801619D01*
D11*
X146311357Y-96858142D02*
X146097071Y-96929571D01*
X145739928Y-96929571D01*
X145597071Y-96858142D01*
X145525642Y-96786714D01*
X145454214Y-96643857D01*
X145454214Y-96501000D01*
X145525642Y-96358142D01*
X145597071Y-96286714D01*
X145739928Y-96215285D01*
X146025642Y-96143857D01*
X146168500Y-96072428D01*
X146239928Y-96001000D01*
X146311357Y-95858142D01*
X146311357Y-95715285D01*
X146239928Y-95572428D01*
X146168500Y-95501000D01*
X146025642Y-95429571D01*
X145668500Y-95429571D01*
X145454214Y-95501000D01*
X144811357Y-95929571D02*
X144811357Y-97429571D01*
X144811357Y-96001000D02*
X144668500Y-95929571D01*
X144382785Y-95929571D01*
X144239928Y-96001000D01*
X144168500Y-96072428D01*
X144097071Y-96215285D01*
X144097071Y-96643857D01*
X144168500Y-96786714D01*
X144239928Y-96858142D01*
X144382785Y-96929571D01*
X144668500Y-96929571D01*
X144811357Y-96858142D01*
X142811357Y-96929571D02*
X142811357Y-96143857D01*
X142882785Y-96001000D01*
X143025642Y-95929571D01*
X143311357Y-95929571D01*
X143454214Y-96001000D01*
X142811357Y-96858142D02*
X142954214Y-96929571D01*
X143311357Y-96929571D01*
X143454214Y-96858142D01*
X143525642Y-96715285D01*
X143525642Y-96572428D01*
X143454214Y-96429571D01*
X143311357Y-96358142D01*
X142954214Y-96358142D01*
X142811357Y-96286714D01*
X142097071Y-96929571D02*
X142097071Y-95929571D01*
X142097071Y-96215285D02*
X142025642Y-96072428D01*
X141954214Y-96001000D01*
X141811357Y-95929571D01*
X141668500Y-95929571D01*
X141168500Y-96929571D02*
X141168500Y-95429571D01*
X141025642Y-96358142D02*
X140597071Y-96929571D01*
X140597071Y-95929571D02*
X141168500Y-96501000D01*
X140168500Y-95929571D02*
X139597071Y-95929571D01*
X139954214Y-96929571D02*
X139954214Y-95643857D01*
X139882785Y-95501000D01*
X139739928Y-95429571D01*
X139597071Y-95429571D01*
X138454214Y-95929571D02*
X138454214Y-96929571D01*
X139097071Y-95929571D02*
X139097071Y-96715285D01*
X139025642Y-96858142D01*
X138882785Y-96929571D01*
X138668500Y-96929571D01*
X138525642Y-96858142D01*
X138454214Y-96786714D01*
X137739928Y-95929571D02*
X137739928Y-96929571D01*
X137739928Y-96072428D02*
X137668500Y-96001000D01*
X137525642Y-95929571D01*
X137311357Y-95929571D01*
X137168500Y-96001000D01*
X137097071Y-96143857D01*
X137097071Y-96929571D01*
X148061357Y-99479571D02*
X148061357Y-97979571D01*
X147561357Y-99051000D01*
X147061357Y-97979571D01*
X147061357Y-99479571D01*
X146347071Y-99479571D02*
X146347071Y-97979571D01*
X145775642Y-97979571D01*
X145632785Y-98051000D01*
X145561357Y-98122428D01*
X145489928Y-98265285D01*
X145489928Y-98479571D01*
X145561357Y-98622428D01*
X145632785Y-98693857D01*
X145775642Y-98765285D01*
X146347071Y-98765285D01*
X144989928Y-97979571D02*
X144061357Y-97979571D01*
X144561357Y-98551000D01*
X144347071Y-98551000D01*
X144204214Y-98622428D01*
X144132785Y-98693857D01*
X144061357Y-98836714D01*
X144061357Y-99193857D01*
X144132785Y-99336714D01*
X144204214Y-99408142D01*
X144347071Y-99479571D01*
X144775642Y-99479571D01*
X144918500Y-99408142D01*
X144989928Y-99336714D01*
X142489928Y-97979571D02*
X141632785Y-97979571D01*
X142061357Y-99479571D02*
X142061357Y-97979571D01*
X141132785Y-99479571D02*
X141132785Y-98479571D01*
X141132785Y-98765285D02*
X141061357Y-98622428D01*
X140989928Y-98551000D01*
X140847071Y-98479571D01*
X140704214Y-98479571D01*
X140204214Y-99479571D02*
X140204214Y-98479571D01*
X140204214Y-97979571D02*
X140275642Y-98051000D01*
X140204214Y-98122428D01*
X140132785Y-98051000D01*
X140204214Y-97979571D01*
X140204214Y-98122428D01*
X138847071Y-98479571D02*
X138847071Y-99693857D01*
X138918500Y-99836714D01*
X138989928Y-99908142D01*
X139132785Y-99979571D01*
X139347071Y-99979571D01*
X139489928Y-99908142D01*
X138847071Y-99408142D02*
X138989928Y-99479571D01*
X139275642Y-99479571D01*
X139418500Y-99408142D01*
X139489928Y-99336714D01*
X139561357Y-99193857D01*
X139561357Y-98765285D01*
X139489928Y-98622428D01*
X139418500Y-98551000D01*
X139275642Y-98479571D01*
X138989928Y-98479571D01*
X138847071Y-98551000D01*
X137489928Y-98479571D02*
X137489928Y-99693857D01*
X137561357Y-99836714D01*
X137632785Y-99908142D01*
X137775642Y-99979571D01*
X137989928Y-99979571D01*
X138132785Y-99908142D01*
X137489928Y-99408142D02*
X137632785Y-99479571D01*
X137918500Y-99479571D01*
X138061357Y-99408142D01*
X138132785Y-99336714D01*
X138204214Y-99193857D01*
X138204214Y-98765285D01*
X138132785Y-98622428D01*
X138061357Y-98551000D01*
X137918500Y-98479571D01*
X137632785Y-98479571D01*
X137489928Y-98551000D01*
X136204214Y-99408142D02*
X136347071Y-99479571D01*
X136632785Y-99479571D01*
X136775642Y-99408142D01*
X136847071Y-99265285D01*
X136847071Y-98693857D01*
X136775642Y-98551000D01*
X136632785Y-98479571D01*
X136347071Y-98479571D01*
X136204214Y-98551000D01*
X136132785Y-98693857D01*
X136132785Y-98836714D01*
X136847071Y-98979571D01*
X135489928Y-99479571D02*
X135489928Y-98479571D01*
X135489928Y-98765285D02*
X135418500Y-98622428D01*
X135347071Y-98551000D01*
X135204214Y-98479571D01*
X135061357Y-98479571D01*
X150525642Y-100529571D02*
X150239928Y-100529571D01*
X150097071Y-100601000D01*
X149954214Y-100743857D01*
X149882785Y-101029571D01*
X149882785Y-101529571D01*
X149954214Y-101815285D01*
X150097071Y-101958142D01*
X150239928Y-102029571D01*
X150525642Y-102029571D01*
X150668500Y-101958142D01*
X150811357Y-101815285D01*
X150882785Y-101529571D01*
X150882785Y-101029571D01*
X150811357Y-100743857D01*
X150668500Y-100601000D01*
X150525642Y-100529571D01*
X149239928Y-101029571D02*
X149239928Y-102529571D01*
X149239928Y-101101000D02*
X149097071Y-101029571D01*
X148811357Y-101029571D01*
X148668500Y-101101000D01*
X148597071Y-101172428D01*
X148525642Y-101315285D01*
X148525642Y-101743857D01*
X148597071Y-101886714D01*
X148668500Y-101958142D01*
X148811357Y-102029571D01*
X149097071Y-102029571D01*
X149239928Y-101958142D01*
X148097071Y-101029571D02*
X147525642Y-101029571D01*
X147882785Y-100529571D02*
X147882785Y-101815285D01*
X147811357Y-101958142D01*
X147668500Y-102029571D01*
X147525642Y-102029571D01*
X147025642Y-102029571D02*
X147025642Y-101029571D01*
X147025642Y-100529571D02*
X147097071Y-100601000D01*
X147025642Y-100672428D01*
X146954214Y-100601000D01*
X147025642Y-100529571D01*
X147025642Y-100672428D01*
X145668500Y-101958142D02*
X145811357Y-102029571D01*
X146097071Y-102029571D01*
X146239928Y-101958142D01*
X146311357Y-101886714D01*
X146382785Y-101743857D01*
X146382785Y-101315285D01*
X146311357Y-101172428D01*
X146239928Y-101101000D01*
X146097071Y-101029571D01*
X145811357Y-101029571D01*
X145668500Y-101101000D01*
X144382785Y-102029571D02*
X144382785Y-101243857D01*
X144454214Y-101101000D01*
X144597071Y-101029571D01*
X144882785Y-101029571D01*
X145025642Y-101101000D01*
X144382785Y-101958142D02*
X144525642Y-102029571D01*
X144882785Y-102029571D01*
X145025642Y-101958142D01*
X145097071Y-101815285D01*
X145097071Y-101672428D01*
X145025642Y-101529571D01*
X144882785Y-101458142D01*
X144525642Y-101458142D01*
X144382785Y-101386714D01*
X143454214Y-102029571D02*
X143597071Y-101958142D01*
X143668500Y-101815285D01*
X143668500Y-100529571D01*
X141739928Y-102029571D02*
X141739928Y-100529571D01*
X141025642Y-101029571D02*
X141025642Y-102029571D01*
X141025642Y-101172428D02*
X140954214Y-101101000D01*
X140811357Y-101029571D01*
X140597071Y-101029571D01*
X140454214Y-101101000D01*
X140382785Y-101243857D01*
X140382785Y-102029571D01*
X139882785Y-101029571D02*
X139311357Y-101029571D01*
X139668500Y-100529571D02*
X139668500Y-101815285D01*
X139597071Y-101958142D01*
X139454214Y-102029571D01*
X139311357Y-102029571D01*
X138239928Y-101958142D02*
X138382785Y-102029571D01*
X138668500Y-102029571D01*
X138811357Y-101958142D01*
X138882785Y-101815285D01*
X138882785Y-101243857D01*
X138811357Y-101101000D01*
X138668500Y-101029571D01*
X138382785Y-101029571D01*
X138239928Y-101101000D01*
X138168500Y-101243857D01*
X138168500Y-101386714D01*
X138882785Y-101529571D01*
X137525642Y-102029571D02*
X137525642Y-101029571D01*
X137525642Y-101315285D02*
X137454214Y-101172428D01*
X137382785Y-101101000D01*
X137239928Y-101029571D01*
X137097071Y-101029571D01*
X136811357Y-101029571D02*
X136239928Y-101029571D01*
X136597071Y-102029571D02*
X136597071Y-100743857D01*
X136525642Y-100601000D01*
X136382785Y-100529571D01*
X136239928Y-100529571D01*
X135097071Y-102029571D02*
X135097071Y-101243857D01*
X135168500Y-101101000D01*
X135311357Y-101029571D01*
X135597071Y-101029571D01*
X135739928Y-101101000D01*
X135097071Y-101958142D02*
X135239928Y-102029571D01*
X135597071Y-102029571D01*
X135739928Y-101958142D01*
X135811357Y-101815285D01*
X135811357Y-101672428D01*
X135739928Y-101529571D01*
X135597071Y-101458142D01*
X135239928Y-101458142D01*
X135097071Y-101386714D01*
X133739928Y-101958142D02*
X133882785Y-102029571D01*
X134168500Y-102029571D01*
X134311357Y-101958142D01*
X134382785Y-101886714D01*
X134454214Y-101743857D01*
X134454214Y-101315285D01*
X134382785Y-101172428D01*
X134311357Y-101101000D01*
X134168500Y-101029571D01*
X133882785Y-101029571D01*
X133739928Y-101101000D01*
X132525642Y-101958142D02*
X132668500Y-102029571D01*
X132954214Y-102029571D01*
X133097071Y-101958142D01*
X133168500Y-101815285D01*
X133168500Y-101243857D01*
X133097071Y-101101000D01*
X132954214Y-101029571D01*
X132668500Y-101029571D01*
X132525642Y-101101000D01*
X132454214Y-101243857D01*
X132454214Y-101386714D01*
X133168500Y-101529571D01*
X143847071Y-104579571D02*
X144347071Y-103865285D01*
X144704214Y-104579571D02*
X144704214Y-103079571D01*
X144132785Y-103079571D01*
X143989928Y-103151000D01*
X143918500Y-103222428D01*
X143847071Y-103365285D01*
X143847071Y-103579571D01*
X143918500Y-103722428D01*
X143989928Y-103793857D01*
X144132785Y-103865285D01*
X144704214Y-103865285D01*
X143204214Y-103793857D02*
X142704214Y-103793857D01*
X142489928Y-104579571D02*
X143204214Y-104579571D01*
X143204214Y-103079571D01*
X142489928Y-103079571D01*
X142061357Y-103079571D02*
X141561357Y-104579571D01*
X141061357Y-103079571D01*
X138918500Y-103793857D02*
X138704214Y-103865285D01*
X138632785Y-103936714D01*
X138561357Y-104079571D01*
X138561357Y-104293857D01*
X138632785Y-104436714D01*
X138704214Y-104508142D01*
X138847071Y-104579571D01*
X139418500Y-104579571D01*
X139418500Y-103079571D01*
X138918500Y-103079571D01*
X138775642Y-103151000D01*
X138704214Y-103222428D01*
X138632785Y-103365285D01*
X138632785Y-103508142D01*
X138704214Y-103651000D01*
X138775642Y-103722428D01*
X138918500Y-103793857D01*
X139418500Y-103793857D01*
X146847071Y-107993571D02*
X146847071Y-106493571D01*
X146347071Y-107565000D01*
X145847071Y-106493571D01*
X145847071Y-107993571D01*
X144489928Y-107993571D02*
X144489928Y-107207857D01*
X144561357Y-107065000D01*
X144704214Y-106993571D01*
X144989928Y-106993571D01*
X145132785Y-107065000D01*
X144489928Y-107922142D02*
X144632785Y-107993571D01*
X144989928Y-107993571D01*
X145132785Y-107922142D01*
X145204214Y-107779285D01*
X145204214Y-107636428D01*
X145132785Y-107493571D01*
X144989928Y-107422142D01*
X144632785Y-107422142D01*
X144489928Y-107350714D01*
X143918500Y-106993571D02*
X143561357Y-107993571D01*
X143204214Y-106993571D02*
X143561357Y-107993571D01*
X143704214Y-108350714D01*
X143775642Y-108422142D01*
X143918500Y-108493571D01*
X141561357Y-106636428D02*
X141489928Y-106565000D01*
X141347071Y-106493571D01*
X140989928Y-106493571D01*
X140847071Y-106565000D01*
X140775642Y-106636428D01*
X140704214Y-106779285D01*
X140704214Y-106922142D01*
X140775642Y-107136428D01*
X141632785Y-107993571D01*
X140704214Y-107993571D01*
X139775642Y-106493571D02*
X139632785Y-106493571D01*
X139489928Y-106565000D01*
X139418500Y-106636428D01*
X139347071Y-106779285D01*
X139275642Y-107065000D01*
X139275642Y-107422142D01*
X139347071Y-107707857D01*
X139418500Y-107850714D01*
X139489928Y-107922142D01*
X139632785Y-107993571D01*
X139775642Y-107993571D01*
X139918500Y-107922142D01*
X139989928Y-107850714D01*
X140061357Y-107707857D01*
X140132785Y-107422142D01*
X140132785Y-107065000D01*
X140061357Y-106779285D01*
X139989928Y-106636428D01*
X139918500Y-106565000D01*
X139775642Y-106493571D01*
X138704214Y-106636428D02*
X138632785Y-106565000D01*
X138489928Y-106493571D01*
X138132785Y-106493571D01*
X137989928Y-106565000D01*
X137918500Y-106636428D01*
X137847071Y-106779285D01*
X137847071Y-106922142D01*
X137918500Y-107136428D01*
X138775642Y-107993571D01*
X137847071Y-107993571D01*
X136918500Y-106493571D02*
X136775642Y-106493571D01*
X136632785Y-106565000D01*
X136561357Y-106636428D01*
X136489928Y-106779285D01*
X136418500Y-107065000D01*
X136418500Y-107422142D01*
X136489928Y-107707857D01*
X136561357Y-107850714D01*
X136632785Y-107922142D01*
X136775642Y-107993571D01*
X136918500Y-107993571D01*
X137061357Y-107922142D01*
X137132785Y-107850714D01*
X137204214Y-107707857D01*
X137275642Y-107422142D01*
X137275642Y-107065000D01*
X137204214Y-106779285D01*
X137132785Y-106636428D01*
X137061357Y-106565000D01*
X136918500Y-106493571D01*
D12*
X124300500Y-108867500D02*
X125000500Y-108867500D01*
X125000500Y-107667500D02*
X124300500Y-107667500D01*
X125765000Y-104798000D02*
X126965000Y-104798000D01*
X125765000Y-106648000D02*
X125765000Y-104798000D01*
X126965000Y-106648000D02*
X126965000Y-104798000D01*
X125765000Y-97798000D02*
X126965000Y-97798000D01*
X125765000Y-99648000D02*
X125765000Y-97798000D01*
X126965000Y-99648000D02*
X126965000Y-97798000D01*
X124241000Y-105598000D02*
X124241000Y-106298000D01*
X125441000Y-106298000D02*
X125441000Y-105598000D01*
X124241000Y-98598000D02*
X124241000Y-99298000D01*
X125441000Y-99298000D02*
X125441000Y-98598000D01*
X125126000Y-118646500D02*
X125826000Y-118646500D01*
X125826000Y-117446500D02*
X125126000Y-117446500D01*
X137383000Y-117449000D02*
X136683000Y-117449000D01*
X136683000Y-118649000D02*
X137383000Y-118649000D01*
X148940000Y-117451500D02*
X148240000Y-117451500D01*
X148240000Y-118651500D02*
X148940000Y-118651500D01*
X125441000Y-92298000D02*
X125441000Y-91598000D01*
X124241000Y-91598000D02*
X124241000Y-92298000D01*
X119578000Y-118302500D02*
X119578000Y-119762500D01*
X122738000Y-118302500D02*
X122738000Y-120462500D01*
X122738000Y-118302500D02*
X121808000Y-118302500D01*
X119578000Y-118302500D02*
X120508000Y-118302500D01*
X131135000Y-118305000D02*
X131135000Y-119765000D01*
X134295000Y-118305000D02*
X134295000Y-120465000D01*
X134295000Y-118305000D02*
X133365000Y-118305000D01*
X131135000Y-118305000D02*
X132065000Y-118305000D01*
X142692000Y-118307500D02*
X143622000Y-118307500D01*
X145852000Y-118307500D02*
X144922000Y-118307500D01*
X145852000Y-118307500D02*
X145852000Y-120467500D01*
X142692000Y-118307500D02*
X142692000Y-119767500D01*
X120627500Y-99833000D02*
X120627500Y-97383000D01*
X123847500Y-98033000D02*
X123847500Y-99833000D01*
X158724000Y-119056000D02*
X158724000Y-116106000D01*
X161824000Y-116656000D02*
X161824000Y-119056000D01*
X161824000Y-108782000D02*
X161824000Y-111182000D01*
X158724000Y-111182000D02*
X158724000Y-108232000D01*
X158724000Y-103308000D02*
X158724000Y-100358000D01*
X161824000Y-100908000D02*
X161824000Y-103308000D01*
X124288000Y-76716000D02*
X124288000Y-77716000D01*
X125648000Y-77716000D02*
X125648000Y-76716000D01*
X114419000Y-115779000D02*
X113419000Y-115779000D01*
X113419000Y-117139000D02*
X114419000Y-117139000D01*
X133739000Y-78213500D02*
X134739000Y-78213500D01*
X134739000Y-76853500D02*
X133739000Y-76853500D01*
X143629000Y-76726500D02*
X142629000Y-76726500D01*
X142629000Y-78086500D02*
X143629000Y-78086500D01*
X152519000Y-76726500D02*
X151519000Y-76726500D01*
X151519000Y-78086500D02*
X152519000Y-78086500D01*
X127092000Y-78366000D02*
X125892000Y-78366000D01*
X127092000Y-76516000D02*
X127092000Y-78366000D01*
X125892000Y-76516000D02*
X125892000Y-78366000D01*
X126176000Y-115922500D02*
X124326000Y-115922500D01*
X126176000Y-117122500D02*
X124326000Y-117122500D01*
X124326000Y-117122500D02*
X124326000Y-115922500D01*
X137733000Y-115925000D02*
X135883000Y-115925000D01*
X137733000Y-117125000D02*
X135883000Y-117125000D01*
X135883000Y-117125000D02*
X135883000Y-115925000D01*
X147440000Y-117127500D02*
X147440000Y-115927500D01*
X149290000Y-117127500D02*
X147440000Y-117127500D01*
X149290000Y-115927500D02*
X147440000Y-115927500D01*
X126965000Y-92648000D02*
X126965000Y-90798000D01*
X125765000Y-92648000D02*
X125765000Y-90798000D01*
X125765000Y-90798000D02*
X126965000Y-90798000D01*
M02*
